<svg width="102" height="113" viewBox="0 0 102 113" fill="none" xmlns="http://www.w3.org/2000/svg">
<path d="M89.5319 86.006C89.5319 86.36 89.5319 86.6155 89.5319 86.871C89.5319 93.8095 89.5345 100.748 89.5293 107.686C89.5281 109.3 88.1806 110.32 86.791 109.784C85.969 109.466 85.496 108.708 85.4948 107.677C85.4922 101.604 85.4935 95.5292 85.4935 89.4558C85.4935 88.1161 85.4871 86.7751 85.4986 85.4354C85.5011 85.128 85.4705 84.9114 85.1138 84.8193C82.6005 84.1696 80.091 83.503 77.579 82.8454C77.501 82.8247 77.4128 82.8428 77.2594 82.8428C77.2594 83.1139 77.2594 83.3694 77.2594 83.6236C77.2594 89.4817 77.2594 95.3386 77.2594 101.197C77.2594 102.966 76.5256 103.701 74.7614 103.701C59.3568 103.701 43.9523 103.701 28.5477 103.701C26.942 103.701 26.1776 102.916 26.1776 101.262C26.1763 95.3606 26.1776 89.4597 26.1776 83.5587C26.1776 83.3019 26.1776 83.0464 26.1776 82.7028C25.2085 82.9388 24.3073 83.1502 23.4086 83.3772C21.7786 83.7883 20.1563 84.2331 18.5187 84.6079C18.0278 84.7208 17.9345 84.9412 17.9345 85.3977C17.946 93.4386 17.9422 101.479 17.9409 109.52C17.9409 109.758 17.9524 109.999 17.9166 110.232C17.7555 111.297 16.8274 112.066 15.8034 111.997C14.7411 111.926 13.9242 111.057 13.9089 109.929C13.8884 108.373 13.9025 106.816 13.9025 105.26C13.9025 99.0348 13.9025 92.8096 13.9025 86.5844C13.9025 86.3497 13.9025 86.1149 13.9025 85.7855C12.7468 86.067 11.6717 86.3938 10.5736 86.5805C9.07528 86.836 8.08453 87.7153 7.35329 88.9876C6.18868 91.0134 5.6019 93.2415 5.16342 95.5137C4.28133 100.09 4.05122 104.726 4.01542 109.375C4.00775 110.437 3.50279 111.199 2.63732 111.477C1.26561 111.918 -0.0255605 110.927 7.27412e-06 109.37C0.0383589 107.102 0.0971648 104.832 0.240344 102.569C0.470454 98.9453 0.910219 95.3464 1.89202 91.8395C2.55295 89.4791 3.42225 87.2121 5.02024 85.3095C6.13243 83.9854 7.51181 83.1191 9.19673 82.7326C10.8343 82.3565 12.4617 81.9324 14.0917 81.5213C20.9937 79.7782 27.8932 78.0287 34.7952 76.2869C36.2206 75.9277 37.1282 76.4711 37.568 77.9029C38.5472 81.0933 39.979 84.0412 42.2009 86.539C47.5292 92.5321 55.6137 92.3751 60.7298 86.1772C62.8225 83.643 64.2786 80.76 65.0993 77.554C65.4113 76.3336 66.4442 75.7332 67.7213 76.0626C72.0065 77.1701 76.2916 78.2816 80.573 79.4073C84.5654 80.4578 88.536 81.6043 92.5476 82.5692C95.2693 83.2241 97.1191 84.8388 98.4001 87.2627C99.8357 89.9836 100.534 92.938 101.03 95.9481C101.748 100.307 101.968 104.705 102 109.117C102.006 109.987 101.844 110.752 101.067 111.252C99.7488 112.099 98.0677 111.209 98.0025 109.614C97.9437 108.168 97.9514 106.718 97.8849 105.272C97.6778 100.757 97.3339 96.2529 95.9468 91.9212C95.5442 90.6632 94.9126 89.4688 94.2785 88.3041C93.8017 87.4287 93.0091 86.8827 92.0017 86.67C91.1976 86.504 90.4114 86.2472 89.5319 86.006ZM30.2441 99.5639C44.6004 99.5639 58.8813 99.5639 73.2222 99.5639C73.2222 99.2903 73.2222 99.0581 73.2222 98.826C73.2222 95.7575 73.2222 92.6903 73.2222 89.6218C73.2222 87.1797 73.2286 84.7389 73.212 82.2968C73.2107 82.0815 73.1021 81.7132 72.9704 81.6756C71.4862 81.2476 69.9866 80.8702 68.4794 80.476C68.3707 80.7418 68.2877 80.939 68.2109 81.1387C66.884 84.5483 65.0968 87.6596 62.4991 90.2508C57.0851 95.6511 49.1949 96.5421 42.8055 92.427C39.9151 90.5646 37.8147 87.941 36.1797 84.9309C35.4433 83.5756 34.8374 82.1477 34.1368 80.6783C32.8725 80.9986 31.5621 81.3306 30.2467 81.6639C30.2441 87.6531 30.2441 93.5877 30.2441 99.5639Z" fill="white"/>
<path d="M51.7414 0.00132301C54.7022 0.00132301 57.6629 2.60978e-05 60.625 0.00132301C62.1513 0.00261992 62.9376 0.806705 62.9414 2.3643C62.944 3.09964 62.9555 3.8337 62.935 4.56905C62.9261 4.89457 63.0181 5.06576 63.339 5.18638C71.155 8.12518 75.7163 14.0157 78.0072 21.9295C78.2105 22.6311 78.4597 22.9722 79.205 22.8373C79.5144 22.7816 79.843 22.8166 80.1613 22.8309C81.1571 22.8737 81.9139 23.4962 82.1159 24.474C82.6362 27.0017 82.8612 29.5618 82.7411 32.1375C82.6656 33.7703 81.8296 35.0828 80.6969 36.1955C78.8369 38.0229 76.5486 39.1188 74.1618 40.0149C70.0889 41.5427 65.8561 42.3649 61.5582 42.8915C57.7256 43.361 53.8789 43.5789 50.0207 43.5127C43.336 43.3999 36.7229 42.7307 30.3144 40.6595C27.709 39.8178 25.229 38.7115 23.0531 36.9672C20.6178 35.0153 19.8981 32.4475 20.3545 29.4646C20.6153 27.7617 20.986 26.0744 21.3363 24.3872C21.5204 23.5001 22.3066 22.8322 23.2321 22.849C23.8381 22.8607 24.0004 22.6013 24.1449 22.0722C25.5843 16.795 28.2293 12.274 32.4045 8.74121C34.6647 6.82827 37.1844 5.36405 39.979 4.41082C40.3625 4.27983 40.5313 4.10345 40.5019 3.68066C40.4661 3.18654 40.4878 2.68723 40.4955 2.19051C40.5134 0.855988 41.343 0.00910448 42.6649 0.00521374C45.6908 -0.00386464 48.7168 0.00132301 51.7414 0.00132301ZM40.8368 8.452C40.5747 8.54408 40.3727 8.60244 40.181 8.68285C37.9822 9.62052 35.9981 10.9019 34.2416 12.5399C30.6263 15.9092 28.6077 20.1631 27.5684 24.9578C27.2667 26.3481 26.7426 26.7968 25.3606 26.9395C25.1944 26.9563 24.9388 27.1638 24.9106 27.3182C24.6818 28.5658 24.4964 29.8212 24.3021 31.074C24.1436 32.0999 24.5885 32.8793 25.3133 33.5265C25.6483 33.8261 25.9768 34.1646 26.3693 34.3578C28.0094 35.1658 29.6202 36.084 31.3371 36.6728C37.0771 38.6402 43.0458 39.2485 49.0645 39.408C54.1627 39.5442 59.2379 39.2368 64.2722 38.3756C67.8236 37.7674 71.3378 36.9776 74.6041 35.385C75.7611 34.8208 76.8272 34.0427 77.8615 33.2606C78.2539 32.9649 78.6617 32.393 78.6758 31.9339C78.7269 30.2842 78.6132 28.6294 78.5607 26.9226C77.9318 26.9226 77.4664 26.9239 77.0011 26.9226C75.6141 26.92 74.9749 26.3533 74.6207 24.9863C74.2372 23.5078 73.8678 22.0125 73.3194 20.5937C71.3749 15.5617 68.1189 11.7254 63.1766 9.49601C62.9695 9.40264 62.7522 9.3339 62.4748 9.22885C62.283 10.387 62.1015 11.4686 61.9238 12.5502C61.5748 14.6785 61.2411 16.8093 60.8755 18.9349C60.6748 20.1035 59.6253 20.8686 58.5642 20.6728C57.3957 20.4562 56.7093 19.4031 56.9151 18.1711C57.5313 14.4697 58.1577 10.7696 58.7381 7.06171C58.8889 6.0994 58.8876 5.11375 58.9554 4.14625C54.0579 4.14625 49.3189 4.14625 44.5671 4.14625C44.5671 4.90365 44.4738 5.62862 44.5825 6.31988C45.205 10.2819 45.8724 14.2375 46.5295 18.1944C46.7314 19.4135 46.0155 20.4783 44.8497 20.6754C43.7835 20.8557 42.7557 20.0788 42.5575 18.909C42.2405 17.0376 41.9477 15.1622 41.6409 13.2895C41.3788 11.6982 41.1116 10.1069 40.8368 8.452Z" fill="white"/>
<path d="M51.8629 71.753C46.9846 71.7672 43.1673 69.4873 39.7336 66.2009C35.7591 62.3983 33.3519 57.6633 31.5762 52.5457C30.7235 50.088 30.0626 47.5617 29.371 45.0495C29.022 43.7786 29.656 42.6736 30.7593 42.4116C31.9712 42.1224 32.9734 42.8072 33.2841 44.1586C34.069 47.5694 35.1787 50.8688 36.489 54.1085C38.2928 58.5686 41.003 62.3192 44.8126 65.2087C47.9012 67.551 51.3452 68.272 55.0729 67.171C57.328 66.5057 58.9413 64.8845 60.4473 63.1505C64.3374 58.671 66.6206 53.3718 68.092 47.6654C68.4142 46.4139 68.666 45.1442 68.9575 43.8849C69.2502 42.6204 70.2691 41.9123 71.3928 42.1795C72.5191 42.4479 73.1787 43.5257 72.8719 44.7915C72.28 47.24 71.706 49.699 70.9722 52.106C69.2963 57.6114 66.5529 62.5176 62.6691 66.7443C60.2939 69.329 57.5006 71.1603 53.962 71.5973C53.2666 71.6829 52.5635 71.7024 51.8629 71.753Z" fill="white"/>
<path d="M66.0095 109.925C62.9849 109.925 59.9602 109.935 56.9343 109.92C55.4053 109.912 54.4261 108.501 54.9604 107.122C55.28 106.297 56.0266 105.829 57.0532 105.828C61.3779 105.825 65.7014 105.827 70.0262 105.827C71.6881 105.827 73.3488 105.823 75.0107 105.828C76.3363 105.832 77.2517 106.671 77.2581 107.871C77.2632 109.064 76.3376 109.92 75.0209 109.921C72.0167 109.928 69.0137 109.925 66.0095 109.925Z" fill="white"/>
<path d="M50.5743 35.228C45.1463 35.1645 39.5457 34.8104 34.0345 33.5394C33.6817 33.4577 33.3288 33.3773 32.9837 33.2723C31.9162 32.9442 31.3346 31.9507 31.5532 30.8548C31.7564 29.8381 32.7127 29.1403 33.8082 29.3141C34.8987 29.4879 35.9674 29.7953 37.0553 29.9911C42.8669 31.0429 48.727 31.2776 54.6153 31.0416C58.4952 30.886 62.3342 30.4359 66.1246 29.5735C66.7472 29.4321 67.3646 29.2739 67.9872 29.1325C69.1199 28.8757 70.1809 29.5203 70.4507 30.6214C70.7153 31.7069 70.0799 32.8184 68.9217 33.0816C66.7651 33.5706 64.6033 34.0621 62.4224 34.411C58.5693 35.0283 54.6754 35.2163 50.5743 35.228Z" fill="white"/>
</svg>
