<svg width="83" height="82" viewBox="0 0 83 82" fill="none" xmlns="http://www.w3.org/2000/svg">
<path d="M40.3594 0C40.7862 0 41.2138 0 41.6406 0C43.3063 0.418008 44.5395 1.51107 45.7687 2.62016C46.302 3.10143 46.8665 3.55146 47.4431 3.98068C47.8923 4.31621 48.4152 4.48918 48.987 4.38508C49.405 4.309 49.8238 4.22172 50.229 4.096C51.3589 3.74605 52.4688 3.32324 53.6115 3.02055C55.9234 2.40715 57.5658 3.06379 58.8582 5.07695C59.2234 5.64631 59.5157 6.26371 59.832 6.8643C60.23 7.61783 60.6047 8.38338 61.0155 9.12891C61.4175 9.85842 62.0654 10.254 62.887 10.3333C64.1602 10.4558 65.4382 10.5255 66.7099 10.6632C68.9889 10.9106 70.8595 11.8083 71.2695 14.8865C71.4313 16.0997 71.5034 17.3273 71.5778 18.5501C71.6523 19.7841 72.1512 20.7178 73.3051 21.2519C73.6551 21.4145 73.9954 21.5979 74.3357 21.7804C75.2975 22.2945 76.2888 22.7622 77.2081 23.3436C78.2868 24.0266 78.9923 25.0116 79.1604 26.3201C79.2645 27.1289 79.142 27.9192 78.9098 28.688C78.5286 29.9476 78.1098 31.196 77.719 32.4525C77.454 33.3037 77.6077 34.0853 78.1659 34.7827C78.4493 35.1367 78.7296 35.493 79.0283 35.8342C80.2463 37.2235 81.5956 38.5264 82.0016 40.4395C82.0016 40.8134 82.0016 41.1866 82.0016 41.5605C81.6501 43.1941 80.6066 44.4025 79.5336 45.5973C79.0619 46.1226 78.6079 46.6647 78.1683 47.2181C77.6798 47.8323 77.4596 48.5241 77.6694 49.3121C77.7687 49.6845 77.8528 50.0608 77.9657 50.4292C78.3284 51.6112 78.7648 52.7739 79.0547 53.9727C79.5104 55.8577 78.9258 57.4168 77.3467 58.5699C77.0031 58.8206 76.6428 59.0544 76.2664 59.2514C75.2991 59.7567 74.3269 60.2532 73.342 60.7216C72.1688 61.2798 71.6467 62.2159 71.5754 63.4851C71.505 64.7352 71.4161 65.9868 71.2591 67.228C70.9788 69.4373 69.7529 70.7931 67.5811 71.1758C66.2486 71.4113 64.8833 71.4889 63.5284 71.5674C62.2079 71.6443 61.2494 72.188 60.6856 73.4092C60.3181 74.2068 59.9177 74.9892 59.5173 75.7715C59.3115 76.1743 59.0937 76.5731 58.847 76.9519C57.5554 78.9322 55.9113 79.5937 53.6235 78.9827C52.3791 78.6503 51.1587 78.2251 49.9383 77.8079C48.782 77.4131 47.7666 77.6013 46.8657 78.4269C46.6295 78.6431 46.3764 78.8393 46.137 79.0515C44.7621 80.2663 43.4608 81.5964 41.563 82C41.1626 82 40.7622 82 40.3618 82C38.713 81.5812 37.4782 80.5114 36.265 79.4031C35.891 79.0611 35.493 78.7456 35.1159 78.4069C34.2326 77.6141 33.2468 77.4123 32.1145 77.7983C30.8813 78.2187 29.6433 78.6319 28.3893 78.9803C26.9207 79.3879 25.4737 79.3246 24.2901 78.2427C23.7199 77.7214 23.2371 77.0696 22.8423 76.4017C22.2609 75.4184 21.7764 74.3758 21.2832 73.342C20.7234 72.168 19.7873 71.6459 18.5189 71.5738C17.2688 71.5026 16.0164 71.4153 14.7752 71.2567C12.4586 70.9612 11.046 69.5503 10.7465 67.2272C10.5847 65.9732 10.5046 64.7063 10.4246 63.4435C10.3469 62.2287 9.86643 61.2982 8.73012 60.7601C8.14074 60.4814 7.54896 60.2019 6.98041 59.8832C6.10035 59.3883 5.20027 58.9143 4.38107 58.3305C3.51703 57.7139 3.01014 56.8226 2.85398 55.7504C2.71785 54.8151 2.89963 53.9174 3.17029 53.0349C3.52904 51.8658 3.92143 50.7063 4.28658 49.5387C4.55324 48.6867 4.38908 47.9051 3.83414 47.2085C3.55227 46.8537 3.27119 46.4974 2.9709 46.1578C1.76092 44.7949 0.459648 43.4944 0 41.6406C0 41.2138 0 40.7862 0 40.3594C0.414004 38.7074 1.48705 37.4734 2.59773 36.2634C2.83236 36.0079 3.04217 35.7285 3.28961 35.4866C4.44514 34.3543 4.62371 33.0659 4.05516 31.5716C3.61152 30.4057 3.22715 29.2069 2.93887 27.9945C2.50645 26.1783 3.04777 24.6488 4.55645 23.5061C4.88477 23.2571 5.2283 23.0201 5.59186 22.8287C6.61686 22.2897 7.64826 21.7596 8.69248 21.2599C9.85682 20.7034 10.3509 19.7633 10.4246 18.5157C10.499 17.2656 10.5807 16.0124 10.7433 14.772C11.0476 12.4409 12.4393 11.0476 14.772 10.7433C16.0396 10.5783 17.3193 10.5071 18.5957 10.4174C19.7585 10.3357 20.6714 9.88484 21.1999 8.79578C21.3913 8.4002 21.5931 8.00941 21.8005 7.62184C22.3018 6.68252 22.759 5.71598 23.3252 4.8175C24.0058 3.73805 24.982 3.02135 26.2888 2.84277C27.1113 2.72986 27.9144 2.85559 28.6968 3.09262C29.9564 3.47459 31.2048 3.8918 32.4621 4.28338C33.3149 4.54924 34.0949 4.38588 34.7915 3.83014C35.1455 3.54746 35.5026 3.26719 35.8422 2.96689C37.2059 1.76172 38.5056 0.459648 40.3594 0ZM5.31479 55.1106C5.38205 55.5974 5.54621 56.0122 5.92658 56.2773C6.47031 56.6569 7.03647 57.0108 7.61943 57.3271C8.46186 57.7836 9.34031 58.1736 10.1811 58.6332C11.7619 59.4972 12.7068 60.8185 12.8958 62.6283C13.0231 63.8471 13.1128 65.0707 13.2049 66.2927C13.337 68.0528 13.952 68.6694 15.7169 68.7943C16.794 68.8704 17.8718 68.9425 18.9481 69.0346C20.8507 69.1971 22.361 70.0091 23.3091 71.7244C23.5278 72.1208 23.7424 72.5195 23.953 72.9199C24.4222 73.816 24.8434 74.7409 25.3663 75.6042C25.9653 76.5931 26.5099 76.8053 27.631 76.5018C28.6952 76.2144 29.7234 75.7988 30.7852 75.4993C31.5123 75.2943 32.2619 75.1405 33.0114 75.0524C34.4496 74.8843 35.6348 75.5121 36.703 76.3889C37.6199 77.1425 38.4879 77.9561 39.4169 78.6944C40.6573 79.6793 41.3355 79.6761 42.588 78.6944C43.3327 78.1106 44.0221 77.458 44.7453 76.8454C45.0912 76.5523 45.4499 76.2744 45.8127 76.0029C47.367 74.837 49.0679 74.8282 50.8344 75.3856C52.0268 75.7611 53.2047 76.1879 54.4091 76.5154C55.4821 76.8077 56.005 76.5691 56.6184 75.6402C56.8891 75.2302 57.1165 74.7898 57.3439 74.3541C57.8124 73.4573 58.2392 72.538 58.7357 71.6571C59.5781 70.1637 60.8714 69.2988 62.5795 69.1122C63.8239 68.9761 65.0787 68.9248 66.3231 68.7855C68.1521 68.5813 68.5373 68.2097 68.7431 66.6082C68.8936 65.4326 68.9345 64.2435 69.033 63.0615C69.1947 61.122 70.0363 59.5973 71.7868 58.6572C72.6901 58.172 73.623 57.7427 74.5255 57.2575C75.0508 56.9748 75.5617 56.6553 76.0462 56.3069C76.4738 55.9994 76.6644 55.539 76.6067 55.0089C76.5699 54.6661 76.5179 54.3186 76.4162 53.9903C76.0662 52.8596 75.6858 51.7385 75.3263 50.6102C74.6913 48.6162 75.058 46.8241 76.429 45.2401C76.7437 44.8774 77.0632 44.5186 77.3699 44.1495C77.9232 43.4832 78.4886 42.8258 79.0107 42.1355C79.576 41.3868 79.5512 40.6068 79.0043 39.8453C78.8097 39.5746 78.6231 39.2975 78.4093 39.0429C77.6542 38.1444 76.8654 37.2732 76.1335 36.3563C75.3239 35.3409 74.8795 34.1733 75.054 32.8601C75.1549 32.1001 75.3599 31.349 75.5721 30.6099C75.862 29.6009 76.2448 28.6175 76.513 27.6029C76.8013 26.5107 76.5667 25.9846 75.6186 25.3647C75.2182 25.1029 74.7906 24.8811 74.3653 24.6601C73.4677 24.1924 72.5476 23.7672 71.6667 23.2707C70.1749 22.4299 69.3028 21.1398 69.1138 19.4318C68.9761 18.1873 68.8912 16.9365 68.7951 15.6873C68.6606 13.9504 68.0464 13.3338 66.3047 13.2073C65.2276 13.1296 64.1498 13.0567 63.0735 12.9679C61.1533 12.8085 59.635 11.9885 58.6804 10.2596C58.4682 9.87523 58.2552 9.49006 58.0558 9.09928C57.6562 8.31691 57.2959 7.51213 56.8627 6.74818C56.0811 5.36844 55.5334 5.14182 54.0015 5.58305C52.8644 5.91057 51.7521 6.31977 50.6206 6.66811C49.7341 6.94037 48.8268 7.06529 47.8979 6.91234C46.8761 6.74418 46.0313 6.21566 45.2537 5.57504C44.3377 4.8207 43.4712 4.00391 42.5391 3.27119C41.3419 2.32947 40.6573 2.33428 39.4641 3.26959C38.6777 3.88619 37.9562 4.58447 37.1803 5.21549C36.6646 5.6351 36.1304 6.0435 35.5611 6.38223C34.1413 7.22545 32.6455 7.06609 31.1512 6.60725C29.9692 6.24449 28.8049 5.81687 27.6133 5.49096C26.5195 5.19146 25.995 5.4277 25.3728 6.37502C25.1101 6.77461 24.8867 7.20143 24.6657 7.62664C24.198 8.52432 23.772 9.44441 23.2771 10.3253C22.4299 11.8331 21.1278 12.7052 19.4037 12.8918C18.1721 13.0247 16.9349 13.1112 15.6993 13.2065C13.9504 13.3418 13.3418 13.9416 13.2097 15.6865C13.128 16.7636 13.0575 17.8414 12.9703 18.9177C12.8133 20.8371 11.9973 22.3586 10.2708 23.3171C9.93369 23.5045 9.59656 23.6943 9.25303 23.8689C8.43463 24.2853 7.59221 24.6609 6.79463 25.1133C5.35643 25.9285 5.14021 26.449 5.59266 28.0273C5.91857 29.1645 6.32457 30.2791 6.68172 31.4074C7.30873 33.387 6.94678 35.1679 5.58625 36.7422C5.27234 37.1058 4.95443 37.4662 4.64934 37.8369C4.07357 38.536 3.4802 39.2231 2.94127 39.9502C2.44479 40.6196 2.4592 41.3403 2.92445 42.0354C3.13906 42.3565 3.36008 42.676 3.60752 42.9715C4.36025 43.8724 5.15223 44.7404 5.88174 45.6589C6.89793 46.9378 7.23826 48.3992 6.81465 49.9856C6.52316 51.0762 6.13479 52.1413 5.81047 53.2239C5.62228 53.8461 5.47814 54.4812 5.31479 55.1106Z" fill="#2B2B6E"/>
<path d="M47.0843 35.8013C48.4144 36.5285 49.7093 37.2355 51.0378 37.961C50.7271 38.6233 50.454 39.2719 50.1209 39.8877C49.9679 40.1696 49.6628 40.1504 49.389 39.9998C48.6659 39.6027 47.9436 39.2055 47.1892 38.7915C46.6927 39.3664 46.2059 39.9286 45.7206 40.4931C44.5298 41.8801 43.3391 43.267 42.1499 44.6556C41.4532 45.47 40.5299 45.4676 39.8252 44.6444C38.2373 42.7898 36.6445 40.9384 35.0678 39.0741C34.8724 38.8427 34.7403 38.8251 34.4792 38.9692C32.0665 40.3049 29.6441 41.6214 27.2274 42.9507C26.2904 43.4656 25.7868 44.2704 25.7075 45.3354C25.6698 45.8407 25.629 46.3468 25.6274 46.8529C25.6202 49.9495 25.6242 53.0454 25.6242 56.142C25.6242 57.1678 26.1175 57.6587 27.1473 57.6587C36.3827 57.6587 45.6181 57.6587 54.8535 57.6587C55.8825 57.6587 56.375 57.167 56.3758 56.1404C56.3766 55.6879 56.3758 55.2347 56.3758 54.7751C56.8082 54.8768 57.2134 55.0113 57.6282 55.0593C58.0462 55.1074 58.4738 55.0697 58.9279 55.0697C58.9279 56.0667 59.0664 57.1414 58.5219 58.1303C57.794 59.454 56.6809 60.2076 55.1626 60.21C45.7134 60.2244 36.2642 60.2212 26.8158 60.214C24.7714 60.2124 23.0729 58.5051 23.0673 56.4575C23.0577 52.9877 23.0481 49.5171 23.0729 46.0473C23.0849 44.3929 23.4485 42.8338 24.7177 41.6438C25.0941 41.2915 25.5121 40.9632 25.9613 40.7133C28.7208 39.179 31.4811 37.6423 34.2774 36.1761C34.8324 35.8854 34.9989 35.5795 34.9173 35.0318C34.9132 35.0054 34.9149 34.9781 34.9173 34.9517C34.9773 34.0252 34.8716 33.1676 34.3679 32.3236C33.8034 31.377 33.632 30.2784 33.6344 29.1669C33.6376 27.659 33.6352 26.1503 33.6352 24.6425C33.6352 20.9116 36.2113 17.9255 39.9133 17.365C43.5681 16.8108 47.0219 18.9689 48.0597 22.4948C48.2414 23.113 48.3367 23.7752 48.3528 24.4198C48.3936 26.007 48.368 27.5957 48.3656 29.1837C48.364 30.577 47.9796 31.8607 47.2765 33.0603C47.1628 33.2541 47.1003 33.5031 47.0931 33.7289C47.0699 34.4336 47.0843 35.1415 47.0843 35.8013ZM45.7382 26.9119C45.7606 26.9119 45.7831 26.9119 45.8063 26.9119C45.8063 26.1519 45.8159 25.3912 45.8015 24.6312C45.7951 24.2997 45.7718 23.9626 45.7038 23.6391C45.1961 21.2295 42.9723 19.6095 40.5564 19.8754C37.9858 20.1581 36.2017 22.1056 36.1953 24.6401C36.1913 26.0935 36.1937 27.5477 36.1945 29.0011C36.1961 31.6517 37.8169 33.5375 40.4258 33.9251C42.9363 34.2983 45.4291 32.4645 45.719 29.9452C45.8343 28.9467 45.7382 27.9241 45.7382 26.9119ZM37.4757 35.7173C37.4757 36.3731 37.4573 36.9865 37.4862 37.5975C37.4958 37.8017 37.5831 38.0363 37.7112 38.1957C38.2117 38.8187 38.7426 39.4169 39.2631 40.0239C39.8316 40.6869 40.4018 41.3492 40.9968 42.0418C42.1659 40.6789 43.3014 39.3568 44.4313 38.0307C44.4858 37.9667 44.5194 37.8642 44.5202 37.7793C44.5274 37.1034 44.5242 36.4276 44.5242 35.7205C42.1699 36.8063 39.8469 36.8151 37.4757 35.7173Z" fill="#2B2B6E"/>
<path d="M54.6149 38.4375C55.0193 38.4471 55.4133 38.7338 55.6559 39.2519C56.0899 40.18 56.532 41.1049 56.9588 42.037C57.0549 42.2476 57.1654 42.3573 57.4168 42.391C58.393 42.5223 59.3635 42.6921 60.3373 42.8402C60.8722 42.9219 61.251 43.1957 61.4287 43.7106C61.6073 44.2288 61.4688 44.6804 61.094 45.0664C60.3877 45.7935 59.687 46.5262 58.9679 47.2405C58.7774 47.4295 58.7181 47.6033 58.7653 47.8691C58.9479 48.9045 59.1001 49.9455 59.273 50.9825C59.3627 51.5215 59.2066 51.9651 58.7693 52.283C58.3161 52.6129 57.8244 52.6113 57.3375 52.3455C56.5079 51.8914 55.6751 51.443 54.8599 50.9649C54.5756 50.7984 54.3618 50.7791 54.068 50.9537C53.2784 51.4222 52.4616 51.8466 51.6616 52.2974C51.1563 52.5825 50.6526 52.6466 50.1593 52.2982C49.6709 51.9539 49.5419 51.4718 49.6436 50.8905C49.8246 49.855 49.988 48.8156 50.1329 47.7746C50.1537 47.6241 50.0801 47.4119 49.9744 47.299C49.2905 46.5694 48.5914 45.8535 47.8851 45.1448C47.4863 44.7445 47.2853 44.2928 47.4679 43.7363C47.6537 43.1693 48.0733 42.9051 48.6595 42.8266C49.622 42.6969 50.5813 42.5383 51.5383 42.3685C51.6744 42.3445 51.8418 42.2172 51.9026 42.0923C52.3663 41.1489 52.8027 40.192 53.256 39.2431C53.5114 38.709 53.9118 38.4439 54.6149 38.4375ZM54.4475 42.7817C54.2698 43.1517 54.1 43.4504 53.9799 43.7675C53.7188 44.4578 53.2271 44.7949 52.4992 44.8478C52.1413 44.8734 51.7881 44.9623 51.4326 45.0223C51.4094 45.0648 51.3861 45.1072 51.3629 45.1489C51.6992 45.4515 52.0372 45.7526 52.3727 46.0561C52.8107 46.4517 52.9268 46.9394 52.8091 47.508C52.7242 47.9196 52.6738 48.3376 52.5953 48.8276C52.9757 48.6218 53.3008 48.4713 53.5979 48.2783C54.1785 47.9011 54.7382 47.9132 55.3164 48.2799C55.6151 48.4689 55.9362 48.6218 56.3093 48.8244C56.2341 48.3432 56.1892 47.934 56.1027 47.5344C55.9762 46.9506 56.0987 46.4621 56.54 46.0449C56.8731 45.7294 57.1798 45.3851 57.5193 45.0311C55.2747 44.5907 55.559 45.1048 54.4475 42.7817Z" fill="#2B2B6E"/>
<path d="M68.5661 41.2843C68.5661 41.0584 68.5325 40.827 68.5725 40.6084C68.6838 39.9958 69.3084 39.5394 69.917 39.5962C70.5801 39.6587 71.0861 40.1784 71.1062 40.827C71.115 41.1193 71.1142 41.4124 71.1038 41.7047C71.0789 42.4094 70.504 42.9611 69.8097 42.9555C69.1074 42.9499 68.5613 42.4022 68.5437 41.6838C68.5405 41.5509 68.5429 41.418 68.5429 41.2851C68.5509 41.2843 68.5581 41.2843 68.5661 41.2843Z" fill="#2B2B6E"/>
<path d="M68.6245 52.8548C68.5116 53.3304 68.3378 53.907 67.8734 54.3226C67.4385 54.7118 66.7947 54.7118 66.3174 54.3763C65.8498 54.0471 65.6536 53.4385 65.8594 52.8876C65.9619 52.6145 66.0884 52.3479 66.2294 52.0924C66.5152 51.5751 67.1038 51.3301 67.6563 51.4782C68.2553 51.6384 68.6285 52.1229 68.6245 52.8548Z" fill="#2B2B6E"/>
<path d="M33.3974 68.4668C33.3813 69.2868 32.6342 69.873 31.8374 69.6784C31.5676 69.6119 31.3009 69.5238 31.0415 69.4221C30.4241 69.1819 30.0797 68.5525 30.2223 67.9511C30.38 67.2856 30.9662 66.846 31.6493 66.9605C32.048 67.0278 32.4468 67.1783 32.8072 67.3649C33.2292 67.5843 33.407 67.9895 33.3974 68.4668Z" fill="#2B2B6E"/>
<path d="M14.089 46.8697C14.0962 47.7009 13.6149 48.2431 12.9302 48.3327C12.3369 48.4104 11.7139 47.9708 11.5553 47.3518C11.496 47.1204 11.4584 46.8833 11.4136 46.6479C11.2846 45.9809 11.665 45.3554 12.3185 45.1609C12.9439 44.9743 13.6253 45.2826 13.8519 45.9008C13.9825 46.2587 14.0361 46.6455 14.089 46.8697Z" fill="#2B2B6E"/>
<path d="M21.2663 60.7064C22.1584 60.7192 23.1594 61.8684 22.9952 62.6908C22.8111 63.6148 21.7788 64.0449 21.0125 63.4979C20.733 63.2985 20.4728 63.0575 20.2518 62.7957C19.9154 62.3969 19.8602 61.9324 20.0844 61.4504C20.299 60.9875 20.7603 60.7 21.2663 60.7064Z" fill="#2B2B6E"/>
<path d="M38.0579 13.6229C37.2411 13.6333 36.6477 13.1352 36.6085 12.3945C36.5701 11.6842 37.1146 11.1181 37.8994 11.05C38.1244 11.03 38.3494 10.9844 38.5744 10.9852C39.2551 10.9876 39.8196 11.5345 39.8629 12.2127C39.9029 12.8414 39.4176 13.4331 38.7714 13.5348C38.5344 13.5717 38.2957 13.5941 38.0579 13.6229Z" fill="#2B2B6E"/>
<path d="M57.2543 16.2871C57.1966 17.2496 56.2549 17.8799 55.4005 17.4971C55.0986 17.3617 54.8103 17.1848 54.5428 16.9902C54.0768 16.6515 53.9214 16.01 54.1456 15.4839C54.3811 14.9314 54.972 14.5518 55.5318 14.74C56.0195 14.9033 56.4807 15.2028 56.8883 15.5247C57.0877 15.6809 57.1373 16.0268 57.2543 16.2871Z" fill="#2B2B6E"/>
<path d="M70.4752 47.2061C70.4224 47.4159 70.3639 47.7874 70.2342 48.1318C70.0012 48.7516 69.3181 49.0655 68.7007 48.8781C68.0496 48.6811 67.6677 48.0525 67.8006 47.391C67.8534 47.1308 67.9023 46.8689 67.9816 46.6159C68.1858 45.9632 68.8072 45.6045 69.483 45.7326C70.07 45.8447 70.4992 46.4109 70.4752 47.2061Z" fill="#2B2B6E"/>
<path d="M37.7737 70.9436C37.6151 70.9236 37.334 70.9068 37.061 70.8515C36.47 70.7322 36.0127 70.1204 36.056 69.5326C36.104 68.8776 36.6261 68.3331 37.2708 68.3218C37.6263 68.3154 37.9923 68.3547 38.3382 68.438C38.9804 68.5925 39.4017 69.2484 39.2968 69.8594C39.179 70.5448 38.6297 70.9717 37.7737 70.9436Z" fill="#2B2B6E"/>
<path d="M61.5777 62.4305C61.5697 63.3058 60.4085 64.2803 59.5565 64.1282C58.7894 63.9904 58.2833 63.1368 58.5996 62.4177C58.8654 61.8139 59.3523 61.3751 59.9881 61.1861C60.8081 60.9411 61.5857 61.5745 61.5777 62.4305Z" fill="#2B2B6E"/>
<path d="M30.7364 13.57C30.7388 13.5388 30.7412 13.486 30.7484 13.4331C30.8709 12.5322 31.5908 12.3584 32.2947 12.1695C32.8529 12.0197 33.3934 12.2095 33.7049 12.6539C34.1853 13.3402 33.9227 14.2675 33.1371 14.5782C32.7936 14.7136 32.4284 14.8145 32.0641 14.8745C31.3962 14.9834 30.7332 14.326 30.7364 13.57Z" fill="#2B2B6E"/>
<path d="M18.9809 57.9533C18.9801 58.5115 18.6766 58.9719 18.1737 59.1737C17.6797 59.3723 17.1119 59.2522 16.7547 58.8374C16.5393 58.5867 16.3407 58.3137 16.1798 58.0254C15.8659 57.4641 16.0429 56.7586 16.5578 56.3918C17.0887 56.013 17.7974 56.0555 18.2258 56.5464C18.5797 56.9508 18.9673 57.3584 18.9809 57.9533Z" fill="#2B2B6E"/>
<path d="M51.7345 13.7527C51.7377 14.6015 51.0162 15.1732 50.1777 14.9763C49.8943 14.9098 49.6084 14.8385 49.3385 14.7312C48.6955 14.4742 48.3832 13.7631 48.6114 13.1216C48.8421 12.473 49.5131 12.1255 50.1842 12.3193C50.4516 12.3961 50.7199 12.4786 50.9753 12.5883C51.4566 12.7957 51.7321 13.2354 51.7345 13.7527Z" fill="#2B2B6E"/>
<path d="M44.0438 11.0316C44.2944 11.0644 44.5459 11.0901 44.7941 11.1317C45.4451 11.2398 45.908 11.81 45.8776 12.457C45.8471 13.1096 45.2954 13.6718 44.6323 13.6766C44.2904 13.679 43.9397 13.6365 43.6065 13.5549C42.9539 13.3955 42.5543 12.7717 42.6568 12.1399C42.7713 11.4384 43.2998 11.0212 44.0438 11.0316Z" fill="#2B2B6E"/>
<path d="M21.5018 20.9003C21.1158 20.8851 20.7162 20.6417 20.4912 20.1452C20.2573 19.6287 20.355 19.1514 20.7282 18.743C20.9332 18.5188 21.1702 18.317 21.4145 18.1353C21.8549 17.8069 22.4651 17.8173 22.9079 18.1345C23.3556 18.4556 23.5438 19.0113 23.386 19.547C23.201 20.1764 22.2761 20.9003 21.5018 20.9003Z" fill="#2B2B6E"/>
<path d="M15.9524 52.4808C15.9612 53.3496 15.5792 53.8605 15.0018 54.0175C14.4429 54.1696 13.8055 53.9134 13.5516 53.3713C13.369 52.9813 13.2001 52.5601 13.1504 52.1381C13.0864 51.5959 13.4091 51.2052 13.8984 50.9793C14.3748 50.7599 14.981 50.8248 15.2869 51.2404C15.6088 51.6768 15.8082 52.2029 15.9524 52.4808Z" fill="#2B2B6E"/>
<path d="M48.0052 68.5877C48.0156 68.5228 48.0252 68.4163 48.0493 68.3138C48.2303 67.5363 48.9373 67.2576 49.9455 67.1367C50.5469 67.0646 51.0722 67.5763 51.1979 68.2057C51.3133 68.7855 50.9841 69.3877 50.3956 69.6071C50.0616 69.7312 49.7117 69.8297 49.3602 69.889C48.6931 70.0019 48.0156 69.3565 48.0052 68.5877Z" fill="#2B2B6E"/>
<path d="M12.9086 33.1323C13.7166 33.1227 14.3116 33.8018 14.1883 34.6065C14.1442 34.8948 14.0882 35.1847 14.0017 35.4626C13.8063 36.0904 13.1481 36.4675 12.5243 36.3322C11.87 36.1897 11.428 35.5811 11.5153 34.9116C11.5545 34.6097 11.6194 34.307 11.7075 34.0156C11.8692 33.4822 12.3537 33.1387 12.9086 33.1323Z" fill="#2B2B6E"/>
<path d="M67.9039 35.0766C67.9015 34.3447 68.2394 33.8603 68.7575 33.6801C69.27 33.5007 69.8826 33.6537 70.1861 34.1093C70.5425 34.6442 70.6826 35.2584 70.5409 35.8942C70.4183 36.4452 69.9347 36.8087 69.3877 36.832C68.8248 36.856 68.3147 36.5541 68.1329 36.0312C68.0072 35.67 67.9527 35.2857 67.9039 35.0766Z" fill="#2B2B6E"/>
<path d="M13.3539 29.1829C13.466 28.7216 13.6413 28.1755 14.0626 27.7615C14.4678 27.3627 15.1332 27.3291 15.6153 27.6414C16.1078 27.9601 16.3224 28.5847 16.1142 29.15C16.0141 29.4239 15.8939 29.6938 15.7546 29.9492C15.4591 30.4913 14.8353 30.7372 14.2491 30.5634C13.7086 30.4033 13.3403 29.8795 13.3539 29.1829Z" fill="#2B2B6E"/>
<path d="M19.3101 23.6006C19.3021 24.427 18.3924 25.3872 17.6188 25.3832C16.7556 25.3792 16.1021 24.5247 16.4313 23.7312C16.613 23.2931 16.9341 22.8815 17.2817 22.5516C17.6541 22.1977 18.1545 22.1824 18.623 22.4299C19.0883 22.6757 19.3189 23.0705 19.3101 23.6006Z" fill="#2B2B6E"/>
<path d="M67.5787 31.0671C67.5387 31.0671 67.4987 31.0687 67.4586 31.0671C66.5962 31.0206 66.1846 30.1526 66.0188 29.2413C65.9099 28.6431 66.412 28.0369 67.0518 27.9256C67.2977 27.8832 67.5884 27.9248 67.8222 28.0185C68.5085 28.2932 69.0258 29.5392 68.7743 30.2303C68.5917 30.7331 68.1185 31.0647 67.5787 31.0671Z" fill="#2B2B6E"/>
<path d="M65.6072 57.9645C65.5976 58.7974 64.6487 59.7775 63.8759 59.7511C63.0119 59.7223 62.3833 58.8558 62.7284 58.0662C62.919 57.6306 63.2473 57.2238 63.6012 56.9003C63.9672 56.5656 64.4605 56.56 64.9129 56.7954C65.3798 57.0373 65.6072 57.4368 65.6072 57.9645Z" fill="#2B2B6E"/>
<path d="M60.2172 18.2322C60.8746 18.2314 61.8564 19.0586 61.9717 19.7097C62.1223 20.5633 61.4929 21.28 60.6296 21.2392C59.8825 21.2039 58.9456 20.2542 58.9392 19.5255C58.9328 18.796 59.4893 18.2322 60.2172 18.2322Z" fill="#2B2B6E"/>
<path d="M43.46 71.0197C42.7313 71.0389 42.1451 70.5184 42.0939 69.8233C42.0434 69.1346 42.5151 68.5589 43.2198 68.4652C43.5089 68.4268 43.8019 68.3907 44.0934 68.3931C44.7244 68.3987 45.2682 68.92 45.3194 69.5374C45.3747 70.2101 44.9182 70.8307 44.2752 70.9348C43.9997 70.9804 43.7195 70.994 43.46 71.0197Z" fill="#2B2B6E"/>
<path d="M64.5213 25.79C64.6263 25.79 64.6134 25.79 64.5998 25.79C63.6573 25.7579 62.7412 24.4294 63.0487 23.5414C63.2649 22.9176 63.9512 22.558 64.5894 22.7342C65.2925 22.928 66.0036 23.965 65.9195 24.6729C65.8402 25.3399 65.3125 25.8012 64.5213 25.79Z" fill="#2B2B6E"/>
<path d="M26.0606 64.3692C27.0608 64.3772 28.0065 65.3325 27.8744 66.2014C27.7567 66.9757 27.0039 67.4378 26.2736 67.1655C25.9629 67.0502 25.6586 66.9069 25.3728 66.7395C24.8763 66.448 24.6448 65.8522 24.7922 65.3277C24.9588 64.7311 25.4448 64.3644 26.0606 64.3692Z" fill="#2B2B6E"/>
<path d="M28.3933 15.7577C28.3773 15.853 28.3661 15.9739 28.3357 16.0885C28.1475 16.7996 26.7894 17.5283 26.0983 17.2808C25.621 17.1103 25.3295 16.7563 25.2487 16.2606C25.1702 15.777 25.3367 15.3573 25.7299 15.0667C26.0054 14.8633 26.3089 14.6839 26.6244 14.551C27.4572 14.1986 28.4005 14.8408 28.3933 15.7577Z" fill="#2B2B6E"/>
<path d="M53.573 66.2791C53.573 66.2526 53.5722 66.2254 53.5738 66.199C53.6171 65.4038 54.2465 65.1372 54.8222 64.8337C55.2859 64.5894 55.752 64.6231 56.182 64.9233C56.9099 65.431 56.8979 66.5505 56.1347 67.0246C55.7664 67.2536 55.3492 67.4266 54.9319 67.5475C54.2857 67.7333 53.569 67.039 53.573 66.2791Z" fill="#2B2B6E"/>
<path d="M13.4556 40.6885C13.4467 41.6719 13.0456 42.2236 12.2808 42.3029C11.5385 42.3798 10.9147 41.8368 10.8939 41.0905C10.8874 40.8639 10.889 40.6373 10.8947 40.4107C10.9115 39.6795 11.48 39.0998 12.1807 39.0934C12.879 39.087 13.4435 39.6691 13.4556 40.4082C13.4564 40.5011 13.4556 40.5948 13.4556 40.6885Z" fill="#2B2B6E"/>
</svg>
