<svg xmlns="http://www.w3.org/2000/svg" viewBox="0 0 268.49 58.65"><defs><style>.cls-1{fill:#083d70;}</style></defs><g id="Camada_2" data-name="Camada 2"><g id="Camada_1-2" data-name="Camada 1"><path class="cls-1" d="M67.43,23.35,71.24,1.94S72.18-.18,68.89.06,46.06,0,46.06,0s-2.88-.47-3.29,1.9L33.35,56.07s-.7,2.35,1.18,2.35H59.24s1.41,0,1.88-1.88,4.82-24.37,4.82-24.37.6-1.65-1.64-1.65l-8.15-.09s-1.49-.11-1.95,2-1.9,12.5-1.9,12.5-.16,2.41-1.88,2.41A8.26,8.26,0,0,1,47.78,47s-1.26-.23-.69-2.87S52.3,13.45,52.3,13.45A2.5,2.5,0,0,1,54.77,12c2.43,0,3.33.23,3.1,1.95s-1.95,9.29-1.95,9.29-.69,2.87,1.15,3,7.34-.12,7.34-.12h1.15s1.34.27,1.87-2.72"/><path class="cls-1" d="M24.37,14.62s-1.65,9.2-2.35,13-2,3.93-3.57,3.62c-2.51-.49-1.85-3.86-1.85-3.86l2.47-13.43A2.71,2.71,0,0,1,22,11.35c3,0,2.35,3.27,2.35,3.27M35.67.06c-3.3.23-22.83,0-22.83,0S10-.43,9.54,1.94L.13,56.07s-.71,2.35,1.18,2.35H26s1.41,0,1.88-1.88,1.88-8,1.88-8-.23-1.65-1.65-1.65l-12.23.23s-2.36,0-2.12-2.82,4.71-1.88,4.71-1.88H29.78s1.41-.47,1.65-3.06S38,1.94,38,1.94,39-.18,35.67.06"/><path class="cls-1" d="M90.79,14s-5.27,30.62-5.5,31.54-1.49,2-3.44,1.61-1.49-2.64-1.49-2.64L85.29,14c.1-.63.4-2,3.21-2.07S90.79,14,90.79,14m11.7-14C99.2.29,79.66,0,79.66,0s-2.88-.47-3.29,1.9L67,56.07s-.71,2.35,1.17,2.35H92.84s1.41,0,1.89-1.88,4.81-24.37,4.81-24.37l1.5-8.82c1.8-10.17,3.8-21.41,3.8-21.41s1-2.12-2.35-1.88"/><path class="cls-1" d="M127.73,13.57l-5.85,31.89s-.46,3.44-1.95,3.55-6.65,0-6.65,0-2.64-.11-1.84-3.67S117.61,12,117.61,12s.14-2,3.81-1.83a41.11,41.11,0,0,0,4.7,0s2.18-.11,1.61,3.45m8.49-9.41c-1.72-3.21-6.65-3-6.65-3-3.24.23-17.19,0-17.19,0S109.55.66,109.15,3L99.91,56.11s-.7,2.31,1.15,2.31h15.43a41.48,41.48,0,0,0,5.5,0c1.73-.23,4.86-2.53,4.86-2.53,3.35-2.71,4.21-8.64,4.21-8.64s5.85-33.45,6.31-35.9.57-4-1.15-7.19"/><path class="cls-1" d="M258.56,13.57l-5.85,31.89s-.46,3.44-2,3.55-6.65,0-6.65,0-2.64-.11-1.84-3.67S248.44,12,248.44,12s.14-2,3.81-1.83a41.11,41.11,0,0,0,4.7,0s2.18-.11,1.61,3.45m8.49-9.41c-1.72-3.21-6.66-3-6.66-3s-5.22-.3-12.21,0-9.41,10.26-9.41,10.26-5.28,29-6.65,37.67,7.11,9.36,7.11,9.36h8.09a41.48,41.48,0,0,0,5.5,0c1.72-.23,4.86-2.53,4.86-2.53,3.35-2.71,4.2-8.64,4.2-8.64s5.86-33.45,6.31-35.9.58-4-1.14-7.19"/><path class="cls-1" d="M161.87,13.57l-1.33,8s-.46,3.44-1.95,3.55-6.66,0-6.66,0-2.63-.11-1.83-3.67S151.75,12,151.75,12s.14-2,3.81-1.83a41.11,41.11,0,0,0,4.7,0s2.18-.11,1.61,3.45m9.33-9.41c-1.73-3.21-6.66-3-6.66-3-3.23.23-17.18,0-17.18,0S144.53.66,144.12,3l-9.24,53.13s-.69,2.31,1.16,2.31c0,0,3.39.11,5.46,0s2.86-2.52,2.86-2.52,3.18-18.62,3.38-19.63c.52-2.74,4.88-2.4,7.64-2.05s1.83,4.13,1.83,4.13-2.18,13-2.75,16.28.11,3.79.11,3.79,5.05.23,7,.1a2.48,2.48,0,0,0,2.29-1.94s1-6.65,1.38-8.6,2.87-12.39,1.95-14.45a44,44,0,0,1-1.61-4.32c4.13-2.48,5-7.92,5-7.92.9-5.11,1.61-9.15,1.76-9.94.46-2.44.58-4-1.14-7.19"/><path class="cls-1" d="M176.71,12l-6,34.19s-3.1,12,6,12.27,12.28,0,12.28,0a2.61,2.61,0,0,0,3-2.29c.34-2.64.69-4.82.69-4.82s.57-2.19-1.95-2.25-8.49,0-8.49,0a2.12,2.12,0,0,1-2.07-2.69c.46-2.63,1.84-9.75,1.84-9.75s0-2.42,3-2.3,9.29,0,9.29,0a2.2,2.2,0,0,0,2.07-2c.34-2.07.69-4.82.69-4.82s.8-1.85-.92-2.25-9.64,0-9.64,0-2.18.07-1.6-3.72,1.48-8.6,1.48-8.6-.23-2.76,3.55-2.76,8,0,8,0,2.41.92,2.87-2.86,1.95-6-1.15-6.18-11.35,0-11.35,0-10,1.13-11.59,10.88"/><path class="cls-1" d="M206,3s.35-1.8,2.87-1.93S214.45,1,214.45,1s1,.33,2.87,1,2.18-1,4.13-1,6.08-.18,7,0,7.22,1.32,5.5,11-8.26,44.28-8.26,44.28-.23,2.35-1.72,2.32l-6.65-.14s-1.84-.12-1.26-2.64,8-42.44,8-42.44.91-2.88-2-3.22a31.78,31.78,0,0,0-6.08,0s-1.84-.11-2.07,2.3l-7.34,42.9s-.46,3-1.83,3.24-7.12,0-7.12,0-1.72-.48-1-3.24S206,3,206,3"/></g></g></svg>