<svg width="23" height="17" viewBox="0 0 23 17" fill="none" xmlns="http://www.w3.org/2000/svg">
<path d="M21.3571 0.126465H1.64286C1.20714 0.126465 0.789277 0.295036 0.481182 0.595094C0.173086 0.895152 0 1.30212 0 1.72646V14.5265C0 14.9508 0.173086 15.3578 0.481182 15.6578C0.789277 15.9579 1.20714 16.1265 1.64286 16.1265H21.3571C21.7929 16.1265 22.2107 15.9579 22.5188 15.6578C22.8269 15.3578 23 14.9508 23 14.5265V1.72646C23 1.30212 22.8269 0.895152 22.5188 0.595094C22.2107 0.295036 21.7929 0.126465 21.3571 0.126465ZM19.55 1.72646L11.5 7.15046L3.45 1.72646H19.55ZM1.64286 14.5265V2.45446L11.0318 8.78246C11.1693 8.87537 11.3326 8.92515 11.5 8.92515C11.6674 8.92515 11.8307 8.87537 11.9682 8.78246L21.3571 2.45446V14.5265H1.64286Z" fill="#00C2FF"/>
</svg>
