<svg width="72" height="71" viewBox="0 0 72 71" fill="none" xmlns="http://www.w3.org/2000/svg">
<path d="M72 30.5968C71.7804 30.9712 71.6191 31.3805 71.3461 31.6909C67.7572 35.7716 64.1517 39.8387 60.551 43.9087C52.7591 52.716 44.9681 61.5233 37.1771 70.3307C36.3959 71.2143 35.506 71.223 34.7394 70.3568C23.3575 57.4912 11.9756 44.6255 0.593668 31.7598C-0.137923 30.9334 -0.180672 30.4562 0.395468 29.5027C3.27034 24.7459 6.15201 19.9931 9.01133 15.2267C9.42133 14.5438 9.93432 14.2344 10.7427 14.2353C27.5168 14.2489 44.2909 14.2489 61.065 14.2334C61.9258 14.2324 62.4718 14.5399 62.9139 15.2781C65.7674 20.0474 68.6549 24.7964 71.523 29.557C71.7008 29.8528 71.8144 30.1875 72 30.5968ZM48.9573 32.0178C40.2404 32.0178 31.6236 32.0178 22.9329 32.0178C27.2642 43.0716 31.5721 54.0672 35.88 65.0628C35.9257 65.0579 35.9704 65.0521 36.016 65.0472C40.322 54.0565 44.628 43.0667 48.9573 32.0178ZM40.1073 62.5214C40.1394 62.5408 40.1724 62.5602 40.2045 62.5806C49.1973 52.4163 58.1892 42.252 67.2432 32.0188C67.0129 31.9994 66.8905 31.981 66.7681 31.98C62.0084 31.979 57.2477 31.9839 52.488 31.9693C52.1188 31.9683 51.9847 32.1206 51.8662 32.4233C47.9994 42.3121 44.1267 52.198 40.256 62.0849C40.2016 62.2285 40.1578 62.3759 40.1073 62.5214ZM4.61304 31.979C13.7021 42.2529 22.692 52.4143 31.6819 62.5757C31.7237 62.3517 31.6712 62.1887 31.608 62.0297C27.7538 52.1883 23.8948 42.349 20.0551 32.5028C19.888 32.075 19.6743 31.9683 19.2429 31.9693C14.5804 31.9848 9.9178 31.979 5.25622 31.979C5.09591 31.979 4.9356 31.979 4.61304 31.979ZM47.6807 29.0827C43.7215 25.0486 39.8537 21.1066 35.9461 17.1239C32.0326 21.1124 28.1619 25.0592 24.2144 29.0827C32.0812 29.0827 39.8168 29.0827 47.6807 29.0827ZM13.1007 17.1365C15.7666 20.8806 18.3763 24.5461 21.0131 28.2495C24.6487 24.5442 28.2435 20.8806 31.918 17.1365C25.5989 17.1365 19.4013 17.1365 13.1007 17.1365ZM39.9674 17.1297C43.6555 20.8884 47.2483 24.549 50.8781 28.2485C53.5227 24.5345 56.1294 20.8729 58.7945 17.1297C52.489 17.1297 46.303 17.1297 39.9674 17.1297ZM4.0029 29.0749C8.73055 29.0749 13.3591 29.0749 18.0829 29.0749C15.5237 25.4831 13.0152 21.9602 10.4658 18.381C8.28751 21.9844 6.16852 25.4909 4.0029 29.0749ZM53.8191 29.0623C58.5399 29.0623 63.1743 29.0623 67.8805 29.0623C65.7159 25.4812 63.5921 21.9689 61.4235 18.382C58.8654 21.9757 56.3616 25.4928 53.8191 29.0623Z" fill="#2B2B6E"/>
<path d="M58.0667 2.1689C57.9239 2.46668 57.8258 2.79841 57.6295 3.05545C56.4656 4.58413 55.2832 6.09922 54.0969 7.6114C53.5363 8.3253 52.6512 8.45625 52.0061 7.94507C51.3765 7.44651 51.291 6.56868 51.8273 5.87128C53.0097 4.33581 54.1999 2.80617 55.3968 1.28235C55.834 0.725584 56.4335 0.55002 57.03 0.762443C57.6324 0.975837 57.9929 1.49186 58.0667 2.1689Z" fill="#2B2B6E"/>
<path d="M20.4923 6.79277C20.4117 7.43101 20.0745 7.93248 19.5246 8.15073C18.9708 8.37091 18.3364 8.23511 17.9312 7.77341C17.6233 7.42131 17.3483 7.04108 17.0607 6.67152C16.1387 5.48622 15.2138 4.30286 14.2966 3.11367C13.7137 2.35807 13.7856 1.48412 14.4598 0.971978C15.1244 0.467594 15.9697 0.60921 16.5438 1.34154C17.7194 2.84111 18.8931 4.34262 20.0454 5.85966C20.2494 6.12931 20.3456 6.47947 20.4923 6.79277Z" fill="#2B2B6E"/>
<path d="M37.3879 4.13017C37.3879 5.00121 37.3937 5.87321 37.3869 6.74424C37.3791 7.63952 36.8049 8.24091 35.9665 8.24576C35.1387 8.25061 34.5315 7.64535 34.5237 6.75588C34.5101 4.99733 34.5082 3.2378 34.5247 1.47925C34.5324 0.596573 35.1494 -0.00577802 35.9801 4.1805e-05C36.8088 0.00586163 37.3801 0.616943 37.3859 1.5161C37.3918 2.38714 37.3879 3.25817 37.3879 4.13017Z" fill="#2B2B6E"/>
</svg>
