<svg width="62" height="62" viewBox="0 0 62 62" fill="none" xmlns="http://www.w3.org/2000/svg">
<g clip-path="url(#clip0)">
<path d="M31.0001 1.29165C25.6123 1.29219 20.3262 2.75788 15.7074 5.53183C11.0886 8.30577 7.31113 12.2835 4.7793 17.0393C2.24747 21.7952 1.05661 27.1499 1.33418 32.5305C1.61175 37.9111 3.34731 43.115 6.35508 47.585L1.29175 60.7083L14.8026 55.8775C18.6774 58.4068 23.0895 59.9959 27.6871 60.5184C32.2848 61.0408 36.9409 60.482 41.2845 58.8865C45.628 57.2911 49.5387 54.7031 52.7051 51.3288C55.8714 47.9546 58.2058 43.8873 59.5221 39.4512C60.8385 35.0152 61.1004 30.3329 60.287 25.7777C59.4736 21.2225 57.6074 16.9203 54.8371 13.214C52.0668 9.5076 48.4691 6.49961 44.3306 4.42971C40.1921 2.35981 35.6273 1.28525 31.0001 1.29165V1.29165Z" stroke="white" stroke-width="3" stroke-linecap="round" stroke-linejoin="round"/>
<path d="M24.5416 37.4583C27.8999 40.8166 35.3141 45.2083 38.7499 45.2083C40.2571 45.2238 41.7233 44.718 42.9003 43.7764C44.0773 42.8349 44.8926 41.5154 45.2083 40.0416V37.4583C45.2083 37.4583 42.0308 35.9083 40.0416 34.875C38.0524 33.8416 34.8749 37.4583 34.8749 37.4583C32.4573 36.6707 30.2493 35.3459 28.4166 33.5833C26.654 31.7506 25.3292 29.5426 24.5416 27.125C24.5416 27.125 28.1583 23.9475 27.1249 21.9583C26.0916 19.9691 24.5416 16.7916 24.5416 16.7916H21.9583C20.4845 17.1073 19.165 17.9226 18.2235 19.0996C17.2819 20.2766 16.7761 21.7428 16.7916 23.25C16.7916 26.6858 21.1833 34.1 24.5416 37.4583Z" stroke="white" stroke-width="3" stroke-linecap="round" stroke-linejoin="round"/>
</g>
<defs>
<clipPath id="clip0">
<rect width="62" height="62" fill="white"/>
</clipPath>
</defs>
</svg>
