<svg width="98" height="113" viewBox="0 0 98 113" fill="none" xmlns="http://www.w3.org/2000/svg">
<path d="M71.8475 32.1724C59.4687 32.1724 47.2342 32.1724 34.8932 32.1724C34.8932 32.5114 34.8932 32.8157 34.8932 33.1199C34.8932 59.362 34.8918 85.6054 34.8918 111.847C34.8918 112.026 34.8743 112.207 34.8945 112.384C34.9498 112.857 34.7435 113.007 34.2785 112.991C33.4252 112.961 32.5692 112.944 31.7186 112.996C31.0837 113.035 30.9233 112.8 30.9273 112.201C30.9475 107.734 30.9381 103.268 30.9381 98.8008C30.9381 76.1316 30.9395 53.4625 30.9408 30.7933C30.9408 30.5695 30.9354 30.3457 30.9502 30.1232C31.0257 28.9466 31.8103 28.192 33.006 28.18C34.5332 28.1652 36.0619 28.1518 37.5878 28.188C38.1405 28.2014 38.2699 28.0071 38.2645 27.4965C38.243 25.241 38.2537 22.9854 38.2564 20.7299C38.2591 18.9636 38.9561 18.2827 40.7597 18.2814C46.4658 18.2801 52.1719 18.2801 57.8781 18.2801C58.145 18.2801 58.4119 18.2801 58.7367 18.2801C58.7367 16.7348 58.7367 15.2352 58.7367 13.6497C58.4496 13.6497 58.1868 13.6497 57.9252 13.6497C53.9486 13.6497 49.9733 13.6511 45.9967 13.6497C45.0989 13.6497 44.4344 13.2557 44.0879 12.4275C43.7658 11.6569 43.8574 10.8635 44.4991 10.3422C44.9304 9.99104 45.568 9.74579 46.1261 9.72033C47.8287 9.64126 49.5379 9.69218 51.3281 9.69218C51.3402 9.42549 51.3604 9.19096 51.3604 8.95642C51.3631 6.7009 51.3591 4.44538 51.3645 2.18851C51.3672 0.849672 52.1598 -0.00670321 53.3717 0.00133788C54.5754 0.00803878 55.3438 0.868435 55.3465 2.22202C55.3492 4.43332 55.3465 6.64461 55.3465 8.85591C55.3465 9.09848 55.3465 9.34106 55.3465 9.656C55.6282 9.6694 55.8655 9.6895 56.1027 9.69084C57.5855 9.69352 59.0684 9.68816 60.5512 9.69352C61.976 9.70022 62.7673 10.4775 62.7727 11.882C62.7794 13.7355 62.774 15.589 62.774 17.4438C62.774 17.685 62.774 17.9263 62.774 18.2841C63.4777 18.2841 64.118 18.2841 64.7583 18.2841C65.3204 18.2841 65.8825 18.2626 66.4433 18.2908C67.6767 18.3511 68.4384 19.1244 68.4478 20.352C68.464 22.6745 68.4532 24.997 68.4559 27.3196C68.4559 27.5809 68.4788 27.8423 68.4936 28.1773C69.8052 28.1773 71.0575 28.1773 72.3098 28.1773C72.6468 28.1773 72.9838 28.1773 73.3208 28.1786C75.0652 28.18 75.7742 28.8769 75.7742 30.6111C75.7769 42.8724 75.7783 55.1337 75.7783 67.395C75.7783 82.2469 75.7769 97.0988 75.7756 111.952C75.7756 112.985 75.7756 112.985 74.7106 112.985C73.7913 112.985 72.872 112.985 71.8502 112.985C71.8475 86.0409 71.8475 59.1462 71.8475 32.1724ZM42.2223 28.1465C49.6822 28.1465 57.0369 28.1465 64.4563 28.1465C64.4698 27.857 64.4927 27.5957 64.4927 27.333C64.4968 25.9271 64.4981 24.5213 64.4954 23.1154C64.4941 22.239 64.49 22.2376 63.6152 22.2376C56.7929 22.2376 49.9693 22.2376 43.147 22.239C42.9893 22.239 42.806 22.188 42.682 22.2524C42.5054 22.3448 42.2452 22.5191 42.2425 22.6611C42.2115 24.465 42.2223 26.2689 42.2223 28.1465Z" fill="white"/>
<path d="M24.5809 62.2219C24.5809 63.542 24.5809 64.7656 24.5809 66.1004C17.7196 66.1004 10.8852 66.1004 3.98875 66.1004C3.98875 81.7684 3.98875 97.3252 3.98875 112.933C2.6394 112.933 1.35474 112.933 0.00134474 112.933C0.00134474 112.652 0.00134474 112.412 0.00134474 112.172C0.00134474 96.3161 0.00134474 80.4591 0.00134474 64.6034C-3.27174e-06 62.8933 0.692873 62.1844 2.38597 62.1844C9.55198 62.1817 16.718 62.183 23.8827 62.1844C24.1024 62.1844 24.3208 62.2071 24.5809 62.2219Z" fill="white"/>
<path d="M97 112.94C95.656 112.94 94.3862 112.94 93.0274 112.94C93.0274 102.648 93.0274 92.3719 93.0274 82.0257C89.536 82.0257 86.1323 82.0257 82.6706 82.0257C82.6706 80.699 82.6706 79.4392 82.6706 78.0937C82.8904 78.0802 83.1249 78.0548 83.3608 78.0548C87.1339 78.0521 90.907 78.0494 94.6801 78.0534C96.2208 78.0548 97 78.8321 97 80.3612C97.0013 90.9889 97.0013 101.617 97.0013 112.245C97 112.445 97 112.646 97 112.94Z" fill="white"/>
<path d="M65.16 39.8704C65.16 41.1744 65.16 42.4368 65.16 43.7475C57.2998 43.7475 49.4544 43.7475 41.5618 43.7475C41.5618 42.465 41.5618 41.1864 41.5618 39.8704C49.4166 39.8704 57.2459 39.8704 65.16 39.8704Z" fill="white"/>
<path d="M65.1304 55.2958C57.254 55.2958 49.4449 55.2958 41.5739 55.2958C41.5739 54.0039 41.5739 52.7267 41.5739 51.3999C49.4126 51.3999 57.2553 51.3999 65.1304 51.3999C65.1304 52.7013 65.1304 53.9932 65.1304 55.2958Z" fill="white"/>
<path d="M65.1358 66.7798C57.2742 66.7798 49.4274 66.7798 41.5497 66.7798C41.5497 65.4745 41.5497 64.2134 41.5497 62.9107C49.4167 62.9107 57.2459 62.9107 65.1358 62.9107C65.1358 64.1839 65.1358 65.4598 65.1358 66.7798Z" fill="white"/>
<path d="M65.156 101.275C57.2742 101.275 49.4328 101.275 41.5524 101.275C41.5524 99.9922 41.5524 98.7512 41.5524 97.4365C49.4072 97.4365 57.2634 97.4365 65.156 97.4365C65.156 98.715 65.156 99.9734 65.156 101.275Z" fill="white"/>
<path d="M41.551 108.916C49.4584 108.916 57.289 108.916 65.1573 108.916C65.1573 110.219 65.1573 111.48 65.1573 112.787C57.2822 112.787 49.4355 112.787 41.551 112.787C41.551 111.488 41.551 110.227 41.551 108.916Z" fill="white"/>
<path d="M41.5132 74.4095C49.4382 74.4095 57.2647 74.4095 65.1883 74.4095C65.1883 75.6331 65.2045 76.8285 65.16 78.0226C65.1559 78.1258 64.7556 78.2947 64.5372 78.2974C62.8765 78.3202 61.2157 78.3108 59.5536 78.3108C53.83 78.3108 48.1063 78.3108 42.3813 78.3081C41.5146 78.3081 41.5132 78.3041 41.5132 77.4263C41.5119 76.4479 41.5132 75.4696 41.5132 74.4095Z" fill="white"/>
<path d="M41.5604 85.9337C49.4422 85.9337 57.2822 85.9337 65.1586 85.9337C65.1721 86.179 65.1923 86.3746 65.1937 86.5703C65.1964 87.6143 65.195 88.6583 65.195 89.7559C57.289 89.7559 49.4489 89.7559 41.5617 89.7559C41.5604 88.4975 41.5604 87.2591 41.5604 85.9337Z" fill="white"/>
<path d="M11.1075 73.6389C12.3989 73.6389 13.6688 73.6389 14.9885 73.6389C14.9885 76.1986 14.9885 78.7517 14.9885 81.369C13.7254 81.369 12.4434 81.369 11.1075 81.369C11.1075 78.8254 11.1075 76.275 11.1075 73.6389Z" fill="white"/>
<path d="M14.9993 112.895C13.6701 112.895 12.4017 112.895 11.0928 112.895C11.0928 110.305 11.0928 107.751 11.0928 105.148C12.3882 105.148 13.6742 105.148 14.9993 105.148C14.9993 107.721 14.9993 110.277 14.9993 112.895Z" fill="white"/>
<path d="M86.5839 112.895C85.2521 112.895 83.9836 112.895 82.676 112.895C82.676 110.304 82.676 107.749 82.676 105.148C83.9728 105.148 85.2588 105.148 86.5839 105.148C86.5839 107.722 86.5839 110.278 86.5839 112.895Z" fill="white"/>
<path d="M11.1008 89.4088C12.4071 89.4088 13.6742 89.4088 14.9912 89.4088C14.9912 91.9712 14.9912 94.5042 14.9912 97.0974C13.7187 97.0974 12.434 97.0974 11.1008 97.0974C11.1008 94.5671 11.1008 92.0355 11.1008 89.4088Z" fill="white"/>
<path d="M82.672 89.4155C84.0105 89.4155 85.279 89.4155 86.5839 89.4155C86.5839 91.998 86.5839 94.5296 86.5839 97.1095C85.2763 97.1095 83.9917 97.1095 82.672 97.1095C82.672 94.5417 82.672 92.0101 82.672 89.4155Z" fill="white"/>
<path d="M20.6259 81.4307C20.6259 78.7946 20.6259 76.2549 20.6259 73.6094C21.8404 73.6094 23.0428 73.5987 24.2453 73.6282C24.3464 73.6309 24.5243 73.9002 24.5256 74.0477C24.5459 76.3474 24.5499 78.6485 24.5256 80.9496C24.5243 81.1118 24.2803 81.4053 24.1415 81.4106C23.001 81.4481 21.8579 81.4307 20.6259 81.4307Z" fill="white"/>
<path d="M24.5432 105.155C24.5432 106.272 24.5432 107.339 24.5432 108.406C24.5432 109.698 24.527 110.991 24.5513 112.283C24.5607 112.761 24.43 112.96 23.9096 112.942C22.8393 112.906 21.7676 112.932 20.6434 112.932C20.6434 110.313 20.6434 107.761 20.6434 105.155C21.9011 105.155 23.1628 105.155 24.5432 105.155Z" fill="white"/>
<path d="M20.5921 97.1564C20.5921 95.9757 20.5921 94.9076 20.5921 93.8408C20.5921 92.5475 20.6016 91.2556 20.5854 89.9623C20.58 89.5522 20.6852 89.3458 21.1448 89.3579C22.0857 89.382 23.028 89.3793 23.9689 89.3579C24.4137 89.3485 24.5499 89.5334 24.5472 89.9543C24.5364 92.1602 24.5378 94.3675 24.5512 96.5734C24.5539 96.9902 24.4353 97.1752 23.9797 97.1644C22.8851 97.139 21.7919 97.1564 20.5921 97.1564Z" fill="white"/>
</svg>
