<svg width="64" height="65" viewBox="0 0 64 65" fill="none" xmlns="http://www.w3.org/2000/svg">
<g clip-path="url(#clip0)">
<circle cx="32" cy="32.0991" r="28" fill="white"/>
<path d="M32 0.0991211C14.3269 0.0991211 0 14.426 0 32.0991C0 49.7722 14.3269 64.0991 32 64.0991C49.6731 64.0991 64 49.7722 64 32.0991C64 14.426 49.6731 0.0991211 32 0.0991211ZM29.5508 15.1616L30.9258 21.4937C26.8969 22.3855 23.1922 23.5454 23.4922 28.0445H28.2266V44.8961H13.9649V29.146C13.9699 16.6292 23.1596 15.6107 29.5508 15.1616ZM48.6563 15.1616L50.0351 21.4937C46.0063 22.3855 42.3015 23.5454 42.6015 28.0445H47.3359V44.8961H33.0742V29.146C33.0793 16.6292 42.2651 15.6107 48.6563 15.1616Z" fill="#00C2FF"/>
</g>
<defs>
<clipPath id="clip0">
<rect width="64" height="64" fill="white" transform="translate(0 0.0991211)"/>
</clipPath>
</defs>
</svg>
