<svg width="19" height="26" viewBox="0 0 19 26" fill="none" xmlns="http://www.w3.org/2000/svg">
<path d="M9.5 6C8.80777 6 8.13108 6.20527 7.55551 6.58986C6.97993 6.97444 6.53133 7.52107 6.26642 8.16061C6.00152 8.80015 5.9322 9.50388 6.06725 10.1828C6.2023 10.8617 6.53564 11.4854 7.02513 11.9749C7.51461 12.4644 8.13825 12.7977 8.81718 12.9327C9.49612 13.0678 10.1999 12.9985 10.8394 12.7336C11.4789 12.4687 12.0256 12.0201 12.4101 11.4445C12.7947 10.8689 13 10.1922 13 9.5C12.9989 8.57207 12.6299 7.68244 11.9737 7.02629C11.3176 6.37014 10.4279 6.00106 9.5 6ZM9.5 11.25C9.15388 11.25 8.81554 11.1474 8.52775 10.9551C8.23997 10.7628 8.01566 10.4895 7.88321 10.1697C7.75076 9.84992 7.7161 9.49806 7.78363 9.15859C7.85115 8.81912 8.01782 8.5073 8.26256 8.26256C8.50731 8.01782 8.81913 7.85115 9.15859 7.78362C9.49806 7.7161 9.84993 7.75076 10.1697 7.88321C10.4895 8.01566 10.7628 8.23997 10.9551 8.52775C11.1474 8.81554 11.25 9.15388 11.25 9.5C11.2495 9.96396 11.0649 10.4088 10.7368 10.7368C10.4088 11.0649 9.96396 11.2495 9.5 11.25Z" fill="#5A5A5A"/>
<path d="M16.2174 2.82977C14.5564 1.14055 12.3392 0.137084 9.99368 0.0130425C7.64816 -0.110998 5.3406 0.65318 3.51638 2.15809C1.69216 3.663 0.480588 5.80196 0.115503 8.16214C-0.249581 10.5223 0.257703 12.9364 1.53945 14.9385L8.14395 25.2525C8.29092 25.482 8.49188 25.6706 8.7286 25.8011C8.96533 25.9316 9.23033 26 9.49959 26C9.76886 26 10.0339 25.9316 10.2706 25.8011C10.5073 25.6706 10.7083 25.482 10.8552 25.2525L17.46 14.9385C18.6493 13.0813 19.1749 10.8646 18.9486 8.66009C18.7224 6.45554 17.7581 4.3971 16.2174 2.82977ZM15.9954 13.9679L9.49962 24.1117L3.00382 13.9679C1.01549 10.8629 1.44194 6.70754 4.01782 4.08709C4.73769 3.35478 5.59231 2.77387 6.53288 2.37754C7.47345 1.98122 8.48155 1.77723 9.49962 1.77723C10.5177 1.77723 11.5258 1.98122 12.4664 2.37754C13.4069 2.77387 14.2615 3.35478 14.9814 4.08709C17.5573 6.70754 17.9837 10.8629 15.9954 13.9679Z" fill="#5A5A5A"/>
</svg>
