<svg width="167" height="113" viewBox="0 0 167 113" fill="none" xmlns="http://www.w3.org/2000/svg">
<g clip-path="url(#clip0)">
<path d="M78.5509 34.9572L66.2277 47.2832C65.3545 48.1553 63.9173 48.1553 63.0441 47.2832L50.7208 34.9763C49.8476 34.1043 49.8476 32.6689 50.7208 31.8001L63.0441 19.4931C63.9173 18.6211 65.3545 18.6211 66.2277 19.4931L78.5509 31.8001C79.4241 32.6689 79.4241 34.0852 78.5509 34.9572Z" fill="#2B2B6E"/>
<path d="M97.4326 53.833L85.1093 66.1399C84.2361 67.012 82.7989 67.012 81.9257 66.1399L69.6025 53.833C68.7293 52.961 68.7293 51.5256 69.6025 50.6568L81.9257 38.3498C82.7989 37.4778 84.2361 37.4778 85.1093 38.3498L97.4326 50.6568C98.3058 51.5256 98.3058 52.961 97.4326 53.833Z" fill="#2B2B6E"/>
<path d="M97.4135 16.1198L85.0902 28.4267C84.217 29.2988 82.7798 29.2988 81.9066 28.4267L69.5833 16.1198C68.7102 15.2478 68.7102 13.8124 69.5833 12.9436L81.9066 0.655725C82.7798 -0.216296 84.217 -0.216296 85.0902 0.655725L97.4135 12.9627C98.2867 13.8315 98.2867 15.2478 97.4135 16.1198Z" fill="#2B2B6E"/>
<path d="M116.295 34.9953L103.972 47.3023C103.099 48.1743 101.661 48.1743 100.788 47.3023L88.465 34.9953C87.5918 34.1233 87.5918 32.688 88.465 31.816L100.788 19.509C101.661 18.637 103.099 18.637 103.972 19.509L116.295 31.816C117.168 32.688 117.168 34.1233 116.295 34.9953Z" fill="#2B2B6E"/>
<path d="M25.9404 107.399C25.9404 107.262 25.9212 107.125 25.883 106.972C25.8448 106.816 25.7683 106.683 25.6695 106.546C25.5739 106.428 25.4177 106.313 25.2425 106.234C25.0672 106.157 24.8345 106.119 24.5445 106.119H22.8556V108.659H24.5637C25.0481 108.659 25.3986 108.541 25.6121 108.309C25.8448 108.057 25.9404 107.768 25.9404 107.399ZM22.8364 112.634C22.8364 112.749 22.8173 112.809 22.7791 112.828C22.7408 112.847 22.6835 112.866 22.5656 112.866H21.7115C21.6318 112.866 21.5553 112.847 21.5171 112.828C21.4789 112.809 21.4374 112.733 21.4374 112.634V105.502C21.4374 105.289 21.4757 105.133 21.5745 105.018C21.6701 104.903 21.8262 104.843 22.0812 104.843H24.7963C25.1851 104.843 25.5356 104.9 25.8448 105.018C26.1539 105.136 26.4279 105.308 26.6606 105.524C26.8932 105.737 27.0685 106.008 27.1832 106.297C27.2979 106.609 27.3776 106.918 27.3776 107.287C27.3776 107.5 27.3394 107.733 27.282 108.026C27.2246 108.315 27.0876 108.589 26.8932 108.859C26.6988 109.13 26.4279 109.343 26.0774 109.537C25.73 109.731 25.2616 109.811 24.7007 109.811H22.8396V112.634H22.8364Z" fill="#2B2B6E"/>
<path d="M31.1794 112.691C31.1794 112.768 31.1603 112.828 31.1221 112.844C31.0838 112.863 31.0265 112.882 30.9468 112.882H30.0736C29.9971 112.882 29.9366 112.863 29.8983 112.844C29.8601 112.825 29.841 112.768 29.841 112.691V107.09C29.841 107.014 29.8601 106.953 29.8983 106.937C29.9366 106.918 29.9939 106.899 30.0736 106.899H30.9468C31.0233 106.899 31.0838 106.918 31.1221 106.937C31.1603 106.956 31.1794 107.014 31.1794 107.09V112.691ZM31.3547 105.327C31.3547 105.559 31.2782 105.753 31.1221 105.906C30.9691 106.062 30.7747 106.138 30.5421 106.138C30.3094 106.138 30.115 106.062 29.9589 105.906C29.8027 105.753 29.7263 105.559 29.7263 105.327C29.7263 105.095 29.8027 104.9 29.9589 104.745C30.115 104.589 30.3094 104.512 30.5421 104.512C30.7747 104.512 30.9691 104.589 31.1221 104.745C31.2782 104.9 31.3547 105.095 31.3547 105.327Z" fill="#2B2B6E"/>
<path d="M38.3975 111.199C38.3975 111.511 38.3402 111.762 38.2223 111.994C38.1043 112.227 37.9514 112.421 37.7379 112.558C37.5243 112.695 37.2917 112.809 37.0208 112.889C36.75 112.968 36.4408 113.006 36.1285 113.006C35.9533 113.006 35.7589 113.006 35.5485 112.987C35.335 112.968 35.1406 112.949 34.9271 112.911C34.7136 112.873 34.5192 112.815 34.3248 112.755C34.1304 112.698 33.9552 112.618 33.8022 112.523C33.6843 112.465 33.6652 112.37 33.7225 112.252L33.9934 111.612C34.0316 111.533 34.0731 111.495 34.1113 111.476C34.1496 111.457 34.2069 111.476 34.2866 111.495C34.5606 111.632 34.8698 111.727 35.198 111.803C35.5294 111.883 35.8385 111.921 36.0903 111.921C36.4026 111.921 36.6544 111.864 36.8073 111.727C36.9635 111.612 37.04 111.437 37.04 111.243C37.04 111.03 36.9444 110.858 36.7308 110.721C36.5173 110.585 36.2082 110.451 35.7971 110.295C35.488 110.18 35.2171 110.063 34.9845 109.948C34.7519 109.83 34.5575 109.716 34.4013 109.56C34.2452 109.423 34.1304 109.27 34.0508 109.095C33.9743 108.92 33.936 108.726 33.936 108.494C33.936 108.242 33.9743 108.01 34.0731 107.793C34.1687 107.58 34.3057 107.408 34.481 107.252C34.6562 107.096 34.8889 106.982 35.1598 106.883C35.4306 106.788 35.7398 106.746 36.0903 106.746C36.4026 106.746 36.7308 106.765 37.04 106.823C37.3491 106.88 37.6614 106.979 37.9705 107.093C38.0279 107.131 38.0661 107.173 38.0884 107.211C38.1075 107.249 38.0884 107.306 38.0884 107.367L37.8175 108.026C37.7984 108.083 37.7602 108.121 37.7379 108.121C37.6996 108.121 37.6614 108.121 37.6008 108.102C37.3108 108.007 37.0368 107.927 36.8233 107.889C36.5906 107.851 36.358 107.832 36.1062 107.832C35.8162 107.832 35.6218 107.889 35.4848 108.007C35.3478 108.121 35.2904 108.258 35.2904 108.395C35.2904 108.509 35.3095 108.589 35.3478 108.665C35.386 108.742 35.4625 108.821 35.5422 108.879C35.6378 108.936 35.7557 109.016 35.9118 109.073C36.068 109.152 36.2433 109.21 36.4536 109.286C36.7053 109.382 36.938 109.48 37.1706 109.576C37.4033 109.671 37.6168 109.808 37.792 109.945C37.9673 110.082 38.1235 110.254 38.2191 110.467C38.3402 110.674 38.3975 110.928 38.3975 111.199Z" fill="#2B2B6E"/>
<path d="M44.6468 109.881C44.6468 109.61 44.6276 109.34 44.5894 109.108C44.5512 108.856 44.4747 108.643 44.3759 108.468C44.2803 108.274 44.1241 108.137 43.9489 108.022C43.7736 107.905 43.5409 107.866 43.2701 107.866C43.0183 107.866 42.8048 107.924 42.6295 108.022C42.4543 108.118 42.2981 108.274 42.1643 108.449C42.0495 108.624 41.9507 108.834 41.8934 109.089C41.836 109.34 41.8169 109.591 41.8169 109.884C41.8169 110.524 41.9125 111.027 42.126 111.377C42.3395 111.746 42.6901 111.921 43.2318 111.921C43.5027 111.921 43.7162 111.864 43.9106 111.746C44.0859 111.628 44.242 111.495 44.3568 111.3C44.4747 111.125 44.5512 110.912 44.5894 110.661C44.6276 110.403 44.6468 110.152 44.6468 109.881ZM46.0266 109.862C46.0266 110.868 45.794 111.644 45.3255 112.185C44.8603 112.729 44.1624 113 43.2318 113C42.3013 113 41.6225 112.729 41.1732 112.204C40.727 111.682 40.4944 110.906 40.4944 109.878C40.4944 109.375 40.5709 108.929 40.7079 108.541C40.8449 108.156 41.0393 107.825 41.272 107.551C41.5237 107.281 41.8169 107.087 42.1451 106.931C42.4766 106.794 42.8622 106.718 43.2701 106.718C44.1815 106.718 44.8603 106.988 45.3255 107.551C45.7717 108.137 46.0266 108.891 46.0266 109.862Z" fill="#2B2B6E"/>
<path d="M52.7603 111.199C52.7603 111.511 52.703 111.762 52.5851 111.994C52.4672 112.227 52.3142 112.421 52.1007 112.558C51.8872 112.695 51.6545 112.809 51.3837 112.889C51.1128 112.968 50.8037 113.006 50.4914 113.006C50.3161 113.006 50.1217 113.006 49.9114 112.987C49.6978 112.968 49.5035 112.949 49.2899 112.911C49.0764 112.873 48.882 112.815 48.6876 112.755C48.4932 112.698 48.318 112.618 48.165 112.523C48.0503 112.465 48.028 112.37 48.0885 112.252L48.3594 111.612C48.3976 111.533 48.4391 111.495 48.4773 111.476C48.5155 111.457 48.5729 111.476 48.6526 111.495C48.9235 111.632 49.2358 111.727 49.564 111.803C49.8954 111.883 50.2045 111.921 50.4563 111.921C50.7654 111.921 51.0204 111.864 51.1733 111.727C51.3295 111.612 51.406 111.437 51.406 111.243C51.406 111.03 51.3104 110.858 51.0937 110.721C50.8801 110.585 50.571 110.451 50.1631 110.295C49.854 110.18 49.5799 110.063 49.3473 109.948C49.1147 109.83 48.9203 109.716 48.7673 109.56C48.6112 109.423 48.4964 109.27 48.4168 109.095C48.3403 108.92 48.302 108.726 48.302 108.494C48.302 108.242 48.3403 108.01 48.4391 107.793C48.5347 107.58 48.6717 107.408 48.847 107.252C49.0222 107.096 49.2549 106.982 49.5258 106.883C49.7966 106.788 50.1058 106.746 50.4563 106.746C50.7654 106.746 51.0968 106.765 51.406 106.823C51.7151 106.88 52.0274 106.979 52.3365 107.093C52.3939 107.131 52.4321 107.173 52.4544 107.211C52.4735 107.249 52.4544 107.306 52.4544 107.367L52.1803 108.026C52.1612 108.083 52.123 108.121 52.1039 108.121C52.0656 108.121 52.0274 108.121 51.9668 108.102C51.6768 108.007 51.4028 107.927 51.1893 107.889C50.9566 107.851 50.724 107.832 50.4722 107.832C50.1822 107.832 49.9878 107.889 49.8508 108.007C49.7138 108.121 49.6564 108.258 49.6564 108.395C49.6564 108.509 49.6755 108.589 49.7138 108.665C49.752 108.742 49.8285 108.821 49.9082 108.879C50.0038 108.936 50.1217 109.016 50.2778 109.073C50.4308 109.152 50.6093 109.21 50.8196 109.286C51.0713 109.382 51.304 109.48 51.5366 109.576C51.7693 109.671 51.9828 109.808 52.158 109.945C52.3333 110.082 52.4895 110.254 52.5851 110.467C52.6998 110.674 52.7603 110.928 52.7603 111.199Z" fill="#2B2B6E"/>
<path d="M61.0269 112.844C60.9886 112.863 60.9121 112.882 60.8134 112.882H59.9402C59.8446 112.882 59.784 112.863 59.7458 112.844C59.7075 112.806 59.6884 112.749 59.6884 112.65V105.133C59.6884 105.037 59.7075 104.977 59.7458 104.939C59.784 104.9 59.8637 104.9 59.9402 104.9H60.8134C60.909 104.9 60.9886 104.919 61.0269 104.939C61.0651 104.958 61.0842 105.034 61.0842 105.133V112.65C61.0651 112.749 61.046 112.806 61.0269 112.844Z" fill="#2B2B6E"/>
<path d="M66.1671 107.882C66.0906 107.882 65.9536 107.882 65.7975 107.882C65.6413 107.882 65.466 107.901 65.2525 107.94V112.669C65.2525 112.745 65.2334 112.806 65.2143 112.825C65.176 112.844 65.1187 112.863 65.039 112.863H64.1467C64.0702 112.863 64.0097 112.844 63.9714 112.825C63.9332 112.806 63.9141 112.745 63.9141 112.669V107.784C63.9141 107.513 63.9714 107.3 64.0702 107.144C64.1658 106.988 64.3793 106.893 64.6916 106.835C64.7713 106.835 64.8669 106.816 65.0039 106.797C65.141 106.778 65.2748 106.778 65.4118 106.759C65.5489 106.759 65.7018 106.74 65.8389 106.74C65.9759 106.74 66.0906 106.721 66.1894 106.721C66.6929 106.721 67.12 106.778 67.4896 106.877C67.8593 106.972 68.1684 107.147 68.401 107.379C68.6337 107.612 68.809 107.924 68.9237 108.29C69.0384 108.659 69.099 109.104 69.099 109.645V112.669C69.099 112.745 69.0798 112.806 69.0607 112.825C69.0225 112.844 68.9842 112.863 68.8854 112.863H67.9931C67.9135 112.863 67.8561 112.844 67.837 112.825C67.8179 112.806 67.7796 112.745 67.7796 112.669V109.626C67.7796 109.337 67.7605 109.063 67.7031 108.853C67.6458 108.64 67.5661 108.446 67.4514 108.309C67.3367 108.172 67.1614 108.057 66.9479 107.978C66.7503 107.924 66.4985 107.882 66.1671 107.882Z" fill="#2B2B6E"/>
<path d="M75.3864 112.729C75.3864 112.768 75.3482 112.787 75.2685 112.825C75.0168 112.901 74.7459 112.962 74.4941 112.978C74.2424 112.997 74.0289 112.997 73.8918 112.997C73.2704 112.997 72.8243 112.86 72.5725 112.589C72.3207 112.316 72.1837 111.912 72.1837 111.367V107.879H71.3679C71.2914 107.879 71.2309 107.86 71.2118 107.822C71.1926 107.784 71.1926 107.742 71.1926 107.685V107.22C71.1926 107.144 71.2118 107.106 71.2309 107.068C71.25 107.03 71.3074 107.01 71.387 106.988L72.2602 106.794L72.4164 105.709C72.4355 105.632 72.4546 105.572 72.4928 105.534C72.5311 105.496 72.5884 105.476 72.6681 105.438L73.3278 105.206C73.3851 105.187 73.4425 105.206 73.4807 105.225C73.519 105.244 73.5381 105.301 73.5381 105.4V106.854H74.7618C74.8383 106.854 74.8989 106.874 74.918 106.912C74.9371 106.95 74.9371 106.988 74.9371 107.049V107.688C74.9371 107.765 74.9371 107.803 74.918 107.841C74.8989 107.879 74.8383 107.879 74.7618 107.879H73.5381V111.192C73.5381 111.444 73.5955 111.6 73.7134 111.695C73.8313 111.791 74.0034 111.832 74.236 111.832C74.2742 111.832 74.3316 111.832 74.4113 111.832C74.4878 111.832 74.5642 111.832 74.6439 111.813C74.7204 111.813 74.7969 111.794 74.8766 111.794C74.953 111.775 75.0295 111.775 75.0709 111.775C75.1474 111.756 75.1857 111.756 75.2239 111.775C75.243 111.794 75.2621 111.832 75.2621 111.889L75.3801 112.628C75.4056 112.672 75.4056 112.71 75.3864 112.729Z" fill="#2B2B6E"/>
<path d="M79.9277 107.863C79.7141 107.863 79.5389 107.902 79.3827 107.978C79.2298 108.058 79.0927 108.172 78.9748 108.309C78.8569 108.446 78.7613 108.599 78.7039 108.774C78.6243 108.949 78.586 109.121 78.586 109.315H81.2247C81.2247 109.101 81.2056 108.926 81.1673 108.751C81.1291 108.576 81.0717 108.42 80.9729 108.287C80.8773 108.15 80.7403 108.054 80.5841 107.975C80.3929 107.883 80.1794 107.863 79.9277 107.863ZM79.9085 106.74C80.7817 106.74 81.4414 106.972 81.8493 107.418C82.2763 107.863 82.4898 108.484 82.4898 109.261C82.4898 109.455 82.4707 109.63 82.4102 109.744C82.3719 109.881 82.2954 109.977 82.2158 110.053C82.1393 110.133 82.0405 110.19 81.9258 110.209C81.811 110.247 81.6931 110.247 81.5561 110.247H78.5095C78.5095 110.537 78.5669 110.791 78.6466 111.005C78.7231 111.199 78.841 111.374 78.9971 111.488C79.1342 111.606 79.3062 111.702 79.5006 111.759C79.695 111.816 79.8894 111.838 80.1221 111.838C80.3738 111.838 80.6064 111.8 80.8391 111.743C81.0717 111.686 81.2852 111.606 81.4605 111.53C81.5784 111.472 81.674 111.492 81.7123 111.609L82.0214 112.268C82.0787 112.383 82.0405 112.481 81.9449 112.539C81.6549 112.714 81.3426 112.828 80.9952 112.908C80.6479 112.984 80.3164 113.003 80.0041 113.003C79.0736 113.003 78.3757 112.752 77.8881 112.268C77.4037 111.762 77.152 110.989 77.152 109.923C77.152 109.42 77.2285 108.974 77.3655 108.586C77.5025 108.198 77.6969 107.87 77.9295 107.596C78.1622 107.322 78.4522 107.112 78.7836 106.975C79.1501 106.82 79.5006 106.74 79.9085 106.74Z" fill="#2B2B6E"/>
<path d="M86.2343 112.844C86.196 112.863 86.1387 112.882 86.059 112.882H85.1858C85.1093 112.882 85.0488 112.863 85.0106 112.844C84.9723 112.825 84.9532 112.768 84.9532 112.691V107.787C84.9532 107.478 85.0106 107.265 85.1093 107.109C85.2049 106.953 85.4216 106.858 85.7499 106.82C85.8869 106.8 86.0208 106.8 86.1769 106.781C86.3331 106.762 86.4669 106.762 86.6039 106.762C87.0692 106.762 87.5154 106.819 87.9424 106.937C88.3694 107.052 88.7582 107.268 89.1056 107.558C89.1629 107.596 89.1852 107.637 89.1852 107.676C89.1852 107.714 89.1661 107.752 89.147 107.79L88.6244 108.548C88.5861 108.605 88.5447 108.643 88.5065 108.627C88.4682 108.627 88.43 108.589 88.3694 108.548C88.1559 108.353 87.9041 108.217 87.6524 108.102C87.4006 108.007 87.1106 107.946 86.8175 107.946C86.7219 107.946 86.6422 107.946 86.5466 107.965C86.451 107.965 86.3713 107.984 86.2725 108.003V112.695C86.2916 112.768 86.2725 112.825 86.2343 112.844Z" fill="#2B2B6E"/>
<path d="M94.657 112.729C94.657 112.768 94.6187 112.787 94.539 112.825C94.2873 112.901 94.0164 112.962 93.7647 112.978C93.5129 112.997 93.2994 112.997 93.1623 112.997C92.5409 112.997 92.0948 112.86 91.843 112.589C91.5913 112.316 91.4542 111.912 91.4542 111.367V107.879H90.6384C90.5619 107.879 90.5014 107.86 90.4823 107.822C90.4631 107.784 90.4631 107.742 90.4631 107.685V107.22C90.4631 107.144 90.4823 107.106 90.5014 107.068C90.5205 107.03 90.5779 107.01 90.6575 106.988L91.5307 106.794L91.6869 105.709C91.706 105.632 91.7251 105.572 91.7634 105.534C91.8016 105.496 91.859 105.476 91.9386 105.438L92.5983 105.206C92.6557 105.187 92.7162 105.206 92.7544 105.225C92.7927 105.244 92.8118 105.301 92.8118 105.4V106.854H94.0355C94.112 106.854 94.1726 106.874 94.1917 106.912C94.2108 106.95 94.2108 106.988 94.2108 107.049V107.688C94.2108 107.765 94.2108 107.803 94.1917 107.841C94.1726 107.879 94.112 107.879 94.0355 107.879H92.7736V111.192C92.7736 111.444 92.8309 111.6 92.9488 111.695C93.0667 111.791 93.2388 111.832 93.4715 111.832C93.5097 111.832 93.5671 111.832 93.6467 111.832C93.7264 111.832 93.8029 111.832 93.8794 111.813C93.959 111.813 94.0355 111.794 94.112 111.794C94.1917 111.775 94.2682 111.775 94.3064 111.775C94.3861 111.756 94.4243 111.756 94.4626 111.775C94.4817 111.794 94.5008 111.832 94.5008 111.889L94.6187 112.628C94.657 112.672 94.657 112.71 94.657 112.729Z" fill="#2B2B6E"/>
<path d="M98.0509 112.844C98.0126 112.863 97.9553 112.882 97.8756 112.882H97.0024C96.9259 112.882 96.8654 112.863 96.8271 112.844C96.7889 112.825 96.7698 112.768 96.7698 112.691V107.787C96.7698 107.478 96.8271 107.265 96.9259 107.109C97.0215 106.953 97.235 106.858 97.5665 106.82C97.7035 106.8 97.8405 106.8 97.9935 106.781C98.1305 106.762 98.2835 106.762 98.4205 106.762C98.8858 106.762 99.3319 106.819 99.759 106.937C100.186 107.052 100.575 107.268 100.922 107.558C100.98 107.596 101.002 107.637 101.002 107.676C101.002 107.714 100.983 107.752 100.964 107.79L100.441 108.548C100.403 108.605 100.364 108.643 100.326 108.627C100.288 108.627 100.25 108.589 100.189 108.548C99.9757 108.353 99.7239 108.217 99.4722 108.102C99.2204 108.007 98.9304 107.946 98.6372 107.946C98.5416 107.946 98.462 107.946 98.3632 107.965C98.2676 107.965 98.1879 107.984 98.0923 108.003V112.695C98.0923 112.768 98.0732 112.825 98.0509 112.844Z" fill="#2B2B6E"/>
<path d="M106.378 110.075H105.272C105.135 110.075 105.001 110.075 104.845 110.094C104.689 110.113 104.555 110.152 104.418 110.209C104.281 110.266 104.166 110.384 104.087 110.499C103.991 110.635 103.95 110.807 103.95 111.04C103.95 111.371 104.067 111.603 104.281 111.717C104.495 111.854 104.804 111.912 105.154 111.912C105.212 111.912 105.291 111.912 105.368 111.912C105.463 111.912 105.562 111.893 105.68 111.893C105.776 111.873 105.894 111.854 106.011 111.835C106.126 111.816 106.244 111.778 106.343 111.74V110.072H106.378V110.075ZM107.716 112.224C107.716 112.399 107.64 112.535 107.503 112.593C107.328 112.669 107.152 112.73 106.958 112.787C106.764 112.844 106.572 112.882 106.356 112.905C106.142 112.924 105.948 112.962 105.734 112.962C105.54 112.981 105.349 112.981 105.154 112.981C104.647 112.981 104.243 112.924 103.892 112.828C103.561 112.733 103.29 112.596 103.096 112.421C102.901 112.246 102.764 112.052 102.688 111.819C102.608 111.587 102.57 111.336 102.57 111.084C102.57 110.81 102.608 110.562 102.707 110.308C102.802 110.056 102.939 109.843 103.134 109.649C103.328 109.455 103.58 109.318 103.911 109.203C104.22 109.089 104.609 109.028 105.075 109.028H106.356V108.834C106.356 108.697 106.336 108.564 106.317 108.427C106.279 108.309 106.222 108.194 106.142 108.118C106.046 108.023 105.929 107.962 105.772 107.905C105.619 107.847 105.425 107.828 105.17 107.828C104.918 107.828 104.628 107.847 104.316 107.905C104.007 107.943 103.774 108 103.58 108.061C103.503 108.08 103.443 108.08 103.405 108.08C103.366 108.061 103.347 108.023 103.325 107.965L103.172 107.306C103.134 107.189 103.172 107.112 103.268 107.074C103.599 106.956 103.946 106.861 104.316 106.823C104.705 106.765 105.055 106.746 105.384 106.746C106.18 106.746 106.76 106.921 107.13 107.268C107.5 107.615 107.694 108.121 107.694 108.799V112.23H107.716V112.224Z" fill="#2B2B6E"/>
<path d="M113.657 112.379C113.577 112.593 113.5 112.749 113.405 112.825C113.309 112.901 113.172 112.939 112.959 112.939H112.318C112.143 112.939 112.009 112.901 111.91 112.844C111.815 112.787 111.716 112.631 111.636 112.379L109.791 107.049C109.753 106.953 109.81 106.893 109.909 106.893H110.938C111.018 106.893 111.075 106.893 111.113 106.912C111.152 106.931 111.171 106.969 111.193 107.026L112.066 109.741L112.63 111.679H112.71L113.274 109.741L114.128 107.026C114.147 106.969 114.166 106.931 114.186 106.912C114.205 106.893 114.262 106.874 114.361 106.874H115.361C115.479 106.874 115.518 106.931 115.479 107.026L113.657 112.379Z" fill="#2B2B6E"/>
<path d="M121.028 110.075H119.941C119.804 110.075 119.67 110.075 119.514 110.094C119.358 110.113 119.224 110.152 119.087 110.209C118.95 110.266 118.835 110.384 118.755 110.499C118.66 110.635 118.618 110.807 118.618 111.04C118.618 111.371 118.736 111.603 118.95 111.717C119.163 111.854 119.472 111.912 119.823 111.912C119.88 111.912 119.96 111.912 120.036 111.912C120.132 111.912 120.231 111.893 120.349 111.893C120.444 111.873 120.562 111.854 120.68 111.835C120.795 111.816 120.913 111.778 121.012 111.74V110.072H121.028V110.075ZM122.388 112.224C122.388 112.399 122.309 112.535 122.175 112.593C121.999 112.669 121.827 112.73 121.633 112.787C121.439 112.844 121.244 112.882 121.031 112.905C120.817 112.924 120.623 112.962 120.409 112.962C120.215 112.981 120.02 112.981 119.826 112.981C119.323 112.981 118.915 112.924 118.564 112.828C118.233 112.733 117.962 112.596 117.767 112.421C117.573 112.246 117.436 112.052 117.36 111.819C117.283 111.587 117.245 111.336 117.245 111.084C117.245 110.81 117.283 110.562 117.382 110.308C117.477 110.056 117.614 109.843 117.809 109.649C118.003 109.455 118.255 109.318 118.583 109.203C118.896 109.089 119.281 109.028 119.75 109.028H121.031V108.834C121.031 108.697 121.012 108.564 120.992 108.427C120.954 108.309 120.897 108.194 120.817 108.118C120.722 108.023 120.604 107.962 120.448 107.905C120.291 107.847 120.097 107.828 119.845 107.828C119.593 107.828 119.3 107.847 118.991 107.905C118.679 107.943 118.446 108 118.252 108.061C118.175 108.08 118.115 108.08 118.077 108.08C118.038 108.061 118.019 108.023 118 107.965L117.844 107.306C117.806 107.189 117.844 107.112 117.94 107.074C118.271 106.956 118.618 106.861 118.988 106.823C119.374 106.765 119.724 106.746 120.056 106.746C120.852 106.746 121.432 106.921 121.802 107.268C122.172 107.615 122.366 108.121 122.366 108.799V112.23H122.388V112.224Z" fill="#2B2B6E"/>
<path d="M126.171 109.977C126.171 110.674 126.308 111.18 126.579 111.45C126.85 111.74 127.239 111.877 127.723 111.877C127.876 111.877 128.07 111.857 128.287 111.838C128.5 111.8 128.676 111.759 128.81 111.721V108.057C128.577 108 128.363 107.962 128.188 107.94C128.013 107.921 127.857 107.921 127.704 107.921C127.258 107.921 126.888 108.073 126.598 108.404C126.308 108.697 126.171 109.222 126.171 109.977ZM124.775 109.977C124.775 109.55 124.833 109.143 124.931 108.754C125.027 108.366 125.202 108.019 125.435 107.727C125.667 107.437 125.957 107.205 126.308 107.03C126.655 106.854 127.082 106.756 127.57 106.756C127.726 106.756 127.901 106.756 128.112 106.775C128.325 106.794 128.539 106.832 128.79 106.889V104.738C128.79 104.662 128.81 104.601 128.848 104.582C128.886 104.563 128.943 104.544 129.023 104.544H129.915C129.995 104.544 130.052 104.563 130.072 104.582C130.11 104.601 130.129 104.662 130.129 104.738V112.316C130.129 112.453 130.011 112.589 129.798 112.666C129.584 112.761 129.313 112.822 129.02 112.879C128.73 112.936 128.437 112.959 128.147 112.975C127.857 112.994 127.64 112.994 127.525 112.994C127.019 112.994 126.595 112.917 126.244 112.78C125.894 112.644 125.604 112.434 125.39 112.16C125.177 111.886 125.021 111.577 124.925 111.211C124.833 110.83 124.775 110.422 124.775 109.977Z" fill="#2B2B6E"/>
<path d="M136.748 109.881C136.748 109.61 136.729 109.34 136.691 109.108C136.652 108.856 136.573 108.643 136.477 108.468C136.381 108.274 136.225 108.137 136.05 108.022C135.875 107.905 135.642 107.866 135.371 107.866C135.119 107.866 134.906 107.924 134.731 108.022C134.555 108.118 134.399 108.274 134.265 108.449C134.151 108.624 134.052 108.834 133.995 109.089C133.937 109.34 133.918 109.591 133.918 109.884C133.918 110.524 134.014 111.027 134.227 111.377C134.441 111.746 134.791 111.921 135.333 111.921C135.604 111.921 135.817 111.864 136.012 111.746C136.187 111.628 136.343 111.495 136.458 111.3C136.573 111.125 136.652 110.912 136.691 110.661C136.71 110.403 136.748 110.152 136.748 109.881ZM138.105 109.862C138.105 110.868 137.873 111.644 137.408 112.185C136.942 112.729 136.241 113 135.311 113C134.38 113 133.701 112.729 133.255 112.204C132.809 111.682 132.576 110.906 132.576 109.878C132.576 109.375 132.653 108.929 132.79 108.541C132.927 108.156 133.121 107.825 133.354 107.551C133.606 107.281 133.896 107.087 134.227 106.931C134.559 106.794 134.944 106.718 135.352 106.718C136.264 106.718 136.945 106.988 137.411 107.551C137.873 108.137 138.105 108.891 138.105 109.862Z" fill="#2B2B6E"/>
<path d="M144.839 111.199C144.839 111.511 144.782 111.762 144.664 111.994C144.546 112.227 144.393 112.421 144.179 112.558C143.966 112.695 143.733 112.809 143.462 112.889C143.192 112.968 142.882 113.006 142.57 113.006C142.395 113.006 142.185 113.006 141.99 112.987C141.777 112.968 141.582 112.949 141.369 112.911C141.155 112.873 140.961 112.815 140.766 112.755C140.572 112.698 140.397 112.618 140.244 112.523C140.126 112.465 140.107 112.37 140.164 112.252L140.438 111.612C140.476 111.533 140.515 111.495 140.553 111.476C140.591 111.457 140.649 111.476 140.728 111.495C141.002 111.632 141.311 111.727 141.64 111.803C141.971 111.883 142.28 111.921 142.532 111.921C142.844 111.921 143.096 111.864 143.249 111.727C143.405 111.59 143.482 111.437 143.482 111.243C143.482 111.03 143.386 110.858 143.172 110.721C142.959 110.585 142.65 110.451 142.239 110.295C141.93 110.18 141.659 110.063 141.426 109.948C141.193 109.83 140.999 109.716 140.843 109.56C140.687 109.423 140.572 109.27 140.492 109.095C140.416 108.92 140.378 108.726 140.378 108.494C140.378 108.242 140.416 108.01 140.515 107.793C140.61 107.58 140.747 107.408 140.923 107.252C141.098 107.096 141.33 106.982 141.601 106.883C141.872 106.788 142.185 106.746 142.532 106.746C142.863 106.746 143.172 106.765 143.482 106.823C143.813 106.88 144.103 106.979 144.412 107.093C144.469 107.131 144.508 107.173 144.53 107.211C144.549 107.249 144.53 107.306 144.53 107.367L144.259 108.026C144.24 108.083 144.202 108.121 144.179 108.121C144.141 108.121 144.103 108.121 144.042 108.102C143.752 108.007 143.478 107.927 143.268 107.889C143.035 107.851 142.803 107.832 142.551 107.832C142.261 107.832 142.067 107.889 141.93 108.007C141.793 108.121 141.735 108.258 141.735 108.395C141.735 108.509 141.754 108.589 141.793 108.665C141.831 108.742 141.907 108.821 141.987 108.879C142.063 108.936 142.2 109.016 142.357 109.073C142.513 109.152 142.688 109.21 142.898 109.286C143.15 109.382 143.383 109.48 143.615 109.576C143.848 109.671 144.062 109.808 144.237 109.945C144.412 110.082 144.568 110.254 144.664 110.467C144.801 110.674 144.839 110.928 144.839 111.199Z" fill="#2B2B6E"/>
<path d="M34.1687 85.0349C35.9342 85.0349 37.7188 85.0349 39.4842 85.0349C40.9597 85.0158 41.8902 84.0865 41.9094 82.6129C41.9285 81.1808 40.9788 80.0733 39.5798 80.0542C36.4154 80.016 33.2541 80.016 30.0896 80.0542C28.7894 80.0733 27.878 81.0439 27.8206 82.3615C27.8015 82.9821 27.8397 83.5836 27.8015 84.2042C27.7633 84.8248 27.9959 85.0572 28.6364 85.0572C30.5007 85.0158 32.3235 85.0349 34.1687 85.0349ZM34.5766 89.0067C32.6741 89.0067 30.7525 89.0258 28.8531 88.9876C28.0564 88.9685 27.7664 89.2581 27.8047 90.0729C27.862 91.0626 27.862 92.0683 27.8047 93.0772C27.7664 93.8919 28.0564 94.1434 28.8531 94.1434C32.1929 94.1052 35.5103 94.1625 38.8469 94.1052C39.8157 94.0861 40.128 94.3566 40.1088 95.3432C40.0515 98.077 40.0897 98.077 37.3714 98.077C34.8475 98.077 32.3267 98.0961 29.8028 98.077C26.718 98.0579 23.9041 95.2668 23.8849 92.1861C23.8658 88.8317 23.8658 85.4804 23.8849 82.1101C23.9041 78.9116 26.718 76.1428 29.9207 76.1205C33.1808 76.1014 36.4409 76.1014 39.7201 76.1205C43.098 76.1396 45.8514 78.9689 45.8705 82.4379C45.8897 86.1392 43.3275 88.9303 39.8157 88.9876C38.0693 89.0258 36.3229 88.9876 34.5766 88.9876V89.0067Z" fill="#404041"/>
<path d="M126.792 87.0112C126.792 88.5611 126.773 90.111 126.792 91.6609C126.812 93.0581 127.685 93.9492 129.103 93.9492C131.818 93.9683 134.536 93.9683 137.251 93.9492C138.647 93.9492 139.562 93.039 139.562 91.6419C139.581 88.5802 139.581 85.5186 139.562 82.4347C139.562 81.0185 138.631 80.0701 137.194 80.051C134.517 80.0128 131.84 80.0319 129.141 80.051C127.704 80.0701 126.792 80.9994 126.792 82.4347C126.773 83.9687 126.792 85.4995 126.792 87.0112ZM143.52 87.0303C143.52 88.6375 143.539 90.2479 143.52 91.8742C143.482 95.0727 141.037 97.7269 137.854 97.8829C134.826 98.0197 131.78 98.0388 128.752 97.9019C125.26 97.7651 122.873 95.1299 122.854 91.6228C122.834 88.5229 122.834 85.4231 122.854 82.3392C122.873 78.7938 125.569 76.1396 129.141 76.1396C131.856 76.1396 134.575 76.1205 137.274 76.1396C140.766 76.1587 143.462 78.832 143.504 82.3201C143.52 83.8732 143.501 85.4613 143.52 87.0303Z" fill="#404041"/>
<path d="M146.296 86.9539C146.296 83.7554 146.334 80.5601 146.276 77.3617C146.257 76.4292 146.49 76.0823 147.5 76.0823C151.923 76.1396 156.369 76.1014 160.792 76.1014C164.208 76.1014 166.965 78.8352 166.984 82.2437C167.003 87.1289 166.965 91.9919 167.003 96.8771C167.003 97.6728 166.751 97.9242 165.955 97.9242C163.064 97.9051 163.064 97.9433 163.064 95.0376C163.064 90.9289 163.064 86.8393 163.064 82.7306C163.064 80.9293 162.191 80.0573 160.387 80.0573C157.341 80.0382 154.313 80.0764 151.267 80.0382C150.508 80.0382 150.26 80.2705 150.276 81.0471C150.295 86.2792 150.257 91.5113 150.295 96.7435C150.295 97.6728 150.005 98.0419 149.071 97.9242C148.526 97.8669 147.965 97.8669 147.42 97.9242C146.586 98.0006 146.292 97.6919 146.292 96.8389C146.334 93.5418 146.315 90.2478 146.296 86.9539Z" fill="#404041"/>
<path d="M102.031 89.5317C102.031 92.0109 102.012 94.5124 102.05 96.9916C102.069 97.8446 101.779 98.096 100.944 98.0769C98.1496 98.0387 98.1496 98.0769 98.1496 95.2858C98.1496 93.5799 98.1305 91.855 98.1496 90.1491C98.1496 89.4521 97.9744 89.1021 97.1586 89.1212C94.5773 89.1593 91.9769 89.1212 89.3956 89.1402C87.9615 89.1593 87.0278 90.0886 87.0087 91.5049C86.9895 93.4017 86.9895 95.324 87.0087 97.2208C87.0087 97.8414 86.8143 98.0928 86.1737 98.0737C85.3611 98.0355 84.5644 98.0355 83.7486 98.0737C83.2451 98.0928 83.0507 97.8987 83.0507 97.3958C83.0698 95.168 82.9933 92.937 83.0889 90.7092C83.226 87.8386 86.0367 85.2416 88.9112 85.2257C91.5881 85.2066 94.2873 85.1875 96.9642 85.2257C97.8756 85.2448 98.1688 84.8756 98.1465 84.045C98.1082 83.0743 98.1082 82.1068 98.1465 81.1393C98.1656 80.3627 97.8756 80.0349 97.0598 80.054C94.6346 80.0922 92.2095 80.054 89.7812 80.0731C89.0641 80.0922 88.7901 79.8599 88.8315 79.1438C88.8889 78.3673 88.7933 77.5939 88.8697 76.8174C88.8889 76.5659 89.2394 76.1395 89.4338 76.1395C91.9769 76.1395 94.5581 75.9835 97.0821 76.3145C99.9342 76.6837 101.932 79.2011 101.993 82.0877C102.069 84.5701 102.012 87.0493 102.031 89.5317Z" fill="#404041"/>
<path d="M109.326 87.0303C109.326 88.4465 109.307 89.8787 109.326 91.2917C109.345 93.1153 110.18 93.9651 111.983 93.9651C114.447 93.9651 116.894 93.9842 119.358 93.9651C120.094 93.946 120.444 94.1401 120.387 94.9357C120.33 95.6327 120.349 96.352 120.387 97.0681C120.425 97.746 120.135 97.9783 119.476 97.9783C116.76 97.9592 114.042 98.0165 111.327 97.9401C108.048 97.8446 105.466 95.2285 105.409 91.9505C105.352 88.6566 105.352 85.3626 105.409 82.0687C105.466 78.8511 108.28 76.1396 111.502 76.1396C114.122 76.1205 116.741 76.1777 119.361 76.1205C120.196 76.1014 120.448 76.4101 120.39 77.1866C120.352 77.8263 120.333 78.4851 120.39 79.1248C120.467 79.9204 120.119 80.1146 119.38 80.0955C116.917 80.0573 114.469 80.0764 112.006 80.0955C110.259 80.1146 109.348 81.0439 109.326 82.807C109.326 84.1819 109.326 85.5981 109.326 87.0303Z" fill="#404041"/>
<path d="M12.9765 98.0578C11.8484 98.0578 10.784 98.096 9.71647 98.0387C9.52208 98.0196 9.19384 97.6918 9.15241 97.4754C9.07593 96.8739 9.11417 96.2533 9.11417 95.6327C9.11417 90.8843 9.11417 86.1359 9.11417 81.4067C9.11417 80.0509 9.11417 80.0509 7.69605 80.0509C5.42707 80.0509 3.17402 80.0318 0.905029 80.07C0.226245 80.0891 0.0127304 79.8567 0.0127304 79.1789C-0.0446317 76.0981 -0.0637523 76.0981 3.00193 76.1172C8.9389 76.1172 14.8982 76.1363 20.8351 76.0981C21.7657 76.0981 22.0398 76.3496 22.0398 77.3012C22.0015 80.0541 22.0397 80.0541 19.2449 80.0732C17.556 80.0732 15.8861 80.1114 14.2003 80.0541C13.3271 80.0159 13.0339 80.2673 13.0339 81.1775C13.0722 86.3715 13.053 91.5654 13.053 96.7593C13.0562 97.1667 13.018 97.5741 12.9765 98.0578Z" fill="#404041"/>
<path d="M58.3659 76.1014C61.7056 76.1014 65.0231 76.1205 68.3596 76.0823C69.0958 76.0823 69.4463 76.2573 69.3667 77.0498C69.3093 77.7277 69.3093 78.4056 69.3667 79.0834C69.4463 79.8791 69.0958 80.0541 68.3596 80.0541C66.0683 80.0159 63.7802 80.0732 61.4698 80.0159C60.6349 79.9968 60.3035 80.2483 60.3035 81.0821C60.3417 86.276 60.3417 91.47 60.3831 96.6639C60.4022 98.061 60.4405 98.061 59.0447 98.061C56.4443 98.061 56.4443 98.061 56.4443 95.5023C56.4443 90.7539 56.4251 86.0055 56.4634 81.2762C56.4634 80.3055 56.1734 79.9968 55.2014 80.0159C52.9133 80.0732 50.622 79.9968 48.3116 80.0541C47.5149 80.0732 47.2823 79.8218 47.3428 79.0643C47.4384 78.1159 47.1102 76.8557 47.6137 76.2923C48.0407 75.8086 49.3792 76.0982 50.2906 76.0982C53.0121 76.1014 55.689 76.1014 58.3659 76.1014Z" fill="#404041"/>
<path d="M75.5617 89.7833C75.5617 92.2052 75.5426 94.6303 75.5809 97.0522C75.6 97.7906 75.3673 98.0229 74.6312 97.9624C73.9333 97.9051 73.2131 97.9242 72.4961 97.9433C71.8173 97.9815 71.6038 97.6728 71.6038 97.014C71.6229 92.0142 71.5846 86.9953 71.6229 81.9924C71.642 78.9116 74.3763 76.1587 77.4642 76.1014C80.1794 76.0441 82.8977 76.1014 85.6128 76.0823C86.2151 76.0823 86.5243 76.2351 86.5051 76.8971C86.486 77.6704 86.486 78.447 86.5051 79.2203C86.5243 79.86 86.2534 80.0542 85.632 80.0351C83.1686 80.016 80.7211 80.016 78.2578 80.0351C76.454 80.0351 75.5809 80.888 75.5617 82.6893C75.5426 85.0731 75.5617 87.4377 75.5617 89.7833Z" fill="#404041"/>
</g>
<defs>
<clipPath id="clip0">
<rect width="167" height="113" fill="white"/>
</clipPath>
</defs>
</svg>
