<svg width="250" height="68" viewBox="0 0 250 68" fill="none" xmlns="http://www.w3.org/2000/svg">
<g clip-path="url(#clip0)">
<path d="M107.941 46.4857C107.941 46.3488 107.922 46.212 107.884 46.0592C107.846 45.9032 107.769 45.7696 107.671 45.6327C107.575 45.515 107.419 45.4004 107.243 45.3208C107.068 45.2445 106.836 45.2063 106.546 45.2063H104.857V47.746H106.565C107.049 47.746 107.4 47.6282 107.613 47.3959C107.846 47.1444 107.941 46.8548 107.941 46.4857ZM104.837 51.721C104.837 51.8355 104.818 51.896 104.78 51.9151C104.742 51.9342 104.685 51.9533 104.567 51.9533H103.713C103.633 51.9533 103.556 51.9342 103.518 51.9151C103.48 51.896 103.438 51.8196 103.438 51.721V44.5888C103.438 44.3756 103.477 44.2197 103.576 44.1051C103.671 43.9905 103.827 43.9301 104.082 43.9301H106.797C107.186 43.9301 107.537 43.9873 107.846 44.1051C108.155 44.2229 108.429 44.3947 108.662 44.6111C108.894 44.8244 109.07 45.0949 109.184 45.3845C109.299 45.6964 109.379 46.0051 109.379 46.3743C109.379 46.5875 109.34 46.8198 109.283 47.1126C109.226 47.4022 109.089 47.6759 108.894 47.9464C108.7 48.217 108.429 48.4302 108.078 48.6243C107.731 48.8185 107.263 48.898 106.702 48.898H104.841V51.721H104.837Z" fill="white"/>
<path d="M113.18 51.7782C113.18 51.8545 113.161 51.915 113.123 51.9309C113.085 51.95 113.028 51.9691 112.948 51.9691H112.075C111.998 51.9691 111.938 51.95 111.899 51.9309C111.861 51.9118 111.842 51.8545 111.842 51.7782V46.1769C111.842 46.1005 111.861 46.04 111.899 46.0241C111.938 46.005 111.995 45.9859 112.075 45.9859H112.948C113.024 45.9859 113.085 46.005 113.123 46.0241C113.161 46.0432 113.18 46.1005 113.18 46.1769V51.7782ZM113.356 44.4137C113.356 44.6461 113.279 44.8402 113.123 44.993C112.97 45.1489 112.776 45.2253 112.543 45.2253C112.31 45.2253 112.116 45.1489 111.96 44.993C111.804 44.8402 111.727 44.6461 111.727 44.4137C111.727 44.1814 111.804 43.9873 111.96 43.8313C112.116 43.6754 112.31 43.599 112.543 43.599C112.776 43.599 112.97 43.6754 113.123 43.8313C113.279 43.9873 113.356 44.1814 113.356 44.4137Z" fill="white"/>
<path d="M120.399 50.2855C120.399 50.5974 120.341 50.8488 120.223 51.0812C120.105 51.3135 119.952 51.5076 119.739 51.6445C119.525 51.7813 119.293 51.8959 119.022 51.9755C118.751 52.055 118.442 52.0932 118.13 52.0932C117.954 52.0932 117.76 52.0932 117.55 52.0741C117.336 52.055 117.142 52.0359 116.928 51.9978C116.715 51.9596 116.52 51.9023 116.326 51.8418C116.131 51.7845 115.956 51.705 115.803 51.6095C115.685 51.5522 115.666 51.4567 115.724 51.339L115.994 50.6993C116.033 50.6197 116.074 50.5815 116.112 50.5624C116.151 50.5433 116.208 50.5624 116.288 50.5815C116.562 50.7184 116.871 50.8138 117.199 50.8902C117.53 50.9698 117.84 51.008 118.091 51.008C118.404 51.008 118.655 50.9507 118.808 50.8138C118.965 50.6993 119.041 50.5242 119.041 50.3301C119.041 50.1169 118.945 49.945 118.732 49.8081C118.518 49.6713 118.209 49.5376 117.798 49.3817C117.489 49.2671 117.218 49.1494 116.986 49.0348C116.753 48.917 116.558 48.8025 116.402 48.6465C116.246 48.5097 116.131 48.3569 116.052 48.1819C115.975 48.0068 115.937 47.8127 115.937 47.5804C115.937 47.3289 115.975 47.0966 116.074 46.8802C116.17 46.667 116.307 46.4951 116.482 46.3392C116.657 46.1832 116.89 46.0686 117.161 45.97C117.432 45.8745 117.741 45.8331 118.091 45.8331C118.404 45.8331 118.732 45.8522 119.041 45.9095C119.35 45.9668 119.662 46.0655 119.972 46.18C120.029 46.2182 120.067 46.2596 120.089 46.2978C120.109 46.336 120.089 46.3933 120.089 46.4537L119.819 47.1125C119.799 47.1698 119.761 47.208 119.739 47.208C119.701 47.208 119.662 47.208 119.602 47.1889C119.312 47.0934 119.038 47.0139 118.824 46.9757C118.592 46.9375 118.359 46.9184 118.107 46.9184C117.817 46.9184 117.623 46.9757 117.486 47.0934C117.349 47.208 117.291 47.3448 117.291 47.4817C117.291 47.5963 117.311 47.6758 117.349 47.7522C117.387 47.8286 117.464 47.9082 117.543 47.9654C117.639 48.0227 117.757 48.1023 117.913 48.1596C118.069 48.2391 118.244 48.2964 118.455 48.3728C118.706 48.4683 118.939 48.5669 119.172 48.6624C119.404 48.7579 119.618 48.8948 119.793 49.0316C119.968 49.1685 120.125 49.3403 120.22 49.5535C120.341 49.7604 120.399 50.015 120.399 50.2855Z" fill="white"/>
<path d="M126.648 48.9679C126.648 48.6974 126.629 48.4269 126.59 48.1945C126.552 47.9431 126.476 47.7299 126.377 47.5549C126.281 47.3607 126.125 47.2239 125.95 47.1093C125.775 46.9915 125.542 46.9533 125.271 46.9533C125.019 46.9533 124.806 47.0106 124.631 47.1093C124.455 47.2048 124.299 47.3607 124.165 47.5358C124.051 47.7108 123.952 47.9208 123.894 48.1754C123.837 48.4269 123.818 48.6783 123.818 48.9711C123.818 49.6108 123.914 50.1136 124.127 50.4637C124.341 50.8329 124.691 51.0079 125.233 51.0079C125.504 51.0079 125.717 50.9506 125.912 50.8329C126.087 50.7151 126.243 50.5815 126.358 50.3873C126.476 50.2123 126.552 49.9991 126.59 49.7476C126.629 49.4898 126.648 49.2384 126.648 48.9679ZM128.028 48.9488C128.028 49.9545 127.795 50.7311 127.327 51.2721C126.861 51.8163 126.163 52.0868 125.233 52.0868C124.302 52.0868 123.624 51.8163 123.174 51.2912C122.728 50.7692 122.495 49.9927 122.495 48.9647C122.495 48.4619 122.572 48.0163 122.709 47.628C122.846 47.243 123.04 46.912 123.273 46.6383C123.525 46.3678 123.818 46.1736 124.146 46.0177C124.478 45.8808 124.863 45.8044 125.271 45.8044C126.183 45.8044 126.861 46.075 127.327 46.6383C127.773 47.2239 128.028 47.9781 128.028 48.9488Z" fill="white"/>
<path d="M134.761 50.2855C134.761 50.5974 134.704 50.8488 134.586 51.0812C134.468 51.3135 134.315 51.5076 134.102 51.6445C133.888 51.7813 133.656 51.8959 133.385 51.9755C133.114 52.055 132.805 52.0932 132.492 52.0932C132.317 52.0932 132.123 52.0932 131.912 52.0741C131.699 52.055 131.504 52.0359 131.291 51.9978C131.077 51.9596 130.883 51.9023 130.689 51.8418C130.494 51.7845 130.319 51.705 130.166 51.6095C130.051 51.5522 130.029 51.4567 130.09 51.339L130.36 50.6993C130.399 50.6197 130.44 50.5815 130.478 50.5624C130.517 50.5433 130.574 50.5624 130.654 50.5815C130.924 50.7184 131.237 50.8138 131.565 50.8902C131.896 50.9698 132.206 51.008 132.457 51.008C132.766 51.008 133.021 50.9507 133.174 50.8138C133.331 50.6993 133.407 50.5242 133.407 50.3301C133.407 50.1169 133.311 49.945 133.095 49.8081C132.881 49.6713 132.572 49.5376 132.164 49.3817C131.855 49.2671 131.581 49.1494 131.348 49.0348C131.116 48.917 130.921 48.8025 130.768 48.6465C130.612 48.5097 130.497 48.3569 130.418 48.1819C130.341 48.0068 130.303 47.8127 130.303 47.5804C130.303 47.3289 130.341 47.0966 130.44 46.8802C130.536 46.667 130.673 46.4951 130.848 46.3392C131.023 46.1832 131.256 46.0686 131.527 45.97C131.798 45.8745 132.107 45.8331 132.457 45.8331C132.766 45.8331 133.098 45.8522 133.407 45.9095C133.716 45.9668 134.028 46.0655 134.338 46.18C134.395 46.2182 134.433 46.2596 134.455 46.2978C134.475 46.336 134.455 46.3933 134.455 46.4537L134.181 47.1125C134.162 47.1698 134.124 47.208 134.105 47.208C134.067 47.208 134.028 47.208 133.968 47.1889C133.678 47.0934 133.404 47.0139 133.19 46.9757C132.958 46.9375 132.725 46.9184 132.473 46.9184C132.183 46.9184 131.989 46.9757 131.852 47.0934C131.715 47.208 131.657 47.3448 131.657 47.4817C131.657 47.5963 131.677 47.6758 131.715 47.7522C131.753 47.8286 131.83 47.9082 131.909 47.9654C132.005 48.0227 132.123 48.1023 132.279 48.1596C132.432 48.2391 132.61 48.2964 132.821 48.3728C133.072 48.4683 133.305 48.5669 133.538 48.6624C133.77 48.7579 133.984 48.8948 134.159 49.0316C134.334 49.1685 134.49 49.3403 134.586 49.5535C134.701 49.7604 134.761 50.015 134.761 50.2855Z" fill="white"/>
<path d="M143.028 51.931C142.99 51.9501 142.913 51.9692 142.814 51.9692H141.941C141.846 51.9692 141.785 51.9501 141.747 51.931C141.709 51.8928 141.689 51.8355 141.689 51.7368V44.2196C141.689 44.1242 141.709 44.0637 141.747 44.0255C141.785 43.9873 141.865 43.9873 141.941 43.9873H142.814C142.91 43.9873 142.99 44.0064 143.028 44.0255C143.066 44.0446 143.085 44.121 143.085 44.2196V51.7368C143.066 51.8355 143.047 51.8928 143.028 51.931Z" fill="white"/>
<path d="M148.168 46.9694C148.092 46.9694 147.955 46.9694 147.798 46.9694C147.642 46.9694 147.467 46.9885 147.254 47.0267V51.7559C147.254 51.8323 147.234 51.8928 147.215 51.9119C147.177 51.931 147.12 51.9501 147.04 51.9501H146.148C146.071 51.9501 146.011 51.931 145.972 51.9119C145.934 51.8928 145.915 51.8323 145.915 51.7559V46.8707C145.915 46.6002 145.972 46.387 146.071 46.231C146.167 46.0751 146.38 45.9796 146.693 45.9223C146.772 45.9223 146.868 45.9032 147.005 45.8841C147.142 45.865 147.276 45.865 147.413 45.8459C147.55 45.8459 147.703 45.8268 147.84 45.8268C147.977 45.8268 148.092 45.8077 148.19 45.8077C148.694 45.8077 149.121 45.865 149.491 45.9637C149.86 46.0592 150.169 46.2342 150.402 46.4665C150.635 46.6989 150.81 47.0108 150.925 47.3767C151.039 47.7459 151.1 48.1915 151.1 48.7325V51.7559C151.1 51.8323 151.081 51.8928 151.062 51.9119C151.024 51.931 150.985 51.9501 150.886 51.9501H149.994C149.915 51.9501 149.857 51.931 149.838 51.9119C149.819 51.8928 149.781 51.8323 149.781 51.7559V48.7134C149.781 48.4238 149.762 48.1501 149.704 47.9401C149.647 47.7268 149.567 47.5327 149.452 47.3958C149.338 47.259 149.162 47.1444 148.949 47.0649C148.751 47.0108 148.5 46.9694 148.168 46.9694Z" fill="white"/>
<path d="M157.387 51.8164C157.387 51.8546 157.349 51.8737 157.27 51.9119C157.018 51.9882 156.747 52.0487 156.495 52.0646C156.243 52.0837 156.03 52.0837 155.893 52.0837C155.271 52.0837 154.825 51.9469 154.574 51.6763C154.322 51.4026 154.185 50.9985 154.185 50.4542V46.9662H153.369C153.292 46.9662 153.232 46.9471 153.213 46.9089C153.194 46.8707 153.194 46.8293 153.194 46.772V46.3074C153.194 46.231 153.213 46.1928 153.232 46.1546C153.251 46.1164 153.308 46.0973 153.388 46.0751L154.261 45.8809L154.417 44.7957C154.437 44.7193 154.456 44.6588 154.494 44.6206C154.532 44.5824 154.589 44.5633 154.669 44.5251L155.329 44.2928C155.386 44.2737 155.444 44.2928 155.482 44.3119C155.52 44.331 155.539 44.3883 155.539 44.487V45.9414H156.763C156.839 45.9414 156.9 45.9605 156.919 45.9987C156.938 46.0369 156.938 46.075 156.938 46.1355V46.7752C156.938 46.8516 156.938 46.8898 156.919 46.928C156.9 46.9662 156.839 46.9662 156.763 46.9662H155.539V50.2792C155.539 50.5306 155.596 50.6866 155.714 50.782C155.832 50.8775 156.004 50.9189 156.237 50.9189C156.275 50.9189 156.333 50.9189 156.412 50.9189C156.489 50.9189 156.565 50.9189 156.645 50.8998C156.721 50.8998 156.798 50.8807 156.878 50.8807C156.954 50.8616 157.031 50.8616 157.072 50.8616C157.148 50.8425 157.187 50.8425 157.225 50.8616C157.244 50.8807 157.263 50.9189 157.263 50.9762L157.381 51.7145C157.407 51.7591 157.407 51.7973 157.387 51.8164Z" fill="white"/>
<path d="M161.929 46.9503C161.715 46.9503 161.54 46.9885 161.384 47.0649C161.231 47.1445 161.094 47.2591 160.976 47.3959C160.858 47.5328 160.762 47.6855 160.705 47.8606C160.625 48.0356 160.587 48.2075 160.587 48.4016H163.226C163.226 48.1884 163.207 48.0133 163.168 47.8383C163.13 47.6632 163.073 47.5073 162.974 47.3736C162.878 47.2368 162.741 47.1413 162.585 47.0617C162.394 46.9694 162.18 46.9503 161.929 46.9503ZM161.91 45.8269C162.783 45.8269 163.442 46.0592 163.85 46.5048C164.277 46.9503 164.491 47.5709 164.491 48.3475C164.491 48.5416 164.472 48.7167 164.411 48.8312C164.373 48.9681 164.296 49.0636 164.217 49.1399C164.14 49.2195 164.042 49.2768 163.927 49.2959C163.812 49.3341 163.694 49.3341 163.557 49.3341H160.511C160.511 49.6237 160.568 49.8783 160.648 50.0915C160.724 50.2857 160.842 50.4607 160.998 50.5753C161.135 50.693 161.307 50.7885 161.502 50.8458C161.696 50.9031 161.89 50.9254 162.123 50.9254C162.375 50.9254 162.607 50.8872 162.84 50.8299C163.073 50.7726 163.286 50.693 163.462 50.6167C163.579 50.5594 163.675 50.5785 163.713 50.6962L164.022 51.355C164.08 51.4696 164.042 51.5682 163.946 51.6255C163.656 51.8006 163.344 51.9151 162.996 51.9947C162.649 52.0711 162.317 52.0902 162.005 52.0902C161.075 52.0902 160.377 51.8388 159.889 51.355C159.405 50.849 159.153 50.0756 159.153 49.0095C159.153 48.5066 159.229 48.0611 159.367 47.6728C159.504 47.2845 159.698 46.9567 159.931 46.683C160.163 46.4093 160.453 46.1993 160.785 46.0624C161.151 45.9065 161.502 45.8269 161.91 45.8269Z" fill="white"/>
<path d="M168.235 51.931C168.197 51.9501 168.14 51.9692 168.06 51.9692H167.187C167.11 51.9692 167.05 51.9501 167.012 51.931C166.973 51.9119 166.954 51.8546 166.954 51.7782V46.8739C166.954 46.5652 167.012 46.352 167.11 46.196C167.206 46.0401 167.423 45.9446 167.751 45.9064C167.888 45.8873 168.022 45.8873 168.178 45.8682C168.334 45.8491 168.468 45.8491 168.605 45.8491C169.07 45.8491 169.516 45.9064 169.943 46.0242C170.37 46.1387 170.759 46.3551 171.107 46.6448C171.164 46.683 171.186 46.7243 171.186 46.7625C171.186 46.8007 171.167 46.8389 171.148 46.8771L170.625 47.6345C170.587 47.6918 170.546 47.73 170.507 47.7141C170.469 47.7141 170.431 47.6759 170.37 47.6345C170.157 47.4404 169.905 47.3036 169.653 47.189C169.402 47.0935 169.112 47.033 168.818 47.033C168.723 47.033 168.643 47.033 168.548 47.0521C168.452 47.0521 168.372 47.0712 168.274 47.0903V51.7814C168.293 51.8546 168.274 51.9119 168.235 51.931Z" fill="white"/>
<path d="M176.658 51.8164C176.658 51.8546 176.62 51.8737 176.54 51.9119C176.288 51.9882 176.017 52.0487 175.766 52.0646C175.514 52.0837 175.3 52.0837 175.163 52.0837C174.542 52.0837 174.096 51.9469 173.844 51.6763C173.592 51.4026 173.455 50.9985 173.455 50.4542V46.9662H172.639C172.563 46.9662 172.502 46.9471 172.483 46.9089C172.464 46.8707 172.464 46.8293 172.464 46.772V46.3074C172.464 46.231 172.483 46.1928 172.502 46.1546C172.522 46.1164 172.579 46.0973 172.659 46.0751L173.532 45.8809L173.688 44.7957C173.707 44.7193 173.726 44.6588 173.764 44.6206C173.803 44.5824 173.86 44.5633 173.94 44.5251L174.599 44.2928C174.657 44.2737 174.717 44.2928 174.755 44.3119C174.794 44.331 174.813 44.3883 174.813 44.487V45.9414H176.037C176.113 45.9414 176.174 45.9605 176.193 45.9987C176.212 46.0369 176.212 46.075 176.212 46.1355V46.7752C176.212 46.8516 176.212 46.8898 176.193 46.928C176.174 46.9662 176.113 46.9662 176.037 46.9662H174.775V50.2792C174.775 50.5306 174.832 50.6866 174.95 50.782C175.068 50.8775 175.24 50.9189 175.473 50.9189C175.511 50.9189 175.568 50.9189 175.648 50.9189C175.727 50.9189 175.804 50.9189 175.88 50.8998C175.96 50.8998 176.037 50.8807 176.113 50.8807C176.193 50.8616 176.269 50.8616 176.307 50.8616C176.387 50.8425 176.425 50.8425 176.464 50.8616C176.483 50.8807 176.502 50.9189 176.502 50.9762L176.62 51.7145C176.658 51.7591 176.658 51.7973 176.658 51.8164Z" fill="white"/>
<path d="M180.052 51.931C180.014 51.9501 179.956 51.9692 179.877 51.9692H179.003C178.927 51.9692 178.866 51.9501 178.828 51.931C178.79 51.9119 178.771 51.8546 178.771 51.7782V46.8739C178.771 46.5652 178.828 46.352 178.927 46.196C179.023 46.0401 179.236 45.9446 179.568 45.9064C179.705 45.8873 179.842 45.8873 179.995 45.8682C180.132 45.8491 180.285 45.8491 180.422 45.8491C180.887 45.8491 181.333 45.9064 181.76 46.0242C182.187 46.1387 182.576 46.3551 182.923 46.6448C182.981 46.683 183.003 46.7243 183.003 46.7625C183.003 46.8007 182.984 46.8389 182.965 46.8771L182.442 47.6345C182.404 47.6918 182.365 47.73 182.327 47.7141C182.289 47.7141 182.251 47.6759 182.19 47.6345C181.977 47.4404 181.725 47.3036 181.473 47.189C181.221 47.0935 180.931 47.033 180.638 47.033C180.543 47.033 180.463 47.033 180.364 47.0521C180.269 47.0521 180.189 47.0712 180.093 47.0903V51.7814C180.093 51.8546 180.074 51.9119 180.052 51.931Z" fill="white"/>
<path d="M188.379 49.1621H187.273C187.136 49.1621 187.002 49.1621 186.846 49.1812C186.69 49.2003 186.556 49.2385 186.419 49.2958C186.282 49.353 186.167 49.4708 186.088 49.5854C185.992 49.7222 185.951 49.8941 185.951 50.1264C185.951 50.4574 186.069 50.6897 186.282 50.8043C186.496 50.9411 186.805 50.9984 187.155 50.9984C187.213 50.9984 187.292 50.9984 187.369 50.9984C187.464 50.9984 187.563 50.9793 187.681 50.9793C187.777 50.9602 187.895 50.9411 188.012 50.922C188.127 50.9029 188.245 50.8648 188.344 50.8266V49.1589H188.379V49.1621ZM189.717 51.3103C189.717 51.4854 189.641 51.6222 189.504 51.6795C189.329 51.7559 189.153 51.8163 188.959 51.8736C188.765 51.9309 188.573 51.9691 188.357 51.9914C188.143 52.0105 187.949 52.0487 187.735 52.0487C187.541 52.0678 187.35 52.0678 187.155 52.0678C186.649 52.0678 186.244 52.0105 185.893 51.915C185.562 51.8195 185.291 51.6827 185.097 51.5076C184.902 51.3326 184.765 51.1385 184.689 50.9061C184.609 50.6738 184.571 50.4224 184.571 50.171C184.571 49.8973 184.609 49.649 184.708 49.3944C184.803 49.143 184.94 48.9298 185.135 48.7356C185.329 48.5415 185.581 48.4046 185.912 48.2901C186.222 48.1755 186.61 48.115 187.076 48.115H188.357V47.9209C188.357 47.784 188.338 47.6504 188.318 47.5135C188.28 47.3958 188.223 47.2812 188.143 47.2048C188.048 47.1093 187.93 47.0489 187.773 46.9916C187.62 46.9343 187.426 46.9152 187.171 46.9152C186.919 46.9152 186.629 46.9343 186.317 46.9916C186.008 47.0298 185.775 47.0871 185.581 47.1475C185.504 47.1666 185.444 47.1666 185.406 47.1666C185.367 47.1475 185.348 47.1093 185.326 47.052L185.173 46.3933C185.135 46.2755 185.173 46.1991 185.269 46.1609C185.6 46.0432 185.947 45.9477 186.317 45.9095C186.706 45.8522 187.056 45.8331 187.385 45.8331C188.181 45.8331 188.761 46.0082 189.131 46.3551C189.501 46.702 189.695 47.208 189.695 47.8859V51.3167H189.717V51.3103Z" fill="white"/>
<path d="M195.658 51.4663C195.578 51.6795 195.501 51.8355 195.406 51.9118C195.31 51.9882 195.173 52.0264 194.96 52.0264H194.319C194.144 52.0264 194.01 51.9882 193.911 51.9309C193.816 51.8736 193.717 51.7177 193.637 51.4663L191.792 46.1355C191.754 46.04 191.811 45.9795 191.91 45.9795H192.939C193.019 45.9795 193.076 45.9795 193.114 45.9986C193.153 46.0177 193.172 46.0559 193.194 46.1132L194.067 48.8279L194.631 50.7661H194.711L195.275 48.8279L196.129 46.1132C196.148 46.0559 196.167 46.0177 196.187 45.9986C196.206 45.9795 196.263 45.9604 196.362 45.9604H197.362C197.48 45.9604 197.519 46.0177 197.48 46.1132L195.658 51.4663Z" fill="white"/>
<path d="M203.029 49.1621H201.942C201.805 49.1621 201.671 49.1621 201.515 49.1812C201.359 49.2003 201.225 49.2385 201.088 49.2958C200.951 49.353 200.836 49.4708 200.756 49.5854C200.661 49.7222 200.619 49.8941 200.619 50.1264C200.619 50.4574 200.737 50.6897 200.951 50.8043C201.164 50.9411 201.473 50.9984 201.824 50.9984C201.881 50.9984 201.961 50.9984 202.037 50.9984C202.133 50.9984 202.232 50.9793 202.35 50.9793C202.445 50.9602 202.563 50.9411 202.681 50.922C202.796 50.9029 202.914 50.8648 203.013 50.8266V49.1589H203.029V49.1621ZM204.389 51.3103C204.389 51.4854 204.31 51.6222 204.176 51.6795C204.001 51.7559 203.828 51.8163 203.634 51.8736C203.44 51.9309 203.245 51.9691 203.032 51.9914C202.818 52.0105 202.624 52.0487 202.41 52.0487C202.216 52.0678 202.022 52.0678 201.827 52.0678C201.324 52.0678 200.916 52.0105 200.565 51.915C200.234 51.8195 199.963 51.6827 199.768 51.5076C199.574 51.3326 199.437 51.1385 199.361 50.9061C199.284 50.6738 199.246 50.4224 199.246 50.171C199.246 49.8973 199.284 49.649 199.383 49.3944C199.478 49.143 199.616 48.9298 199.81 48.7356C200.004 48.5415 200.256 48.4046 200.584 48.2901C200.897 48.1755 201.282 48.115 201.751 48.115H203.032V47.9209C203.032 47.784 203.013 47.6504 202.993 47.5135C202.955 47.3958 202.898 47.2812 202.818 47.2048C202.723 47.1093 202.605 47.0489 202.449 46.9916C202.292 46.9343 202.098 46.9152 201.846 46.9152C201.595 46.9152 201.301 46.9343 200.992 46.9916C200.68 47.0298 200.447 47.0871 200.253 47.1475C200.176 47.1666 200.116 47.1666 200.078 47.1666C200.039 47.1475 200.02 47.1093 200.001 47.052L199.845 46.3933C199.807 46.2755 199.845 46.1991 199.941 46.1609C200.272 46.0432 200.619 45.9477 200.989 45.9095C201.375 45.8522 201.725 45.8331 202.057 45.8331C202.853 45.8331 203.433 46.0082 203.803 46.3551C204.173 46.702 204.367 47.208 204.367 47.8859V51.3167H204.389V51.3103Z" fill="white"/>
<path d="M208.172 49.0635C208.172 49.7605 208.309 50.2665 208.58 50.537C208.851 50.8266 209.24 50.9635 209.724 50.9635C209.877 50.9635 210.071 50.9444 210.288 50.9253C210.502 50.8871 210.677 50.8457 210.811 50.8075V47.1444C210.578 47.0871 210.364 47.0489 210.189 47.0267C210.014 47.0076 209.858 47.0076 209.705 47.0076C209.259 47.0076 208.889 47.1603 208.599 47.4913C208.309 47.7841 208.172 48.3092 208.172 49.0635ZM206.776 49.0635C206.776 48.637 206.834 48.2297 206.932 47.8414C207.028 47.4531 207.203 47.1062 207.436 46.8134C207.668 46.5238 207.958 46.2915 208.309 46.1164C208.656 45.9414 209.083 45.8427 209.571 45.8427C209.727 45.8427 209.902 45.8427 210.113 45.8618C210.326 45.8809 210.54 45.9191 210.792 45.9764V43.825C210.792 43.7486 210.811 43.6881 210.849 43.669C210.887 43.65 210.944 43.6309 211.024 43.6309H211.916C211.996 43.6309 212.053 43.65 212.073 43.669C212.111 43.6881 212.13 43.7486 212.13 43.825V51.4027C212.13 51.5395 212.012 51.6764 211.799 51.7528C211.585 51.8482 211.314 51.9087 211.021 51.966C210.731 52.0233 210.438 52.0456 210.148 52.0615C209.858 52.0806 209.641 52.0806 209.526 52.0806C209.02 52.0806 208.596 52.0042 208.245 51.8673C207.895 51.7305 207.605 51.5204 207.391 51.2467C207.178 50.973 207.022 50.6643 206.926 50.2983C206.834 49.9164 206.776 49.5091 206.776 49.0635Z" fill="white"/>
<path d="M218.749 48.9679C218.749 48.6974 218.73 48.4269 218.692 48.1945C218.653 47.9431 218.574 47.7299 218.478 47.5549C218.382 47.3607 218.226 47.2239 218.051 47.1093C217.876 46.9915 217.643 46.9533 217.372 46.9533C217.121 46.9533 216.907 47.0106 216.732 47.1093C216.556 47.2048 216.4 47.3607 216.266 47.5358C216.152 47.7108 216.053 47.9208 215.996 48.1754C215.938 48.4269 215.919 48.6783 215.919 48.9711C215.919 49.6108 216.015 50.1136 216.228 50.4637C216.442 50.8329 216.792 51.0079 217.334 51.0079C217.605 51.0079 217.818 50.9506 218.013 50.8329C218.188 50.7151 218.344 50.5815 218.459 50.3873C218.574 50.2123 218.653 49.9991 218.692 49.7476C218.711 49.4898 218.749 49.2384 218.749 48.9679ZM220.107 48.9488C220.107 49.9545 219.874 50.7311 219.409 51.2721C218.943 51.8163 218.242 52.0868 217.312 52.0868C216.381 52.0868 215.702 51.8163 215.256 51.2912C214.81 50.7692 214.577 49.9927 214.577 48.9647C214.577 48.4619 214.654 48.0163 214.791 47.628C214.928 47.243 215.122 46.912 215.355 46.6383C215.607 46.3678 215.897 46.1736 216.228 46.0177C216.56 45.8808 216.945 45.8044 217.353 45.8044C218.265 45.8044 218.947 46.075 219.412 46.6383C219.874 47.2239 220.107 47.9781 220.107 48.9488Z" fill="white"/>
<path d="M226.84 50.2855C226.84 50.5974 226.783 50.8488 226.665 51.0812C226.547 51.3135 226.394 51.5076 226.181 51.6445C225.967 51.7813 225.734 51.8959 225.463 51.9755C225.193 52.055 224.883 52.0932 224.571 52.0932C224.396 52.0932 224.186 52.0932 223.991 52.0741C223.778 52.055 223.583 52.0359 223.37 51.9978C223.156 51.9596 222.962 51.9023 222.767 51.8418C222.573 51.7845 222.398 51.705 222.245 51.6095C222.127 51.5522 222.108 51.4567 222.165 51.339L222.439 50.6993C222.477 50.6197 222.516 50.5815 222.554 50.5624C222.592 50.5433 222.65 50.5624 222.729 50.5815C223.003 50.7184 223.312 50.8138 223.641 50.8902C223.972 50.9698 224.281 51.008 224.533 51.008C224.845 51.008 225.097 50.9507 225.25 50.8138C225.406 50.677 225.483 50.5242 225.483 50.3301C225.483 50.1169 225.387 49.945 225.173 49.8081C224.96 49.6713 224.651 49.5376 224.24 49.3817C223.931 49.2671 223.66 49.1494 223.427 49.0348C223.194 48.917 223 48.8025 222.844 48.6465C222.688 48.5097 222.573 48.3569 222.493 48.1819C222.417 48.0068 222.379 47.8127 222.379 47.5804C222.379 47.3289 222.417 47.0966 222.516 46.8802C222.611 46.667 222.748 46.4951 222.924 46.3392C223.099 46.1832 223.332 46.0686 223.602 45.97C223.873 45.8745 224.186 45.8331 224.533 45.8331C224.864 45.8331 225.173 45.8522 225.483 45.9095C225.814 45.9668 226.104 46.0655 226.413 46.18C226.471 46.2182 226.509 46.2596 226.531 46.2978C226.55 46.336 226.531 46.3933 226.531 46.4537L226.26 47.1125C226.241 47.1698 226.203 47.208 226.181 47.208C226.142 47.208 226.104 47.208 226.043 47.1889C225.753 47.0934 225.479 47.0139 225.269 46.9757C225.036 46.9375 224.804 46.9184 224.552 46.9184C224.262 46.9184 224.068 46.9757 223.931 47.0934C223.794 47.208 223.736 47.3448 223.736 47.4817C223.736 47.5963 223.755 47.6758 223.794 47.7522C223.832 47.8286 223.908 47.9082 223.988 47.9654C224.064 48.0227 224.202 48.1023 224.358 48.1596C224.514 48.2391 224.689 48.2964 224.899 48.3728C225.151 48.4683 225.384 48.5669 225.616 48.6624C225.849 48.7579 226.063 48.8948 226.238 49.0316C226.413 49.1685 226.569 49.3403 226.665 49.5535C226.802 49.7604 226.84 50.015 226.84 50.2855Z" fill="white"/>
<path d="M116.17 24.1215C117.935 24.1215 119.72 24.1215 121.485 24.1215C122.961 24.1025 123.891 23.1731 123.91 21.6996C123.93 20.2675 122.98 19.1599 121.581 19.1408C118.416 19.1026 115.255 19.1026 112.091 19.1408C110.79 19.1599 109.879 20.1306 109.822 21.4482C109.803 22.0688 109.841 22.6703 109.803 23.2909C109.764 23.9115 109.997 24.1438 110.637 24.1438C112.502 24.1025 114.325 24.1215 116.17 24.1215ZM116.578 28.0934C114.675 28.0934 112.753 28.1125 110.854 28.0743C110.057 28.0552 109.767 28.3448 109.806 29.1595C109.863 30.1493 109.863 31.155 109.806 32.1639C109.767 32.9786 110.057 33.23 110.854 33.23C114.194 33.1918 117.511 33.2491 120.848 33.1918C121.817 33.1728 122.129 33.4433 122.11 34.4299C122.053 37.1637 122.091 37.1637 119.372 37.1637C116.849 37.1637 114.328 37.1828 111.804 37.1637C108.719 37.1446 105.905 34.3535 105.886 31.2728C105.867 27.9183 105.867 24.5671 105.886 21.1968C105.905 17.9983 108.719 15.2295 111.922 15.2072C115.182 15.1881 118.442 15.1881 121.721 15.2072C125.099 15.2263 127.852 18.0556 127.872 21.5246C127.891 25.2259 125.329 28.017 121.817 28.0743C120.07 28.1125 118.324 28.0743 116.578 28.0743V28.0934Z" fill="white"/>
<path d="M208.793 26.0981C208.793 27.648 208.774 29.198 208.793 30.7479C208.813 32.145 209.686 33.0361 211.104 33.0361C213.819 33.0552 216.537 33.0552 219.252 33.0361C220.648 33.0361 221.563 32.1259 221.563 30.7288C221.582 27.6671 221.582 24.6055 221.563 21.5216C221.563 20.1054 220.632 19.157 219.195 19.1379C216.518 19.0997 213.841 19.1188 211.142 19.1379C209.705 19.157 208.793 20.0863 208.793 21.5216C208.774 23.0556 208.793 24.5864 208.793 26.0981ZM225.521 26.1172C225.521 27.7244 225.54 29.3348 225.521 30.9611C225.483 34.1596 223.038 36.8138 219.855 36.9698C216.827 37.1066 213.781 37.1257 210.753 36.9889C207.261 36.852 204.874 34.2169 204.855 30.7097C204.835 27.6099 204.835 24.51 204.855 21.4261C204.874 17.8808 207.57 15.2265 211.142 15.2265C213.857 15.2265 216.576 15.2074 219.275 15.2265C222.767 15.2456 225.463 17.919 225.505 21.407C225.521 22.9601 225.502 24.5482 225.521 26.1172Z" fill="white"/>
<path d="M228.297 26.0408C228.297 22.8423 228.335 19.6471 228.277 16.4486C228.258 15.5161 228.491 15.1692 229.501 15.1692C233.924 15.2265 238.37 15.1883 242.793 15.1883C246.209 15.1883 248.966 17.9221 248.985 21.3306C249.004 26.2159 248.966 31.0788 249.004 35.964C249.004 36.7597 248.752 37.0111 247.956 37.0111C245.065 36.992 245.065 37.0302 245.065 34.1245C245.065 30.0158 245.065 25.9262 245.065 21.8176C245.065 20.0162 244.192 19.1442 242.388 19.1442C239.342 19.1251 236.314 19.1633 233.268 19.1251C232.509 19.1251 232.261 19.3574 232.277 20.134C232.296 25.3661 232.258 30.5982 232.296 35.8304C232.296 36.7597 232.006 37.1289 231.072 37.0111C230.527 36.9538 229.966 36.9538 229.421 37.0111C228.587 37.0875 228.293 36.7788 228.293 35.9258C228.335 32.6287 228.316 29.3348 228.297 26.0408Z" fill="white"/>
<path d="M184.032 28.6189C184.032 31.0981 184.013 33.5996 184.051 36.0788C184.07 36.9317 183.78 37.1831 182.945 37.164C180.151 37.1259 180.151 37.164 180.151 34.3729C180.151 32.6671 180.132 30.9421 180.151 29.2363C180.151 28.5393 179.975 28.1892 179.16 28.2083C176.578 28.2465 173.978 28.2083 171.397 28.2274C169.963 28.2465 169.029 29.1758 169.01 30.592C168.991 32.4889 168.991 34.4111 169.01 36.3079C169.01 36.9285 168.815 37.18 168.175 37.1609C167.362 37.1227 166.565 37.1227 165.75 37.1609C165.246 37.18 165.052 36.9858 165.052 36.483C165.071 34.2552 164.994 32.0242 165.09 29.7964C165.227 26.9257 168.038 24.3288 170.912 24.3129C173.589 24.2938 176.288 24.2747 178.965 24.3129C179.877 24.332 180.17 23.9628 180.147 23.1321C180.109 22.1614 180.109 21.1939 180.147 20.2264C180.167 19.4499 179.877 19.1221 179.061 19.1412C176.636 19.1794 174.211 19.1412 171.782 19.1603C171.065 19.1794 170.791 18.9471 170.833 18.231C170.89 17.4544 170.794 16.6811 170.871 15.9045C170.89 15.6531 171.24 15.2266 171.435 15.2266C173.978 15.2266 176.559 15.0707 179.083 15.4017C181.935 15.7709 183.933 18.2883 183.994 21.1749C184.07 23.6572 184.013 26.1365 184.032 28.6189Z" fill="white"/>
<path d="M191.327 26.1172C191.327 27.5334 191.308 28.9656 191.327 30.3786C191.346 32.2022 192.181 33.052 193.984 33.052C196.448 33.052 198.895 33.0711 201.359 33.052C202.095 33.0329 202.445 33.227 202.388 34.0227C202.331 34.7196 202.35 35.4389 202.388 36.155C202.426 36.8329 202.136 37.0652 201.477 37.0652C198.761 37.0461 196.043 37.1034 193.328 37.027C190.049 36.9315 187.468 34.3155 187.41 31.0374C187.353 27.7435 187.353 24.4495 187.41 21.1556C187.468 17.938 190.281 15.2265 193.503 15.2265C196.123 15.2074 198.742 15.2647 201.362 15.2074C202.197 15.1883 202.449 15.497 202.391 16.2735C202.353 16.9132 202.334 17.572 202.391 18.2117C202.468 19.0073 202.12 19.2015 201.381 19.1824C198.918 19.1442 196.47 19.1633 194.007 19.1824C192.26 19.2015 191.349 20.1308 191.327 21.8939C191.327 23.2688 191.327 24.685 191.327 26.1172Z" fill="white"/>
<path d="M94.9776 37.1447C93.8495 37.1447 92.7851 37.1829 91.7175 37.1256C91.5231 37.1065 91.1949 36.7787 91.1535 36.5623C91.077 35.9608 91.1152 35.3402 91.1152 34.7196C91.1152 29.9712 91.1152 25.2229 91.1152 20.4936C91.1152 19.1378 91.1152 19.1378 89.6971 19.1378C87.4281 19.1378 85.1751 19.1187 82.9061 19.1569C82.2273 19.176 82.0138 18.9437 82.0138 18.2658C81.9564 15.1851 81.9373 15.1851 85.003 15.2042C90.9399 15.2042 96.8992 15.2232 102.836 15.1851C103.767 15.1851 104.041 15.4365 104.041 16.3881C104.003 19.141 104.041 19.141 101.246 19.1601C99.557 19.1601 97.8871 19.1983 96.2013 19.141C95.3281 19.1028 95.0349 19.3542 95.0349 20.2644C95.0732 25.4584 95.0541 30.6523 95.0541 35.8463C95.0573 36.2536 95.019 36.661 94.9776 37.1447Z" fill="white"/>
<path d="M140.367 15.1883C143.707 15.1883 147.024 15.2074 150.361 15.1692C151.097 15.1692 151.447 15.3442 151.368 16.1367C151.31 16.8146 151.31 17.4925 151.368 18.1704C151.447 18.966 151.097 19.141 150.361 19.141C148.069 19.1028 145.781 19.1601 143.471 19.1028C142.636 19.0837 142.304 19.3352 142.304 20.169C142.343 25.3629 142.343 30.5569 142.384 35.7508C142.403 37.148 142.442 37.148 141.046 37.148C138.445 37.148 138.445 37.148 138.445 34.5892C138.445 29.8408 138.426 25.0924 138.464 20.3631C138.464 19.3925 138.174 19.0837 137.202 19.1028C134.914 19.1601 132.623 19.0837 130.313 19.141C129.516 19.1601 129.283 18.9087 129.344 18.1513C129.439 17.2029 129.111 15.9426 129.615 15.3793C130.042 14.8955 131.38 15.1851 132.292 15.1851C135.013 15.1883 137.69 15.1883 140.367 15.1883Z" fill="white"/>
<path d="M157.563 28.8702C157.563 31.2921 157.544 33.7172 157.582 36.1391C157.601 36.8775 157.368 37.1098 156.632 37.0493C155.934 36.9921 155.214 37.0112 154.497 37.0303C153.818 37.0684 153.605 36.7597 153.605 36.1009C153.624 31.1011 153.586 26.0823 153.624 21.0793C153.643 17.9985 156.377 15.2456 159.465 15.1883C162.18 15.1311 164.899 15.1883 167.614 15.1693C168.216 15.1693 168.525 15.322 168.506 15.984C168.487 16.7573 168.487 17.5339 168.506 18.3073C168.525 18.9469 168.254 19.1411 167.633 19.122C165.17 19.1029 162.722 19.1029 160.259 19.122C158.455 19.122 157.582 19.9749 157.563 21.7762C157.544 24.16 157.563 26.5246 157.563 28.8702Z" fill="white"/>
<path d="M28.5509 35.0563L16.2277 47.3824C15.3545 48.2544 13.9173 48.2544 13.0441 47.3824L0.720801 35.0754C-0.152376 34.2034 -0.152376 32.768 0.720801 31.8992L13.0441 19.5922C13.9173 18.7202 15.3545 18.7202 16.2277 19.5922L28.5509 31.8992C29.4241 32.768 29.4241 34.1843 28.5509 35.0563Z" fill="white"/>
<path d="M47.4326 53.9321L35.1093 66.2391C34.2361 67.1111 32.7989 67.1111 31.9257 66.2391L19.6025 53.9321C18.7293 53.0601 18.7293 51.6247 19.6025 50.7559L31.9257 38.4489C32.7989 37.5769 34.2361 37.5769 35.1093 38.4489L47.4326 50.7559C48.3058 51.6247 48.3058 53.0601 47.4326 53.9321Z" fill="white"/>
<path d="M47.4135 16.2189L35.0902 28.5259C34.217 29.3979 32.7798 29.3979 31.9066 28.5259L19.5833 16.2189C18.7102 15.3469 18.7102 13.9115 19.5833 13.0427L31.9066 0.754846C32.7798 -0.117175 34.217 -0.117175 35.0902 0.754846L47.4135 13.0618C48.2867 13.9306 48.2867 15.3469 47.4135 16.2189Z" fill="white"/>
<path d="M66.2952 35.0945L53.9719 47.4014C53.0987 48.2734 51.6615 48.2734 50.7883 47.4014L38.465 35.0945C37.5918 34.2224 37.5918 32.7871 38.465 31.9151L50.7883 19.6081C51.6615 18.7361 53.0987 18.7361 53.9719 19.6081L66.2952 31.9151C67.1683 32.7871 67.1683 34.2224 66.2952 35.0945Z" fill="white"/>
</g>
<defs>
<clipPath id="clip0">
<rect width="250" height="67" fill="white" transform="translate(0 0.0991211)"/>
</clipPath>
</defs>
</svg>
