<svg width="102" height="100" viewBox="0 0 102 100" fill="none" xmlns="http://www.w3.org/2000/svg">
<path d="M23.7493 49.3024C20.4099 49.3716 17.122 49.825 13.8845 50.5931C11.0221 51.2731 8.84952 49.2319 8.31581 47.1856C7.93315 45.7186 8.23525 44.4191 9.43232 43.3828C12.8549 40.4198 16.2157 37.3838 19.6999 34.4939C22.3723 32.2764 25.5619 31.1582 28.9933 30.7024C32.5807 30.2264 36.0888 30.6205 39.5403 31.6355C39.9066 31.7425 40.0929 31.6292 40.3144 31.3824C43.3682 27.9711 46.3766 24.5171 49.4983 21.1701C56.6089 13.5492 64.8475 7.53142 74.6493 3.79278C77.8679 2.56504 81.1634 1.59921 84.5443 0.95449C86.8604 0.512502 89.1891 0.124661 91.5581 0.0856253C93.8175 0.0491078 96.077 0.0188864 98.3365 0.00125729C98.7393 -0.00252038 99.1471 0.0428117 99.5461 0.107032C100.232 0.217844 100.848 0.812198 100.873 1.51736C100.95 3.64041 101.021 5.76598 100.996 7.88904C100.98 9.33588 100.835 10.7865 100.681 12.2271C100.374 15.1132 99.8029 17.9515 99.03 20.7495C96.6308 29.4394 92.4619 37.195 86.7434 44.1471C83.4253 48.1817 79.6579 51.7591 75.747 55.1993C73.6914 57.0063 71.6711 58.8523 69.6206 60.6656C69.3261 60.9263 69.2594 61.1605 69.3739 61.5357C70.255 64.4181 70.6377 67.3735 70.4539 70.378C70.1808 74.8332 68.7319 78.8476 65.7588 82.2462C63.1116 85.2721 60.4154 88.2577 57.8413 91.3454C56.1206 93.408 53.5653 93.1221 51.8836 91.6375C50.5065 90.4223 49.9993 88.9163 50.4209 87.0804C51.1472 83.9184 51.613 80.715 51.6331 77.4662C51.6407 76.1717 51.4921 74.8747 51.3839 73.5815C51.3713 73.4367 51.185 73.2213 51.0402 73.1836C47.439 72.2442 44.3764 70.2924 41.436 68.1076C40.7739 67.6165 40.9199 67.6165 40.3472 68.1819C39.5529 68.9652 38.7939 69.7862 37.9681 70.5329C36.3721 71.9747 34.5028 72.3248 32.5064 71.5881C30.5566 70.8691 29.4036 69.3895 29.1129 67.3383C28.8838 65.7252 29.3205 64.2481 30.4559 63.038C31.1961 62.2497 31.9815 61.5055 32.7355 60.7311C33.375 60.075 33.4304 60.2853 32.8337 59.492C31.327 57.4899 29.9487 55.4058 28.9454 53.1027C28.5162 52.118 28.204 51.0804 27.8667 50.0579C27.771 49.767 27.664 49.5996 27.3317 49.5782C26.1347 49.4988 24.9426 49.3956 23.7493 49.3024ZM53.0756 55.4789C53.1763 55.5847 53.233 55.6703 53.3123 55.7232C54.707 56.6726 56.0727 57.6712 57.5102 58.5501C59.1101 59.5285 60.8132 60.3181 62.6761 60.677C63.5597 60.8469 64.3528 60.7941 65.108 60.104C68.6753 56.8464 72.2879 53.6379 75.893 50.4206C80.3993 46.3974 84.4222 41.9473 87.8108 36.9381C90.8154 32.4968 93.1932 27.742 94.8761 22.6434C94.9643 22.3764 95.0876 22.1523 94.6722 22.0238C91.8061 21.131 89.3037 19.5834 87.0367 17.6531C83.4052 14.5591 80.4924 10.9351 78.9681 6.33389C78.851 5.98131 78.6924 5.98635 78.408 6.0959C76.9126 6.66885 75.3932 7.18009 73.9205 7.80341C66.5946 10.9024 60.1196 15.3273 54.5811 20.9875C49.7412 25.935 45.216 31.1897 40.5637 36.3185C40.3975 36.5024 40.3006 36.7933 40.2691 37.0476C40.1521 37.992 40.3925 38.8924 40.7021 39.7713C41.7406 42.7217 43.4311 45.2981 45.3268 47.7548C45.3734 47.8152 45.4539 47.8492 45.5382 47.9097C45.6868 47.7687 45.8227 47.644 45.9536 47.5143C46.8285 46.6454 47.6743 45.7451 48.5844 44.9127C49.8067 43.7933 51.2605 43.3211 52.9208 43.5767C55.0116 43.8978 56.4566 45.0676 57.1678 47.0333C57.8866 49.0241 57.4888 50.8689 56.0614 52.4391C55.2319 53.3508 54.3294 54.1945 53.4621 55.0709C53.3337 55.1956 53.2128 55.3303 53.0756 55.4789ZM37.3652 34.6312C37.189 34.5669 37.1009 34.5241 37.0065 34.5027C34.5871 33.9701 32.1527 33.7699 29.6805 34.0821C26.4531 34.4901 23.5605 35.6486 21.0946 37.8006C18.1051 40.4085 15.1181 43.0176 12.1286 45.6255C11.5168 46.1581 11.5067 46.5762 12.2016 47.0207C12.4609 47.1869 12.88 47.2347 13.1909 47.1693C16.4108 46.4994 19.6445 45.9365 22.9412 45.9012C24.4064 45.8861 25.8728 45.973 27.338 46.0322C27.6452 46.0448 27.7924 45.9717 27.9485 45.6746C28.2569 45.0827 28.598 44.4846 29.0373 43.9885C31.6744 41.0028 34.3442 38.0449 37.0014 35.0769C37.1109 34.9548 37.2104 34.8213 37.3652 34.6312ZM66.475 63.7356C66.4196 63.718 66.363 63.7004 66.3076 63.6827C66.1679 63.7961 66.0244 63.9043 65.891 64.0227C62.8335 66.7615 59.781 69.5066 56.7109 72.2316C56.3396 72.5615 55.894 72.8461 55.4345 73.0287C55.0116 73.1962 54.9298 73.4279 54.9612 73.827C55.0393 74.8193 55.1463 75.8141 55.14 76.8076C55.1198 79.6799 54.8379 82.5308 54.2979 85.354C54.1305 86.2304 53.9366 87.103 53.7679 87.9782C53.666 88.5071 53.9492 88.9516 54.4766 89.2475C54.9889 89.5346 55.1752 89.1241 55.4144 88.8496C57.7141 86.2153 59.9862 83.5558 62.3098 80.9442C63.9072 79.1485 65.293 77.242 66.081 74.944C66.9772 72.3311 67.2391 69.6477 66.9647 66.9126C66.8577 65.8499 66.6412 64.7946 66.475 63.7356ZM82.2471 4.98904C82.2471 5.15526 82.2308 5.22704 82.2496 5.28748C82.3541 5.60732 82.4536 5.93094 82.5807 6.24197C83.8017 9.21626 85.72 11.702 88.0273 13.8981C90.1835 15.9506 92.5726 17.6581 95.4149 18.6592C95.8202 18.8015 95.9889 18.7662 96.1009 18.2915C97.1985 13.6575 97.7159 8.96693 97.5976 4.20581C97.5774 3.3999 97.5837 3.40242 96.7832 3.38227C93.1655 3.28909 89.5756 3.57871 86.0133 4.20455C84.7583 4.42617 83.516 4.72335 82.2471 4.98904ZM43.3191 65.2568C44.3399 65.9481 45.2928 66.6406 46.291 67.2627C48.2307 68.4715 50.2497 69.5154 52.5382 69.902C53.4042 70.0481 54.1619 69.9335 54.8656 69.2737C56.6379 67.6102 58.4769 66.0161 60.2908 64.3967C60.4708 64.2355 60.6684 64.0957 60.9592 63.8653C60.5262 63.7192 60.2895 63.6424 60.0541 63.5606C56.6996 62.3845 53.7667 60.4767 50.9874 58.3071C50.6538 58.0464 50.4637 58.0427 50.1566 58.3537C48.0218 60.5183 45.8655 62.6602 43.7168 64.8122C43.601 64.9294 43.4966 65.0578 43.3191 65.2568ZM35.7477 57.6913C35.9995 57.4521 36.1467 57.3161 36.289 57.1751C38.2476 55.217 40.2062 53.2589 42.1635 51.3008C43.0132 50.4521 42.9981 50.4621 42.2705 49.4925C40.1873 46.7147 38.3231 43.8122 37.2708 40.4614C37.2444 40.3757 37.1726 40.3027 37.1084 40.202C37.0178 40.2813 36.9498 40.3292 36.8944 40.3896C35.0906 42.4006 33.273 44.4002 31.502 46.4402C31.2401 46.7411 31.1155 47.2247 31.074 47.639C31.0287 48.0797 31.1206 48.5469 31.2137 48.9888C31.6404 50.996 32.5568 52.7993 33.6217 54.5269C34.2737 55.5847 35.0063 56.5933 35.7477 57.6913ZM34.4915 68.4464C35.0353 68.4766 35.496 68.1391 35.929 67.7047C41.7028 61.9223 47.4818 56.1437 53.2594 50.3652C53.379 50.2455 53.5024 50.1297 53.6081 49.9987C54.4212 48.9888 54.0096 47.5218 52.7975 47.0924C51.9402 46.789 51.2681 47.0824 50.6551 47.6969C44.8711 53.4931 39.0784 59.2817 33.2894 65.0729C33.1824 65.1799 33.0704 65.2845 32.9734 65.4016C32.4712 66.0047 32.378 66.6898 32.6915 67.3899C33.0087 68.0988 33.5965 68.4552 34.4915 68.4464Z" fill="white"/>
<path d="M4.71204 96.3432C5.42953 96.2891 6.13065 96.2463 6.82926 96.182C8.8936 95.9957 10.9529 95.764 13.0198 95.6217C15.5411 95.4479 17.9918 94.9833 20.3646 94.1056C24.5147 92.5718 28.1927 90.2536 31.5473 87.3952C33.5714 85.67 35.4079 83.7623 37.0682 81.6846C37.5339 81.1016 38.118 80.7817 38.882 80.9618C39.6297 81.1381 40.0778 81.6267 40.2226 82.3797C40.3334 82.9551 40.1068 83.4299 39.7543 83.8693C36.8491 87.4934 33.4971 90.6339 29.6365 93.2216C26.0478 95.6267 22.2099 97.5005 17.9641 98.4058C16.3895 98.742 14.7732 98.9057 13.1683 99.0795C10.9907 99.315 8.80549 99.4837 6.62408 99.6802C5.43205 99.7872 4.24127 99.9093 3.04798 99.9925C1.62307 100.092 0.857755 99.1525 1.01888 97.6654C1.25174 95.5209 1.39902 93.3664 1.61678 91.2194C1.92643 88.1721 1.98937 85.0946 2.79245 82.1089C4.27274 76.6086 7.06213 71.8211 10.6987 67.4918C12.6485 65.1698 14.8198 63.0695 17.2001 61.1894C18.3166 60.3067 19.7805 60.8217 20.0537 62.1993C20.1959 62.9171 19.8611 63.4623 19.3274 63.9245C18.2549 64.8525 17.1497 65.7491 16.1427 66.7439C11.868 70.9623 8.51346 75.7876 6.58506 81.5284C5.88897 83.6024 5.54533 85.738 5.38421 87.9165C5.20044 90.3871 4.9361 92.8514 4.71456 95.3195C4.68813 95.6355 4.71204 95.9541 4.71204 96.3432Z" fill="white"/>
<path d="M11.1455 87.2805C11.3016 82.7738 12.1311 78.4408 14.4233 74.4805C16.0332 71.6977 18.382 69.6288 20.9348 67.7639C21.588 67.2866 22.2766 66.856 22.9702 66.4379C23.9167 65.8675 24.9602 66.1118 25.4688 66.9907C25.9685 67.852 25.65 68.8002 24.7324 69.4235C23.5328 70.2382 22.3408 71.0681 21.1953 71.9571C18.0283 74.4138 16.2019 77.7168 15.3535 81.5775C15.0363 83.0206 14.8953 84.5027 14.675 85.9659C14.636 86.2215 14.7128 86.3374 15.0023 86.316C18.771 86.0478 22.3798 85.2179 25.5569 83.0722C28.1109 81.3483 29.9373 78.9344 31.5359 76.3417C31.8821 75.7788 32.2987 75.3633 32.9999 75.3179C33.6846 75.2726 34.2234 75.5194 34.5972 76.0936C34.9824 76.688 35.0038 77.3163 34.6262 77.9081C33.9918 78.9042 33.3586 79.9053 32.6524 80.851C30.3804 83.892 27.6426 86.3689 24.064 87.8082C21.6082 88.7966 19.068 89.4263 16.4335 89.6655C15.3925 89.7599 14.3477 89.8317 13.303 89.8519C11.8151 89.8796 11.1467 89.1807 11.1455 87.6873C11.1455 87.55 11.1455 87.4153 11.1455 87.2805Z" fill="white"/>
<path d="M72.488 37.3473C67.6318 37.3561 63.6869 33.3959 63.6315 28.5441C63.5799 24.0021 67.1685 19.6011 72.4981 19.5885C77.591 19.5759 81.3722 23.618 81.4025 28.4031C81.4352 33.6603 77.1189 37.4317 72.488 37.3473ZM72.483 33.8971C75.3189 33.9651 77.8666 31.5562 77.9359 28.738C78.0114 25.6844 75.689 23.1319 72.7587 23.0476C69.8082 22.9632 67.263 25.2978 67.1031 28.0555C66.9218 31.2099 69.3588 33.8719 72.483 33.8971Z" fill="white"/>
<path d="M69.0127 28.364C69.0253 26.5356 70.639 24.9351 72.468 24.9402C73.3113 24.9427 74.088 25.5698 74.2151 26.3505C74.3661 27.2785 73.8828 28.0933 72.9752 28.335C72.5976 28.4358 72.4541 28.602 72.3672 28.9848C72.1797 29.8134 71.3477 30.2843 70.4414 30.1584C69.5653 30.0388 69.0051 29.3349 69.0127 28.364Z" fill="white"/>
</svg>
