<svg width="105" height="108" viewBox="0 0 105 108" fill="none" xmlns="http://www.w3.org/2000/svg">
<path d="M99.4117 3.57378C99.1082 3.57378 98.9077 3.57378 98.7072 3.57378C95.199 3.57378 91.692 3.57941 88.1838 3.57041C86.736 3.56703 85.8609 2.13345 86.5532 0.913673C86.9177 0.271151 87.4882 -0.00116186 88.2159 -3.66045e-05C91.2434 0.0078402 94.2708 0.00333917 97.2993 0.00333917C98.8867 0.00333917 100.475 -3.66042e-05 102.063 0.00446443C103.637 0.0100907 104.446 1.30526 103.755 2.73322C102.836 4.63153 101.91 6.52759 100.95 8.40564C100.728 8.84225 100.754 9.17307 100.966 9.59167C101.9 11.4405 102.807 13.3039 103.716 15.1662C104.462 16.6909 103.668 17.9748 101.981 17.9748C95.7961 17.9771 89.6117 17.976 83.4272 17.976C83.2267 17.976 83.0262 17.976 82.7482 17.976C82.7482 18.2111 82.7482 18.4092 82.7482 18.6072C82.7482 21.6646 82.7549 24.7208 82.7393 27.7781C82.7371 28.1742 82.8413 28.406 83.1813 28.6367C86.3239 30.7792 86.3095 35.4299 83.1581 37.5667C82.8401 37.7828 82.7393 38.0078 82.7393 38.3825C82.7493 45.2646 82.7482 52.1478 82.7449 59.0299C82.7449 59.291 82.7504 59.561 82.6928 59.812C82.4879 60.6964 81.6593 61.2782 80.7897 61.1769C79.9235 61.0756 79.2511 60.3296 79.2378 59.4114C79.2212 58.3244 79.2334 57.2362 79.2334 56.1481C79.2334 50.9157 79.2334 45.6832 79.2334 40.4519C79.2334 40.273 79.2334 40.0929 79.2334 39.833C78.9908 39.9568 78.828 40.0322 78.6718 40.1199C76.247 41.4725 73.8233 42.8251 71.3996 44.1787C69.2816 45.3625 67.2766 45.2106 65.2661 43.8277C63.5425 42.6416 61.7214 41.6019 59.949 40.4868C59.2489 40.0468 58.9232 39.3289 59.0894 38.5716C59.2533 37.8289 59.713 37.3034 60.4585 37.2066C60.8673 37.1537 61.3702 37.2258 61.7191 37.4339C63.6111 38.5626 65.4799 39.734 67.3331 40.9279C68.1273 41.4399 68.8629 41.5321 69.7103 41.0528C73.4488 38.9407 77.2051 36.8589 80.9515 34.7615C81.9462 34.2044 82.2841 33.1715 81.7978 32.2454C81.3082 31.3137 80.2337 31.0312 79.2212 31.5893C76.2226 33.2412 73.2284 34.901 70.232 36.5585C69.0246 37.2269 68.5173 37.183 67.4782 36.3031C64.7842 34.0222 62.0891 31.7435 59.404 29.4502C58.9033 29.0226 58.3661 28.801 57.7058 28.7469C51.7474 28.2597 45.7923 27.7263 39.8327 27.2537C37.3802 27.0591 35.0218 27.562 32.7754 28.5737C28.5804 30.463 24.391 32.3669 20.1938 34.2506C19.5336 34.5465 19.1227 35.0045 18.9476 35.7145C17.8022 40.363 16.6469 45.0092 15.4993 49.6576C15.2091 50.8335 15.7352 51.7832 16.8031 52.0454C17.7469 52.2772 18.6873 51.6189 18.9654 50.5173C19.9944 46.4563 21.0268 42.3975 22.0382 38.3319C22.2453 37.5015 22.7106 37.0131 23.5137 36.761C27.2988 35.575 31.075 34.3586 34.8579 33.1636C36.4541 32.6595 37.5884 33.6744 37.3082 35.3556C36.9017 37.7929 36.4685 40.2246 36.0554 42.6608C35.2822 47.2192 34.4636 51.7697 33.7601 56.3394C33.1653 60.2047 36.3389 64.0643 40.1861 64.2646C45.5497 64.5425 50.9144 64.7946 56.2791 65.0579C56.5372 65.0703 56.7953 65.0894 57.0523 65.113C58.4458 65.2413 59.1381 66.3126 58.6674 67.6539C57.7202 70.3511 56.7576 73.0439 55.7995 75.7366C54.9797 78.0423 54.1545 80.3468 53.3359 82.6536C52.0232 86.3546 54.54 90.0094 58.4159 90.0206C61.6095 90.0296 64.803 90.0229 67.9977 90.0218C68.1772 90.0218 68.3566 90.0218 68.5992 90.0218C68.5992 88.8841 68.5992 87.8027 68.5992 86.7203C68.5992 86.0642 68.5948 85.4071 68.6003 84.7511C68.6092 83.5481 69.3137 82.8235 70.4979 82.8224C74.3749 82.8179 78.2519 82.8201 82.129 82.8201C82.3273 82.8201 82.5256 82.8201 82.7792 82.8201C82.7792 81.5666 82.7792 80.3716 82.7792 79.1765C82.7792 78.5768 82.7659 77.9759 82.7825 77.3761C82.8102 76.3848 83.5369 75.6275 84.515 75.6241C89.2406 75.6128 93.9672 75.614 98.6928 75.623C99.6964 75.6252 100.465 76.4151 100.47 77.393C100.475 78.3933 99.6964 79.1822 98.6563 79.1844C94.7792 79.1923 90.9022 79.1878 87.0251 79.1878C86.8069 79.1878 86.5876 79.1878 86.2907 79.1878C86.2907 79.4241 86.2907 79.6221 86.2907 79.8213C86.2907 81.3775 86.2962 82.9349 86.2885 84.4911C86.283 85.6513 85.5585 86.3872 84.4131 86.3883C80.5549 86.3928 76.6967 86.3906 72.8374 86.3906C72.6192 86.3906 72.4009 86.3906 72.1107 86.3906C72.1107 86.6336 72.1107 86.8328 72.1107 87.032C72.1107 88.551 72.1129 90.0702 72.1096 91.5892C72.1074 92.872 71.4151 93.5911 70.17 93.5922C66.201 93.5956 62.232 93.6102 58.2619 93.5888C52.1761 93.5562 47.9545 87.5091 49.9617 81.6633C51.3874 77.51 52.8928 73.3848 54.3616 69.2472C54.4292 69.0571 54.4901 68.8635 54.5798 68.5946C54.3339 68.5642 54.1434 68.5293 53.9518 68.5192C50.3572 68.3425 46.7615 68.1794 43.1681 67.9836C42.7205 67.9588 42.6519 68.2041 42.5455 68.5147C39.034 78.7681 35.5203 89.0214 32.0066 99.2736C31.6466 100.325 31.1171 100.793 30.2675 100.808C28.9803 100.832 28.1639 99.6551 28.6026 98.3577C29.6427 95.2778 30.7039 92.2036 31.7574 89.1283C34.1434 82.163 36.5317 75.1987 38.9177 68.2345C38.9653 68.0939 39.0052 67.9509 39.0628 67.7619C38.6928 67.6663 38.3406 67.5796 37.9917 67.4828C32.72 66.0223 29.4035 60.6919 30.345 55.24C31.3519 49.4112 32.3345 43.579 33.327 37.7479C33.3414 37.6612 33.3414 37.5712 33.3547 37.4013C33.0734 37.4823 32.8496 37.5397 32.6292 37.6095C30.3262 38.3409 28.0254 39.0836 25.7169 39.8004C25.3724 39.9073 25.2185 40.0805 25.131 40.4316C24.2226 44.0797 23.3087 47.7256 22.3672 51.3635C22.1866 52.0612 21.8809 52.7262 21.6139 53.4576C21.9053 53.5476 22.2675 53.6624 22.6308 53.7716C25.5818 54.6605 27.157 57.4129 26.3749 60.423C25.6184 63.3363 24.8308 66.2428 24 69.1358C23.1758 72.0041 20.3522 73.6054 17.5176 72.8222C13.0025 71.5743 8.4907 70.3084 3.99001 69.0053C0.892812 68.1085 -0.619234 65.283 0.237038 62.1176C0.979214 59.3742 1.72693 56.632 2.48018 53.892C3.32095 50.8335 6.16005 49.1726 9.18303 49.9704C10.0548 50.2 10.9211 50.4543 11.7242 50.6782C12.8164 45.3378 14.2885 40.1267 15.5381 34.8616C15.9645 33.0657 17.008 31.7941 18.6751 31.0425C22.869 29.1509 27.0617 27.2549 31.2511 25.352C34.4968 23.8779 37.882 23.4166 41.4101 23.7789C44.3467 24.0805 47.2921 24.2898 50.2342 24.5385C52.9736 24.7703 55.7142 24.9875 58.4525 25.235C59.5646 25.3352 60.5472 25.7853 61.4079 26.5167C63.8426 28.5872 66.2896 30.6408 68.7155 32.7214C69.049 33.0072 69.2827 33.0376 69.6704 32.8193C72.2337 31.3744 74.8125 29.9566 77.3912 28.5399C77.7789 28.3272 78.1766 28.0842 78.5987 27.9975C79.1647 27.8794 79.2422 27.5823 79.2411 27.0636C79.2256 18.7366 79.2267 10.4109 79.2422 2.08394C79.2434 1.66985 79.332 1.21524 79.517 0.851784C79.867 0.163126 80.7 -0.138443 81.4212 0.0596021C82.222 0.279027 82.7404 0.96206 82.7427 1.85101C82.7493 4.57076 82.746 7.28939 82.746 10.0091C82.746 11.4495 82.746 12.8909 82.746 14.3695C88.2957 14.3695 93.8022 14.3695 99.3896 14.3695C99.1248 13.8316 98.8811 13.3365 98.6385 12.8403C98.17 11.8849 97.7147 10.9228 97.2284 9.97651C96.8828 9.3036 96.8928 8.66895 97.2339 7.99493C97.9595 6.56697 98.6518 5.12102 99.4117 3.57378ZM18.715 69.4408C19.7729 69.4318 20.4032 68.9333 20.6546 68.0297C21.43 65.2391 22.1977 62.4462 22.9554 59.651C23.2966 58.3908 22.8158 57.5243 21.5696 57.1698C17.1531 55.9152 12.7355 54.6695 8.31568 53.4295C7.11934 53.0942 6.22208 53.605 5.89087 54.8057C5.12654 57.5806 4.37107 60.3566 3.62114 63.1348C3.29436 64.3434 3.80945 65.2548 4.98918 65.5879C8.8208 66.6704 12.6524 67.754 16.4852 68.8343C17.2982 69.0638 18.1157 69.2787 18.715 69.4408Z" fill="#2B2B6E"/>
<path d="M40.2421 104.414C40.2421 102.711 40.2421 101.066 40.2421 99.42C40.2421 97.8638 40.8624 97.2269 42.38 97.2269C46.9582 97.2269 51.5365 97.2246 56.1147 97.2291C56.9776 97.2302 57.619 97.7175 57.8594 98.5164C58.0809 99.2512 57.8206 100.085 57.1449 100.472C56.796 100.672 56.3473 100.78 55.943 100.783C52.1224 100.805 48.3008 100.796 44.4791 100.796C44.262 100.796 44.0438 100.796 43.7558 100.796C43.7558 101.436 43.7558 102.031 43.7558 102.624C43.7558 103.824 43.7613 105.024 43.7547 106.224C43.7491 107.244 43.0114 107.996 42.0078 107.997C37.9092 108.001 33.8117 108.002 29.7131 107.998C23.6838 107.99 19.5054 102.583 20.9964 96.6563C23.336 87.3538 25.7209 78.0615 28.0792 68.7634C28.293 67.9195 28.7538 67.3535 29.6179 67.2027C30.3135 67.0812 31.0956 67.4356 31.357 68.122C31.5298 68.5766 31.5907 69.1629 31.4733 69.631C29.4794 77.5945 27.4467 85.5478 25.4318 93.5056C25.0097 95.1721 24.4902 96.8296 24.2642 98.5265C23.8699 101.488 26.1363 104.281 29.084 104.383C32.7716 104.511 36.4647 104.414 40.2421 104.414Z" fill="#2B2B6E"/>
<path d="M52.4979 53.8155C53.6123 54 54.6624 54.1778 55.7126 54.3466C58.7898 54.8417 61.8737 55.3019 64.9444 55.8353C69.3709 56.6038 71.9773 61.8633 69.9314 65.948C66.6957 72.407 63.408 78.8401 60.1357 85.281C59.6084 86.3196 58.6093 86.6719 57.6832 86.1801C56.776 85.6985 56.5024 84.6588 57.0308 83.6157C60.2266 77.3041 63.4268 70.9948 66.6259 64.6843C67.8588 62.2515 66.5218 59.6837 63.8555 59.2718C60.0094 58.6788 56.1723 58.0352 52.3307 57.4129C51.5841 57.2925 50.8363 57.1822 50.0919 57.0461C48.828 56.8154 48.2409 55.8679 48.5987 54.6155C49.3176 52.0994 50.0498 49.5867 50.7798 47.0729C52.0294 42.7643 53.2811 38.4557 54.5328 34.1471C54.8552 33.0387 55.7148 32.4468 56.6696 32.673C57.6799 32.9127 58.2526 33.9085 57.9491 34.9753C57.1249 37.8694 56.2808 40.7591 55.4434 43.6499C54.4719 47.0076 53.4982 50.3643 52.4979 53.8155Z" fill="#2B2B6E"/>
<path d="M50.8342 21.5779C44.971 21.5633 40.2311 16.7112 40.2421 10.7361C40.2532 4.82173 45.0452 -0.00787328 50.8874 0.00562981C56.7528 0.0191329 61.4916 4.86899 61.4794 10.8464C61.4683 16.7596 56.6741 21.5926 50.8342 21.5779ZM57.9646 10.8126C57.9701 6.83032 54.7843 3.5817 50.8685 3.57382C46.9815 3.56707 43.7691 6.80331 43.7569 10.7395C43.7436 14.7499 46.9394 18.0109 50.8807 18.0075C54.7622 18.0041 57.9602 14.7566 57.9646 10.8126Z" fill="#2B2B6E"/>
</svg>
