<svg width="80" height="80" viewBox="0 0 80 80" fill="none" xmlns="http://www.w3.org/2000/svg">
<path d="M0 51.875C0.228906 50.5828 0.684375 49.3625 1.35156 48.2461C2.09062 47.0078 2.93203 45.8305 3.73281 44.6297C9.30781 36.2625 14.8742 27.8899 20.4656 19.5344C22.1789 16.9742 24.5297 15.2774 27.5828 14.6649C29.3211 14.3156 31.0289 14.5227 32.6727 15.1844C33.4922 15.5141 33.7141 16.375 33.1945 17.1578C31.75 19.3375 30.2992 21.5125 28.8516 23.6899C28.6289 24.0242 28.4086 24.3594 28.1422 24.7609C37.1789 25.9047 46.1656 27.0422 55.2062 28.1859C54.9703 29.0234 54.7469 29.8148 54.5172 30.6297C53.7547 30.5344 53.0219 30.4438 52.2891 30.3508C50.5484 30.1297 48.8078 29.9063 47.0664 29.6859C45.1195 29.4398 43.1711 29.1977 41.2242 28.9508C39.2641 28.7024 37.3047 28.4508 35.3445 28.2023C33.3844 27.9531 31.4242 27.7063 29.4641 27.4578C28.5875 27.3461 27.7094 27.2406 26.8352 27.1141C26.5852 27.0781 26.4914 27.2125 26.3789 27.3828C24.8484 29.6922 23.3141 32 21.7805 34.307C18.8281 38.7484 15.875 43.1898 12.9227 47.6313C12.3258 48.5289 11.825 48.6563 10.8492 48.2023C8.8414 47.268 6.84687 47.3352 4.94766 48.4547C3.31172 49.4195 2.41641 50.8977 2.53125 52.8266C2.6625 55.0133 3.76719 56.6258 5.79453 57.4742C6.59297 57.8078 7.5 57.9063 8.36797 58.043C10.9086 58.4445 13.4547 58.8141 15.9992 59.1922C18.557 59.5719 21.1156 59.9445 23.6727 60.325C26.3586 60.7242 29.0437 61.1305 31.7289 61.5312C34.2734 61.9109 36.818 62.2867 39.3633 62.6641C41.6766 63.007 43.9898 63.35 46.3031 63.6953C46.3516 63.7023 46.3977 63.7313 46.5102 63.7758C46.0375 63.9867 45.6195 64.1766 45.1992 64.3609C44.45 64.6891 43.6852 64.9859 42.9539 65.3508C42.4844 65.5852 42.0336 65.6102 41.5297 65.5336C37.868 64.9773 34.2039 64.4398 30.5414 63.8938C26.943 63.357 23.3453 62.8117 19.7469 62.2773C15.8008 61.6914 11.8539 61.1141 7.90703 60.5336C6.64687 60.3484 5.38281 60.1797 4.24219 59.5477C1.84922 58.2227 0.444531 56.2188 0.0703125 53.5008C0.0601562 53.4258 0.0242187 53.3547 0 53.282C0 52.8125 0 52.3438 0 51.875ZM30.1664 17.0977C29.3547 16.9766 28.6172 16.9813 27.8898 17.1445C25.6008 17.6578 23.8508 18.9852 22.5711 20.8945C17.2289 28.8656 11.9203 36.8594 6.59922 44.8453C6.52891 44.95 6.46797 45.0609 6.37344 45.218C8.05469 44.9391 9.6539 45.0453 11.218 45.6141C17.5297 36.1148 23.8242 26.6422 30.1664 17.0977Z" fill="#2B2B6E"/>
<path d="M69.2969 80C67.9734 79.5437 66.65 79.0859 65.325 78.6328C57.6727 76.0148 50.0195 73.3977 42.3672 70.7797C41.7789 70.5781 41.4375 70.1641 41.4109 69.6289C41.3828 69.0563 41.6719 68.6211 42.2617 68.3602C54.0969 63.1352 65.9336 57.9109 77.7672 52.682C78.3164 52.4391 78.8297 52.4125 79.2891 52.8375C79.7617 53.275 79.7625 53.8008 79.5539 54.3781C76.593 62.5711 73.6359 70.7656 70.6875 78.9633C70.5133 79.4469 70.2156 79.7812 69.7656 80C69.6094 80 69.4531 80 69.2969 80ZM68.6469 77.1578C71.1774 70.1406 73.6883 63.1773 76.2367 56.1094C66.15 60.5609 56.1703 64.9656 46.1117 69.4047C53.6695 72.0055 61.1359 74.5742 68.6469 77.1578Z" fill="#2B2B6E"/>
<path d="M65.3125 0C66.0125 0.292188 66.3179 0.810156 66.2539 1.57031C66.2219 1.95703 66.2484 2.34844 66.2484 2.70938C66.7336 2.93672 67.2133 3.10859 67.639 3.36953C70.7656 5.28359 70.882 9.74844 67.8617 11.8375C67.632 11.9969 67.5679 12.1203 67.6476 12.3984C68.3672 14.9203 69.0687 17.4469 69.7844 20.0016C70.1625 20.0016 70.5383 19.9984 70.914 20.0023C71.6484 20.0102 72.1859 20.5344 72.189 21.2406C72.1922 21.9555 71.6625 22.4859 70.932 22.4984C70.8039 22.5008 70.675 22.4984 70.4945 22.4984C70.7109 23.2836 70.9148 24.0305 71.1226 24.7758C71.9187 27.6266 72.7133 30.4773 73.5156 33.3266C73.6695 33.8727 73.5547 34.3375 73.1305 34.7031C72.7422 35.0375 72.2851 35.0977 71.8156 34.8906C71.4219 34.7164 71.2055 34.3914 71.0906 33.9781C70.082 30.3516 69.0672 26.7266 68.0539 23.1016C67.9984 22.9039 67.9375 22.7086 67.875 22.4992C66.032 22.4992 64.2101 22.4945 62.3883 22.5125C62.2875 22.5133 62.1312 22.6938 62.0961 22.818C61.2054 25.9656 60.3273 29.1172 59.4476 32.268C59.2906 32.8305 59.1375 33.3945 58.9765 33.9563C58.7531 34.7375 58.1172 35.1352 57.4187 34.9367C56.682 34.7273 56.3406 34.0828 56.5625 33.2789C57.5343 29.7633 58.5125 26.25 59.4875 22.7352C59.5047 22.6742 59.5187 22.6125 59.5468 22.4992C59.3867 22.4906 59.2523 22.4773 59.1179 22.4766C58.3109 22.4742 57.5031 22.4859 56.6961 22.4703C56.0672 22.4578 55.5992 22.125 55.4273 21.6102C55.2632 21.1211 55.4015 20.5266 55.8367 20.2477C56.1047 20.0758 56.4578 19.9672 56.7765 19.9555C57.7906 19.9195 58.807 19.9422 59.8226 19.9422C59.964 19.9422 60.1062 19.9422 60.2773 19.9422C61.0164 17.2891 61.7508 14.6563 62.4851 12.0195C60.7078 10.7953 59.7937 9.14922 60.0867 6.98516C60.3789 4.82422 61.6789 3.46719 63.7508 2.75234C63.7508 2.37031 63.7773 1.96719 63.7453 1.56875C63.6836 0.809375 63.9812 0.2875 64.6875 0C64.8961 0 65.1039 0 65.3125 0ZM64.9906 5.04922C63.6203 5.05391 62.5039 6.1625 62.5008 7.52188C62.4968 8.90313 63.6195 10.0172 65.0094 10.0133C66.3836 10.0094 67.4914 8.90938 67.5 7.54219C67.507 6.16719 66.3765 5.04375 64.9906 5.04922ZM62.8453 19.668C64.2992 19.668 65.7031 19.668 67.1281 19.668C67.1109 19.5633 67.107 19.4992 67.0898 19.4375C66.464 17.2305 65.8398 15.0227 65.2062 12.8172C65.1726 12.7008 65.0633 12.6063 64.9898 12.5008C64.9172 12.6055 64.8093 12.7008 64.7765 12.8172C64.3211 14.4125 63.8758 16.0109 63.4273 17.6086C63.2351 18.2922 63.0414 18.9742 62.8453 19.668Z" fill="#2B2B6E"/>
<path d="M80 32.7344C75.8438 39.9219 71.6875 47.1101 67.5273 54.2953C67.4539 54.4219 67.3414 54.5578 67.2141 54.6148C66.043 55.1422 64.8641 55.6539 63.6867 56.1687C63.6539 56.1828 63.6133 56.1797 63.5148 56.1922C67.9141 48.5976 72.2922 41.0398 76.6992 33.4312C76.4836 33.3875 76.3133 33.3531 76.1734 33.325C75.9609 32.4719 75.7516 31.6336 75.5281 30.7344C76.1211 30.8062 76.6797 30.8734 77.2391 30.9414C77.7422 31.0023 78.2438 31.0765 78.7484 31.1219C79.3547 31.1758 79.7367 31.5179 80.0008 32.032C80 32.2656 80 32.5 80 32.7344Z" fill="#2B2B6E"/>
<path d="M17.3735 54.1984C19.2789 54.4734 21.1149 54.7391 22.9516 55.0039C23.1961 55.0391 23.4516 55.0352 23.6836 55.1086C24.0836 55.2359 24.3094 55.0969 24.5547 54.7703C28.6024 49.3812 32.6641 44.0031 36.7227 38.6227C36.8149 38.5 36.9024 38.3734 37.0289 38.1969C36.3938 38.1031 35.8078 38.0148 35.2203 37.9313C33.6375 37.7055 32.0539 37.4867 30.4735 37.2492C30.2422 37.2148 30.1195 37.2812 29.9906 37.4578C29.5695 38.0344 29.132 38.6 28.6625 39.2211C29.1406 39.3359 29.5789 39.4305 30.0102 39.5469C30.6008 39.7063 30.9758 40.1914 30.9758 40.7688C30.9758 41.3453 30.5899 41.8594 30.007 41.9781C29.7774 42.025 29.5172 41.982 29.282 41.9312C28.2672 41.7117 27.2586 41.4625 26.243 41.2461C25.4352 41.0742 24.9172 40.0734 25.4945 39.3414C26.5727 37.9727 27.5805 36.5477 28.6172 35.1469C28.9547 34.6906 29.4156 34.5508 29.9602 34.6297C32.9438 35.0625 35.9274 35.493 38.9094 35.932C39.232 35.9797 39.4524 35.9258 39.6617 35.632C40.1977 34.8805 40.7844 34.1648 41.3446 33.4305C41.7008 32.9633 42.1422 32.7844 42.7391 32.8703C45.8 33.3102 48.8641 33.7266 51.9266 34.1539C52.7758 34.2727 53.6235 34.4016 54.4719 34.5266C55.5211 34.6813 55.9539 35.7148 55.3203 36.5719C54.9672 37.0508 54.5953 37.5164 54.1992 38.0305C55.5735 38.225 56.8922 38.4125 58.211 38.5984C59.5617 38.7883 60.9156 38.9594 62.2633 39.1695C63.3352 39.3367 63.7188 40.4188 63.0344 41.3055C59.6 45.7563 56.1625 50.2039 52.7258 54.6523C51.2703 56.5367 49.8094 58.418 48.361 60.3078C47.9719 60.8156 47.5102 60.9891 46.8664 60.893C44.2063 60.4953 41.5406 60.1359 38.8766 59.7594C36.368 59.4047 33.8602 59.043 31.3516 58.6898C29.0485 58.3656 26.7438 58.0508 24.4406 57.7258C21.9578 57.375 19.4758 57.0156 16.9938 56.6625C16.3508 56.5711 15.7063 56.4836 15.0617 56.4031C14.5352 56.3375 14.1102 56.1242 13.9031 55.6094C13.7063 55.1195 13.8125 54.6773 14.1336 54.2609C15.3727 52.6531 16.6024 51.0383 17.832 49.4234C18.2094 48.9273 18.6664 48.7406 19.2977 48.8992C20.3547 49.1648 21.4274 49.368 22.4883 49.6211C23.011 49.7453 23.3789 50.1898 23.4195 50.7039C23.461 51.2305 23.2524 51.6641 22.7836 51.9039C22.5586 52.0188 22.2531 52.0758 22.007 52.032C21.2406 51.8969 20.4875 51.6922 19.7242 51.5352C19.6 51.5094 19.4422 51.5656 19.3219 51.6266C19.2383 51.6688 19.1914 51.7844 19.1289 51.8672C18.561 52.6227 17.9899 53.3797 17.3735 54.1984ZM59.7789 41.3938C59.6828 41.357 59.6594 41.343 59.6344 41.3398C57.4985 41.043 55.3602 40.7602 53.2281 40.4375C52.861 40.382 52.6711 40.4695 52.4555 40.75C48.8055 45.493 45.1453 50.2273 41.4875 54.9641C40.886 55.7437 40.2867 56.5258 39.6703 57.3281C39.7719 57.3633 39.8305 57.3953 39.8922 57.4039C42.0922 57.7133 44.2914 58.0211 46.4922 58.3234C46.5695 58.3344 46.6899 58.3172 46.7305 58.2656C47.2508 57.6078 47.761 56.9414 48.3071 56.2344C47.8938 56.1344 47.5438 56.0484 47.1938 55.9648C46.8274 55.8773 46.4586 55.8 46.0953 55.7023C45.3844 55.5102 45.0055 54.882 45.1649 54.1789C45.3125 53.5273 45.9672 53.1203 46.6656 53.2734C47.6664 53.4938 48.6625 53.7383 49.6625 53.9625C49.7906 53.9914 49.993 54.0141 50.057 53.9445C50.3586 53.6156 50.6242 53.2539 50.8985 52.9102C50.8399 52.8555 50.8321 52.8422 50.8219 52.8398C50.1281 52.6734 49.4344 52.5062 48.7399 52.3422C47.9922 52.1656 47.5453 51.5258 47.7008 50.8539C47.8742 50.107 48.5235 49.7211 49.3078 49.9023C50.307 50.1336 51.3039 50.3727 52.3047 50.593C52.4352 50.6219 52.6438 50.6078 52.718 50.5258C53.0031 50.2117 53.2485 49.8609 53.5367 49.4875C52.725 49.2961 51.9711 49.1195 51.218 48.9406C50.7227 48.8227 50.3766 48.5305 50.2438 48.0336C49.9813 47.0539 50.8219 46.2695 51.875 46.5125C52.8867 46.7453 53.8938 46.9977 54.9071 47.2258C55.036 47.2547 55.2406 47.2383 55.3172 47.1555C55.6047 46.8438 55.8539 46.4969 56.1531 46.1172C55.3055 45.9172 54.5149 45.7273 53.7235 45.5445C53.0063 45.3789 52.5531 44.7383 52.6977 44.0812C52.8633 43.3289 53.5196 42.9266 54.2883 43.1078C55.3617 43.3609 56.4344 43.6203 57.5102 43.8641C57.6305 43.8914 57.8321 43.8891 57.8906 43.8164C58.5235 43.0289 59.136 42.225 59.7789 41.3938ZM39.6117 52.7445C39.3906 52.7055 39.2383 52.6742 39.0844 52.6531C36.3445 52.2742 33.6047 51.893 30.8633 51.5289C30.7242 51.5102 30.5117 51.5977 30.4242 51.7086C29.5375 52.8305 28.6695 53.968 27.7969 55.1008C27.6735 55.2617 27.55 55.4227 27.4 55.6195C28.4758 55.7727 29.4914 55.9156 30.5063 56.0609C32.3953 56.332 34.2844 56.6078 36.175 56.8695C36.2938 56.8859 36.4797 56.8398 36.5461 56.7539C37.5641 55.4398 38.568 54.1148 39.6117 52.7445ZM41.6531 37.1766C41.8961 37.2148 42.0742 37.2461 42.2539 37.2711C43.3086 37.4172 44.3641 37.5625 45.4188 37.7078C47.1172 37.943 48.8149 38.1797 50.5141 38.4094C50.5899 38.4195 50.7078 38.3937 50.75 38.3406C51.1641 37.8141 51.5656 37.2789 52.0039 36.7016C51.8375 36.6703 51.7399 36.6484 51.6414 36.6352C50.9852 36.5438 50.3289 36.4555 49.6727 36.3641C47.5375 36.0664 45.4031 35.7648 43.2672 35.4781C43.1383 35.4609 42.9438 35.5164 42.8664 35.6102C42.461 36.0992 42.0852 36.6117 41.6531 37.1766ZM42.6203 48.7687C42.4492 48.7289 42.3375 48.6945 42.2227 48.6781C39.4305 48.2906 36.6383 47.9039 33.8445 47.5258C33.7375 47.5109 33.5735 47.5539 33.511 47.6305C33.1008 48.1305 32.7117 48.6484 32.2735 49.2148C32.7946 49.2852 33.2524 49.3461 33.7102 49.4102C36.1805 49.7531 38.65 50.0984 41.1211 50.4344C41.2133 50.4469 41.3547 50.3953 41.4117 50.3242C41.8102 49.8313 42.193 49.3234 42.6203 48.7687ZM38.5219 41.1828C39.2086 41.2734 39.8117 41.3492 40.4141 41.4336C42.7281 41.757 45.0414 42.0844 47.3563 42.4031C47.4445 42.4156 47.5805 42.3883 47.6297 42.3273C48.043 41.8141 48.4406 41.2883 48.8883 40.7086C48.1844 40.6117 47.5469 40.525 46.9094 40.4367C44.6203 40.1188 42.3321 39.7984 40.0414 39.4891C39.9492 39.4766 39.8086 39.5297 39.7516 39.6008C39.3531 40.0938 38.9703 40.6008 38.5219 41.1828ZM35.4203 45.1695C35.5008 45.2063 35.5227 45.2227 35.5461 45.2258C38.1828 45.5914 40.8203 45.9531 43.4563 46.3211C44.4297 46.457 44.4281 46.4625 45.0414 45.6633C45.2235 45.4258 45.4094 45.1914 45.5875 44.9516C45.6352 44.8867 45.6617 44.8063 45.7063 44.7164C43.9305 44.4695 42.1945 44.2273 40.4586 43.9859C39.3649 43.8344 38.2727 43.6766 37.1774 43.5383C37.0008 43.5156 36.736 43.5102 36.6453 43.6141C36.2196 44.1 35.8399 44.6273 35.4203 45.1695Z" fill="#2B2B6E"/>
<path d="M23.8812 45.7086C24.4054 45.7875 24.9156 45.8695 25.4273 45.9406C26.1453 46.0406 26.6367 46.5898 26.5961 47.2601C26.5539 47.9687 26.0101 48.4953 25.2648 48.4367C24.3601 48.3656 23.4617 48.2125 22.5617 48.089C22.1242 48.0289 21.6883 47.9625 21.2531 47.8867C20.3297 47.7265 19.868 46.6805 20.4398 45.9398C21.282 44.8492 22.1734 43.7953 23.0617 42.7414C23.3383 42.4133 23.7336 42.2961 24.1593 42.3672C25.1578 42.5344 26.1554 42.7109 27.1515 42.893C27.9031 43.0305 28.3797 43.6695 28.2445 44.3398C28.0929 45.0922 27.4515 45.5055 26.6687 45.3586C26.1461 45.2601 25.6234 45.1594 25.0984 45.0719C24.3312 44.9422 24.3172 44.9539 23.8812 45.7086Z" fill="#2B2B6E"/>
<path d="M62.0609 31.5649C62.3008 30.7203 62.5234 29.9375 62.7523 29.1289C63.5008 29.218 64.2219 29.2992 64.9414 29.3906C65.6758 29.4844 66.4094 29.5821 67.1414 29.693C67.2461 29.7086 67.4016 29.7867 67.4273 29.8696C67.675 30.6711 67.9 31.4797 68.1469 32.3391C66.1 32.0774 64.1086 31.825 62.0609 31.5649Z" fill="#2B2B6E"/>
<path d="M56.7234 68.0773C56.7539 67.6156 57.0508 67.2398 57.5789 67.0078C60.0281 65.9313 62.4727 64.8453 64.9195 63.7633C66.6063 63.018 68.2961 62.2805 69.9781 61.5242C70.5281 61.2766 71.0391 61.261 71.4985 61.6828C71.9742 62.1195 71.9781 62.6524 71.7711 63.225C70.7547 66.032 69.7445 68.8406 68.7313 71.6492C68.3852 72.6094 67.7805 72.893 66.8094 72.5594C63.7531 71.5086 60.6977 70.4586 57.6414 69.4078C57.0523 69.2055 56.7195 68.7656 56.7234 68.0773ZM61.418 68.0484C63.2375 68.6742 64.9469 69.2617 66.6828 69.8586C67.2695 68.2344 67.8484 66.6328 68.4602 64.9422C66.0899 65.9875 63.8078 66.9945 61.418 68.0484Z" fill="#2B2B6E"/>
</svg>
