<svg width="64" height="65" viewBox="0 0 64 65" fill="none" xmlns="http://www.w3.org/2000/svg">
<g clip-path="url(#clip0)">
<circle cx="32" cy="32.0991" r="28" transform="rotate(-180 32 32.0991)" fill="white"/>
<path d="M32 64.0991C49.6731 64.0991 64 49.7722 64 32.0991C64 14.426 49.6731 0.0991198 32 0.0991183C14.3269 0.0991168 4.34256e-06 14.426 2.79753e-06 32.0991C1.2525e-06 49.7722 14.3269 64.0991 32 64.0991ZM34.4492 49.0366L33.0742 42.7045C37.1031 41.8127 40.8078 40.6529 40.5078 36.1538L35.7734 36.1538L35.7734 19.3022L50.0351 19.3022L50.0351 35.0522C50.0301 47.5691 40.8404 48.5875 34.4492 49.0366ZM15.3437 49.0366L13.9649 42.7045C17.9937 41.8127 21.6985 40.6529 21.3985 36.1538L16.6641 36.1538L16.6641 19.3022L30.9258 19.3022L30.9258 35.0522C30.9207 47.5691 21.7349 48.5875 15.3437 49.0366Z" fill="#00C2FF"/>
</g>
<defs>
<clipPath id="clip0">
<rect width="64" height="64" fill="white" transform="translate(64 64.0991) rotate(-180)"/>
</clipPath>
</defs>
</svg>
