<svg width="92" height="104" viewBox="0 0 92 104" fill="none" xmlns="http://www.w3.org/2000/svg">
<path d="M50.0525 55.3129C48.3268 54.8452 46.6611 54.4175 45.0104 53.9384C43.2813 53.4365 41.922 52.4041 40.7724 51.0353C39.9649 50.0737 39.0606 49.1874 38.1667 48.2999C36.5805 46.7269 34.6452 45.8086 32.4773 45.2542C29.6135 44.5207 26.9894 43.2591 24.6106 41.4899C22.9887 40.283 21.2677 39.2039 19.663 37.9765C18.6021 37.1655 17.6828 36.2039 17.3119 34.8282C16.494 31.7962 18.306 29.419 21.4647 29.4566C22.9991 29.4749 24.5334 29.5148 26.0678 29.5399C26.4514 29.5456 26.8373 29.549 27.2186 29.5194C28.1655 29.4487 28.9005 29.1601 29.4753 28.2555C31.2493 25.4676 33.2894 22.8737 35.8352 20.7132C37.2889 19.4801 38.8705 18.5447 40.8657 18.45C41.6617 18.4124 42.2331 17.8968 42.6005 17.1964C42.7376 16.9352 42.763 16.6968 42.4001 16.561C41.505 16.2257 40.6284 15.8424 39.723 15.5412C39.132 15.345 38.5515 15.4032 38.1195 15.9633C37.8649 16.2941 37.5493 16.5781 37.2843 16.9021C35.7361 18.7968 33.1661 19.3694 30.9555 18.2903C29.8969 17.7736 28.9074 17.1599 28.2174 16.1766C27.1714 14.6857 27.5009 12.9062 29.0352 11.9092C29.8819 11.3583 30.4464 10.6259 30.6491 9.65293C30.6917 9.44647 30.5835 9.11794 30.4256 8.97878C29.4764 8.1358 28.3429 7.63503 27.0942 7.41374C26.8316 7.36697 26.5021 7.41031 26.2683 7.53237C17.472 12.126 11.02 18.9074 6.93405 27.8893C6.90295 27.9578 6.87991 28.0296 6.85802 28.1015C6.85341 28.1175 6.86608 28.138 6.88221 28.203C8.01688 28.6274 9.04671 29.265 9.83925 30.23C10.9612 31.5966 11.4577 33.2221 11.7987 34.9103C11.8966 35.3929 11.9957 35.8788 12.1489 36.3453C12.9967 38.9313 14.2869 39.9294 17.3303 40.0207C19.0824 40.0732 20.7044 40.4473 22.1662 41.4249C22.4519 41.6165 22.7491 41.791 23.0405 41.9747C24.545 42.9238 26.0506 43.8694 27.5527 44.8219C28.7887 45.6044 28.9846 46.6174 28.169 47.8117C27.343 49.0208 26.7083 50.3292 26.63 51.803C26.5966 52.4349 26.7302 53.1319 26.9882 53.7114C27.4985 54.8578 28.404 55.7236 29.3647 56.5312C31.1502 58.0335 32.4197 59.9008 33.0175 62.1423C33.3182 63.2704 33.4288 64.4591 33.5175 65.6283C33.5866 66.5431 32.8332 67.3051 31.9232 67.4272C30.9866 67.5526 30.1066 66.9891 29.8877 66.056C29.7368 65.4115 29.67 64.7477 29.5813 64.0906C29.3059 62.051 28.2577 60.4438 26.7555 59.0807C26.1911 58.5673 25.6232 58.0517 25.1071 57.4928C22.8896 55.0928 22.4899 52.3037 23.3965 49.2683C23.6061 48.5645 23.9287 47.8938 24.2236 47.1455C23.4253 46.6059 22.5371 46.1052 21.7676 45.4641C20.2862 44.2299 18.5825 43.7953 16.691 43.6664C12.7709 43.3983 10.1307 41.3667 8.82324 37.6902C8.53756 36.8883 8.38435 36.0431 8.12862 35.2297C7.92472 34.5807 7.69779 33.9328 7.41095 33.3168C7.05385 32.5491 6.40185 32.1031 5.47799 31.8567C5.19231 32.8742 4.89396 33.8632 4.63823 34.8624C3.48513 39.3591 3.12803 43.9253 3.53121 48.5406C4.03115 54.2623 5.64618 59.6693 8.38319 64.7374C8.75642 65.4286 8.79444 66.0766 8.43503 66.7918C7.87634 67.9028 5.51485 67.5732 5.02182 66.3674C4.30301 64.6119 3.42062 62.918 2.75941 61.143C0.558041 55.2411 -0.285182 49.1246 0.0822882 42.8496C1.13632 24.8585 13.0751 9.0187 30.2252 2.80416C35.6336 0.844438 41.2159 -0.186755 46.9629 0.0265556C62.4278 0.601469 74.7305 7.11031 83.8873 19.5006C87.9848 25.0444 90.3163 31.2624 91.3992 37.9686C93.0107 47.9485 91.3542 57.4255 86.6693 66.3925C86.1187 67.4465 85.0243 67.8367 84.067 67.3382C83.1029 66.8363 82.7988 65.7458 83.3644 64.6861C85.5957 60.5054 87.0771 56.0772 87.7993 51.4083C88.3177 48.0535 88.4928 44.677 88.0919 41.2971C87.8777 39.4914 87.5459 37.6982 87.2614 35.9005C87.2326 35.718 87.1658 35.5411 87.1082 35.3301C86.2661 35.3301 85.4413 35.3005 84.62 35.3358C81.6088 35.4624 78.7255 34.8088 75.8491 34.0309C73.6915 33.4468 71.5086 32.9506 69.3279 32.4567C67.759 32.1019 66.2995 32.4384 64.916 33.2426C62.2884 34.7723 60.534 36.9579 59.7956 39.8906C59.48 41.1431 59.5514 42.423 59.9534 43.6584C60.2863 44.6839 60.9844 45.1858 62.0707 45.1493C64.2536 45.0751 66.4354 44.9086 68.6183 44.8766C69.7173 44.8607 70.8381 44.9633 71.9164 45.1766C72.9404 45.3797 73.6604 46.0881 74.097 47.0463C74.6096 48.171 74.8941 49.3448 74.8112 50.5824C74.7064 52.1463 74.9828 53.6235 75.5807 55.0825C76.2189 56.6384 76.3179 58.2833 76.1198 59.9567C76.0311 60.7073 76.0852 61.475 76.0864 62.2347C76.0875 63.3127 75.3365 64.1454 74.3251 64.175C73.2895 64.2047 72.4301 63.4495 72.4048 62.3887C72.3806 61.3666 72.4244 60.3411 72.4923 59.3213C72.5614 58.2799 72.4716 57.2647 72.0707 56.303C71.3196 54.4985 70.9787 52.6391 71.1273 50.6862C71.1595 50.2596 71.057 49.8204 71.0029 49.3893C70.9303 48.8064 70.5939 48.5314 69.9972 48.5725C68.6034 48.6672 67.2118 48.7835 65.8168 48.8486C64.211 48.9227 62.5868 49.1223 61.0017 48.9626C58.3879 48.698 56.7188 46.9539 56.1624 44.3245C54.9194 38.4545 58.3407 32.9004 62.9634 30.2084C65.7108 28.6091 68.5435 28.5144 71.5097 29.2331C74.15 29.873 76.7822 30.5415 79.4213 31.1825C81.4879 31.6844 83.5901 31.7506 85.7869 31.6342C85.7305 31.4221 85.6924 31.2282 85.6279 31.0445C84.6891 28.3456 83.4876 25.7676 82.0304 23.3037C81.8553 23.0071 81.6595 22.8805 81.3128 22.8657C79.806 22.7984 78.3811 23.1908 76.9872 23.6664C75.0162 24.3395 73.0867 25.1357 71.11 25.7904C69.0158 26.484 66.8639 27.0543 64.6338 26.8764C61.2874 26.6095 58.2393 25.5007 55.6682 23.3048C54.2179 22.066 54.0923 20.8284 55.3641 19.4071C56.1439 18.5344 57.0943 17.7964 58.0354 17.0846C59.6505 15.864 61.338 14.7382 62.9519 13.5176C63.5866 13.0374 64.1258 12.4271 64.6764 11.8465C65.7212 10.7457 66.948 9.93012 68.5008 9.40084C62.8909 5.91485 56.8938 3.82623 50.4038 3.12242C43.9114 2.41861 37.5942 3.18059 31.3864 5.3639C31.8345 5.69128 32.2526 5.97075 32.6408 6.28672C34.3031 7.63845 34.7408 9.33239 34.0738 11.34C33.6707 12.5549 33.0244 13.6146 32.0925 14.4998C31.9704 14.6161 31.8172 14.6994 31.6502 14.818C31.8183 14.9264 31.8805 14.9732 31.9474 15.0085C33.347 15.7431 33.514 15.7078 34.5945 14.5488C35.0495 14.0606 35.508 13.5678 36.0114 13.1309C37.2233 12.0781 38.6816 11.8282 40.1653 12.2606C41.6076 12.6804 43.0244 13.2427 44.3711 13.9055C45.7983 14.607 46.4515 16.3112 46.0852 17.8557C45.4885 20.3778 43.271 22.2235 40.6537 22.3375C39.9096 22.3695 39.3382 22.7185 38.8003 23.1543C36.7924 24.7775 35.159 26.7429 33.6154 28.7859C33.1557 29.3928 32.6777 30.003 32.331 30.6738C31.1583 32.9392 29.2126 33.6761 26.7936 33.5461C24.8433 33.4411 22.8942 33.3305 20.944 33.2232C20.8945 33.2894 20.8438 33.3556 20.7942 33.4217C21.0361 33.7993 21.2101 34.251 21.5338 34.5385C22.3747 35.2856 23.2375 36.0237 24.1694 36.651C25.8179 37.7598 27.5101 38.807 29.2092 39.8382C30.9348 40.8842 32.7929 41.6633 34.7512 42.1481C37.1956 42.7527 39.2023 44.061 40.9855 45.7481C41.8863 46.6002 42.8044 47.4603 43.552 48.4402C44.6775 49.9151 46.2073 50.6338 47.9214 51.0821C48.6966 51.284 49.5133 51.333 50.284 51.5463C51.0155 51.7482 51.7493 52.0049 52.4151 52.3608C54.0509 53.2346 54.4955 54.3205 54.0186 56.108C53.8723 56.6555 53.6638 57.1894 53.4622 57.7209C52.8874 59.2461 52.2826 60.762 51.7251 62.2929C51.0593 64.1191 49.814 65.3328 47.9375 65.8849C47.6242 65.9773 47.5401 66.1017 47.4825 66.4108C47.2544 67.6199 47.0539 68.845 46.683 70.0143C46.4607 70.7147 46.008 71.374 45.5414 71.9603C44.9482 72.7052 43.8896 72.7348 43.0337 72.1497C42.3943 71.7128 42.0914 70.6519 42.5464 69.9481C43.6131 68.2975 43.6949 66.4382 43.8158 64.5891C43.9068 63.2077 44.4736 62.5769 45.8513 62.5005C46.9572 62.4389 47.5597 61.9632 47.9156 60.9252C48.2416 59.975 48.5895 59.0305 48.9489 58.0917C49.306 57.1449 49.6907 56.2175 50.0525 55.3129ZM79.0745 19.0934C77.2141 16.6386 75.0485 14.364 72.6098 12.3495C72.4428 12.2115 72.1076 12.1899 71.8726 12.2321C69.8486 12.5959 68.1437 13.5153 66.7464 15.0416C65.1867 16.7447 63.2468 17.9835 61.3173 19.2325C60.3174 19.8805 59.3959 20.647 58.3799 21.4044C58.5999 21.5299 58.6955 21.5892 58.7946 21.6406C61.9647 23.2797 65.2742 23.4725 68.669 22.5075C69.935 22.1482 71.1618 21.6565 72.414 21.2459C74.6234 20.5227 76.8409 19.8143 79.0745 19.0934Z" fill="#2B2B6E"/>
<path d="M45.6504 85.3689C46.1354 84.2921 46.5271 83.2849 47.0281 82.3335C51.4124 73.9962 58.2515 68.8493 67.5996 67.1736C75.2657 65.7991 82.3237 67.4907 88.755 71.8208C89.3943 72.252 89.7111 72.8212 89.7722 73.573C90.7698 85.7739 83.6116 97.3783 72.114 101.868C63.0978 105.389 54.3948 104.514 46.1319 99.4863C45.7967 99.2821 45.5686 99.2593 45.2242 99.4771C39.8619 102.879 33.9824 104.331 27.6467 103.864C15.1504 102.945 4.73453 93.8432 2.1127 81.6343C1.54134 78.9742 1.4008 76.2947 1.57359 73.5889C1.62198 72.8361 1.93761 72.2657 2.57579 71.8288C6.51313 69.1356 10.8375 67.4576 15.6008 66.9284C28.6466 65.4797 40.7581 72.7642 45.4442 84.8682C45.4972 85.0073 45.5571 85.1442 45.6504 85.3689ZM49.6246 97.3942C49.8711 97.5231 50.0831 97.6395 50.3008 97.7456C54.8061 99.9403 59.5394 100.758 64.5377 100.166C68.0385 99.752 71.363 98.7037 74.3016 96.8684C82.3997 91.8128 86.329 84.4233 86.2403 74.9384C86.2369 74.53 86.1125 74.295 85.7646 74.0737C80.8262 70.9277 75.4397 69.6204 69.6005 70.2204C64.2635 70.7691 59.5924 72.8509 55.6263 76.419C51.2477 80.3578 48.6616 85.2697 47.7712 91.0531C47.6237 92.0147 47.5845 92.9922 47.4855 94.0702C56.754 88.791 65.9223 83.6317 75.859 79.986C67.7712 86.7218 58.8448 92.212 49.6246 97.3942ZM15.3393 79.9951C25.223 83.6933 34.442 88.7283 43.5977 93.9618C43.5977 93.6265 43.6242 93.339 43.5931 93.0584C43.4986 92.2097 43.4191 91.3576 43.2694 90.5181C42.1669 84.3286 39.1454 79.24 34.1402 75.3855C28.6339 71.1455 22.3639 69.5383 15.4476 70.452C11.8593 70.9265 8.56013 72.1881 5.52822 74.1353C5.34045 74.2562 5.14577 74.5243 5.13541 74.7319C5.04095 76.711 5.17342 78.6742 5.56047 80.6236C8.47604 95.2919 23.7358 103.94 37.9635 98.9593C39.18 98.5338 40.3469 97.9703 41.6163 97.4376C32.3328 92.2177 23.4191 86.7378 15.3393 79.9951Z" fill="#2B2B6E"/>
</svg>
