<svg width="21" height="21" viewBox="0 0 21 21" fill="none" xmlns="http://www.w3.org/2000/svg">
<path d="M12.7687 4.73027C14.5879 5.08431 16.0069 6.50046 16.3616 8.31603M12.7687 1.09912C16.5708 1.5167 19.5725 4.5124 20 8.30696M19.0904 15.5511V18.2745C19.0904 19.273 18.2809 20.09 17.2803 20.0991C17.2257 20.0991 17.1621 20.0991 17.1075 20.09C14.3059 19.7905 11.6226 18.8282 9.25765 17.3031C7.05642 15.9051 5.20084 14.0533 3.80006 11.8564C2.26284 9.48708 1.30776 6.79095 1.00759 3.98589C0.916633 2.98732 1.65341 2.10677 2.65397 2.01599C2.70854 2.00691 2.76312 2.00691 2.81769 2.00691H5.54649C6.45609 1.99783 7.23834 2.66959 7.36568 3.5683C7.48393 4.43978 7.69314 5.2931 8.0024 6.11919C8.24799 6.78187 8.09336 7.52626 7.59308 8.03462L6.43789 9.18751C7.72952 11.457 9.62149 13.3452 11.8955 14.6342L13.0507 13.4813C13.56 12.9821 14.3059 12.8277 14.9699 13.0728C15.7977 13.3815 16.6527 13.5903 17.5259 13.7083C18.4355 13.8354 19.1086 14.6252 19.0904 15.5511Z" stroke="#00C2FF" stroke-width="1.6" stroke-linecap="round" stroke-linejoin="round"/>
</svg>
