<svg width="21" height="21" viewBox="0 0 21 21" fill="none" xmlns="http://www.w3.org/2000/svg">
<path d="M12.7687 4.63115C14.5879 4.98519 16.0069 6.40134 16.3616 8.21691M12.7687 1C16.5708 1.41758 19.5725 4.41328 20 8.20784M19.0904 15.452V18.1753C19.0904 19.1739 18.2809 19.9909 17.2803 20C17.2257 20 17.1621 20 17.1075 19.9909C14.3059 19.6914 11.6226 18.7291 9.25765 17.204C7.05642 15.806 5.20084 13.9541 3.80006 11.7573C2.26284 9.38796 1.30776 6.69183 1.00759 3.88677C0.916633 2.8882 1.65341 2.00764 2.65397 1.91687C2.70854 1.90779 2.76312 1.90779 2.81769 1.90779H5.54649C6.45609 1.89871 7.23834 2.57047 7.36568 3.46918C7.48393 4.34066 7.69314 5.19398 8.0024 6.02007C8.24799 6.68275 8.09336 7.42714 7.59308 7.9355L6.43789 9.08839C7.72952 11.3579 9.62149 13.2461 11.8955 14.5351L13.0507 13.3822C13.56 12.8829 14.3059 12.7286 14.9699 12.9737C15.7977 13.2824 16.6527 13.4912 17.5259 13.6092C18.4355 13.7363 19.1086 14.526 19.0904 15.452Z" stroke="#00C2FF" stroke-width="1.8" stroke-linecap="round" stroke-linejoin="round"/>
</svg>
