<svg width="92" height="107" viewBox="0 0 92 107" fill="none" xmlns="http://www.w3.org/2000/svg">
<path d="M35.0871 49.9218C34.2165 48.8805 33.4268 47.9351 32.6348 46.9908C27.8608 41.305 23.0846 35.6202 18.3139 29.9321C17.2908 28.7125 17.4788 27.621 18.8305 26.8038C24.5458 23.3477 30.2567 19.8838 35.9841 16.45C36.4011 16.2002 36.9453 16.0486 37.4309 16.0464C43.1274 16.0185 48.8228 16.0174 54.5193 16.0475C55.0403 16.0497 55.6221 16.2114 56.07 16.4801C61.7831 19.9016 67.4763 23.3566 73.1739 26.8038C74.5189 27.6177 74.7003 28.7203 73.6783 29.9399C68.3357 36.3092 62.9888 42.674 57.6429 49.0411C57.4295 49.2964 57.2171 49.5528 56.9107 49.9207C57.1994 49.9207 57.3852 49.9207 57.571 49.9207C66.5483 49.9207 75.5255 49.9318 84.5027 49.9062C85.6365 49.9029 86.3079 50.3388 86.7459 51.389C88.3918 55.3368 90.0864 59.2633 91.761 63.1988C92.4302 64.7719 91.6537 65.9693 89.968 65.9715C88.936 65.9726 87.904 65.976 86.8709 65.9793C86.8366 65.9793 86.8034 65.9994 86.7006 66.0317C86.7006 66.2447 86.7006 66.4788 86.7006 66.7129C86.7006 79.4403 86.7006 92.1677 86.7006 104.895C86.7006 106.353 86.0612 106.999 84.6155 106.999C58.8453 106.999 33.0739 106.999 7.30368 106.999C6.27389 106.999 5.63345 106.598 5.38015 105.755C5.30272 105.495 5.29719 105.207 5.29719 104.932C5.29387 92.2235 5.29387 79.515 5.29387 66.8055C5.29387 66.549 5.29387 66.2926 5.29387 65.9715C4.17006 65.9715 3.08275 65.8979 2.00981 65.9905C0.668098 66.1053 -0.486685 64.811 0.206848 63.2278C1.94345 59.26 3.61921 55.2654 5.3005 51.2742C5.70313 50.3176 6.35463 49.9062 7.39659 49.9095C16.3926 49.9296 25.3875 49.9218 34.3836 49.9218C34.5771 49.9218 34.7718 49.9218 35.0871 49.9218ZM8.87104 65.9949C8.87104 78.4994 8.87104 90.9536 8.87104 103.389C22.4486 103.389 35.9841 103.389 49.5075 103.389C49.5075 90.9012 49.5075 78.4592 49.5075 65.9949C35.9531 65.9949 22.4298 65.9949 8.87104 65.9949ZM83.1433 65.9726C82.8634 65.9726 82.6433 65.9726 82.4232 65.9726C76.876 65.9726 71.3289 65.9604 65.7817 65.9838C64.7376 65.9883 64.0938 65.5613 63.6967 64.6036C62.7554 62.3292 61.7798 60.0694 60.8153 57.8051C60.6162 57.3368 60.4082 56.8719 60.1549 56.2911C60.01 56.6155 59.9116 56.8262 59.8209 57.0392C58.7336 59.5945 57.6452 62.1475 56.5634 64.705C56.2094 65.5423 55.6243 66.0061 54.6907 65.9749C54.1642 65.9582 53.6366 65.9715 53.1101 65.9715C53.1101 78.496 53.1101 90.948 53.1101 103.396C63.1425 103.396 73.1385 103.396 83.1411 103.396C83.1433 90.9168 83.1433 78.4771 83.1433 65.9726ZM57.425 53.4861C57.1695 53.4861 56.9715 53.4861 56.7746 53.4861C53.6233 53.4861 50.4709 53.4861 47.3196 53.4861C34.492 53.4861 21.6633 53.4861 8.83565 53.4827C8.49828 53.4827 8.22728 53.4649 8.05362 53.8841C6.93202 56.5854 5.77724 59.2723 4.63573 61.9658C4.58153 62.0929 4.55277 62.2311 4.5041 62.3883C4.66781 62.3972 4.77731 62.4084 4.88682 62.4084C20.9952 62.4095 37.1035 62.4084 53.213 62.4173C53.5658 62.4173 53.7262 62.2991 53.86 61.9803C54.9783 59.318 56.1132 56.6646 57.2414 54.0067C57.3045 53.8584 57.3487 53.7035 57.425 53.4861ZM55.7747 30.3246C49.2332 30.3246 42.7602 30.3246 36.2087 30.3246C38.7118 36.8856 41.1961 43.3953 43.686 49.9218C45.0388 49.9218 46.3661 49.8939 47.6901 49.9363C48.1846 49.9519 48.3814 49.7791 48.5507 49.332C50.7773 43.4511 53.026 37.5779 55.2681 31.7025C55.4362 31.2588 55.5955 30.8118 55.7747 30.3246ZM87.529 62.4084C87.424 62.1442 87.3598 61.9736 87.289 61.8064C86.1818 59.2009 85.0646 56.5999 83.9773 53.9866C83.8158 53.5975 83.6245 53.4749 83.2119 53.476C76.6515 53.4894 70.0923 53.4861 63.5319 53.4849C63.3361 53.4849 63.1403 53.4849 62.8771 53.4849C62.9689 53.7269 63.0264 53.8963 63.0972 54.0625C64.2044 56.669 65.3238 59.2689 66.4089 61.8844C66.5803 62.2969 66.7805 62.4195 67.2152 62.4184C73.7756 62.4028 80.3349 62.4073 86.8952 62.4073C87.0789 62.4084 87.2614 62.4084 87.529 62.4084ZM23.3069 30.3279C28.8176 36.8912 34.2707 43.3887 39.7737 49.943C39.7891 49.8003 39.8057 49.759 39.7947 49.7301C37.3657 43.353 34.9355 36.977 32.4888 30.6066C32.4335 30.4628 32.1724 30.3112 32.0065 30.3101C29.207 30.2922 26.4063 30.2978 23.6067 30.2989C23.5392 30.2978 23.4729 30.3101 23.3069 30.3279ZM52.1666 49.8181C52.202 49.8404 52.2374 49.8638 52.2728 49.8861C57.7259 43.3898 63.179 36.8934 68.7174 30.2956C68.3988 30.2956 68.2052 30.2956 68.0105 30.2956C65.4134 30.2956 62.8151 30.3078 60.218 30.2844C59.7634 30.28 59.551 30.4126 59.3862 30.8486C57.5511 35.7116 55.6929 40.5669 53.8401 45.4233C53.2826 46.8894 52.724 48.3532 52.1666 49.8181ZM37.9696 26.6845C43.3652 26.6845 48.6701 26.6845 54.0702 26.6845C52.0051 24.6064 49.9731 22.6364 48.0374 20.575C47.3273 19.8191 46.6128 19.4668 45.5951 19.575C45.1693 19.6207 44.8496 19.6998 44.5377 20.0187C42.4947 22.1079 40.4296 24.1738 38.3722 26.2486C38.2472 26.3746 38.13 26.5095 37.9696 26.6845ZM52.0549 19.614C54.4264 21.9987 56.6895 24.2819 58.9681 26.5485C59.0997 26.6789 59.3618 26.7235 59.5643 26.7246C61.3683 26.738 63.1713 26.7324 64.9754 26.7324C65.295 26.7324 65.6147 26.7324 65.9355 26.7324C65.7563 26.5028 65.5594 26.3779 65.3614 26.2575C62.0674 24.2641 58.7413 22.3231 55.4971 20.2495C54.4164 19.5582 53.3468 19.5828 52.0549 19.614ZM39.965 19.5939C39.2162 19.5939 38.6333 19.5738 38.0514 19.6028C37.8081 19.6151 37.5415 19.6809 37.3336 19.8046C33.6701 22.0043 30.0144 24.2173 26.3576 26.4292C26.2481 26.4961 26.1541 26.5886 25.9738 26.7313C28.2601 26.7313 30.4314 26.7347 32.6027 26.7235C32.7498 26.7224 32.9335 26.6533 33.0363 26.5507C35.3094 24.2797 37.5736 21.9987 39.965 19.5939Z" fill="#2B2B6E"/>
<path d="M28.0975 3.91431C29.2202 3.44495 30.2722 3.00458 31.3816 2.54079C32.2842 4.73486 33.1823 6.91667 34.1004 9.14753C32.9899 9.61132 31.9291 10.0539 30.8153 10.5188C29.9027 8.30134 29.0112 6.13403 28.0975 3.91431Z" fill="#2B2B6E"/>
<path d="M57.8963 9.14532C58.8166 6.90776 59.7082 4.74045 60.6141 2.53746C61.7235 3.00125 62.7865 3.44497 63.8981 3.90987C62.9911 6.11732 62.1007 8.28463 61.1848 10.5121C60.0887 10.0562 59.0257 9.61468 57.8963 9.14532Z" fill="#2B2B6E"/>
<path d="M44.269 0C45.4393 0 46.5719 0 47.7355 0C47.7355 2.35461 47.7355 4.6847 47.7355 7.0605C46.6029 7.0605 45.4558 7.0605 44.269 7.0605C44.269 4.73487 44.269 2.39141 44.269 0Z" fill="#2B2B6E"/>
<path d="M17.2577 11.384C18.8538 12.9916 20.5063 14.6573 22.1412 16.3039C21.3459 17.1055 20.5273 17.9305 19.7354 18.7288C18.1094 17.0877 16.459 15.4221 14.8319 13.781C15.6129 13.0084 16.4347 12.1967 17.2577 11.384Z" fill="#2B2B6E"/>
<path d="M74.8111 11.3137C75.613 12.1231 76.4205 12.9359 77.1826 13.7051C75.5311 15.3685 73.8686 17.0442 72.2194 18.7065C71.4628 17.9461 70.641 17.1211 69.8446 16.3206C71.4872 14.6639 73.1397 12.9983 74.8111 11.3137Z" fill="#2B2B6E"/>
<path d="M35.3769 76.6977C35.3758 80.6243 32.2145 83.8106 28.3188 83.8095C24.3556 83.8084 21.2164 80.6299 21.222 76.623C21.2275 72.7009 24.3899 69.5403 28.3077 69.5425C32.2422 69.5458 35.378 72.7199 35.3769 76.6977ZM28.3022 80.2442C30.2091 80.2464 31.8241 78.6287 31.8384 76.7022C31.8528 74.7534 30.2302 73.1067 28.2978 73.1101C26.3831 73.1134 24.7803 74.7177 24.7615 76.6509C24.7438 78.5964 26.3654 80.2419 28.3022 80.2442Z" fill="#2B2B6E"/>
<path d="M14.1837 94.5402C19.4854 94.5402 24.7449 94.5402 30.0366 94.5402C30.0366 95.7063 30.0366 96.8502 30.0366 98.0375C24.7715 98.0375 19.4975 98.0375 14.1837 98.0375C14.1837 96.8981 14.1837 95.7409 14.1837 94.5402Z" fill="#2B2B6E"/>
<path d="M44.1993 94.5536C44.1993 95.7409 44.1993 96.8836 44.1993 98.0543C40.6807 98.0543 37.1898 98.0543 33.6547 98.0543C33.6547 96.9037 33.6547 95.7476 33.6547 94.5536C37.15 94.5536 40.6542 94.5536 44.1993 94.5536Z" fill="#2B2B6E"/>
<path d="M37.1046 90.9235C34.169 90.9235 31.2677 90.9235 28.3331 90.9235C28.3331 89.7596 28.3331 88.6157 28.3331 87.4273C31.2323 87.4273 34.1469 87.4273 37.1046 87.4273C37.1046 88.5611 37.1046 89.7172 37.1046 90.9235Z" fill="#2B2B6E"/>
<path d="M19.492 87.4061C21.254 87.4061 22.9763 87.4061 24.7283 87.4061C24.7283 88.5723 24.7283 89.715 24.7283 90.9012C23.0028 90.9012 21.2673 90.9012 19.492 90.9012C19.492 89.7618 19.492 88.6057 19.492 87.4061Z" fill="#2B2B6E"/>
</svg>
