<svg width="104" height="103" viewBox="0 0 104 103" fill="none" xmlns="http://www.w3.org/2000/svg">
<path d="M54.9456 82.3982C54.9456 82.6836 54.9456 82.8961 54.9456 83.1085C54.9456 89.0621 54.9456 95.0168 54.9456 100.97C54.9456 102.374 54.3231 103 52.9269 103C35.9543 103 18.9817 103 2.01018 102.999C0.642923 102.999 0.00222466 102.367 0.00222466 101.014C0.00222466 86.4785 -0.00421452 71.9416 0.00544425 57.4057C0.00866384 52.8394 1.98549 49.3417 5.8329 46.9019C8.11022 45.4577 10.4058 44.0404 12.6928 42.6102C12.8709 42.4986 13.0459 42.3795 13.2476 42.2465C12.197 40.6521 11.3373 38.9998 10.936 37.1759C10.6279 35.7725 10.3435 34.3273 10.3339 32.8992C10.277 24.7826 10.3006 16.6649 10.3081 8.54723C10.3114 4.57744 13.7037 1.41019 17.6617 1.75889C18.5524 1.83721 19.4121 2.27389 20.3028 2.5507C20.8501 2.09685 21.4554 1.51104 22.1423 1.0454C23.1994 0.328688 24.4024 0.00252152 25.687 0.00466735C27.5823 0.0078861 29.4786 -0.00606181 31.3739 0.0111049C37.6231 0.0679694 43.4613 5.09995 44.4175 11.2724C44.5592 12.1855 44.6214 13.1189 44.6354 14.0438C44.6665 16.2046 44.6451 18.3666 44.6451 20.5585C45.1537 20.6519 45.5412 20.6229 45.9458 20.2141C47.9366 18.2046 50.3684 17.1842 53.2038 17.1746C56.8881 17.1638 60.5724 17.1788 64.2566 17.1585C64.5432 17.1574 64.8802 17.0286 65.1066 16.8484C67.6426 14.8356 70.5069 13.7466 73.7566 13.7412C78.997 13.7316 84.2374 13.7273 89.4768 13.7423C96.3055 13.7616 102.23 19.0489 102.913 25.8351C103.491 31.5752 101.255 36.0236 96.4482 39.1994C96.2787 39.312 96.0877 39.5245 96.0662 39.709C95.7099 42.9063 94.5476 45.7807 92.6674 48.3803C91.0973 50.5519 89.4757 52.6924 88.0065 54.9316C86.2829 57.5581 84.6903 60.2693 83.0591 62.9548C81.548 65.4429 80.0681 67.9493 78.5602 70.4395C74.7268 76.7687 69.1697 80.6451 61.9031 82.0313C60.6818 82.2641 59.4208 82.3199 58.1748 82.3875C57.1242 82.4433 56.0692 82.3982 54.9456 82.3982ZM10.9156 47.7838C9.58802 48.6207 8.27335 49.3814 7.03274 50.2494C5.21796 51.5208 4.031 53.2675 3.64465 55.4594C3.21108 57.9207 3.4064 60.4152 3.50836 62.8926C3.5545 64.0052 3.74768 65.135 4.04174 66.2111C6.13447 73.8632 12.8216 78.9456 20.7804 78.967C25.6269 78.9799 30.4735 78.9939 35.319 78.9531C36.5993 78.9424 37.8989 78.8383 39.1535 78.5926C45.3566 77.3791 50.069 74.0134 53.3208 68.5995C55.8761 64.3443 58.4281 60.0869 60.9802 55.8296C61.0768 55.6676 61.1648 55.5013 61.2624 55.3264C59.1525 53.6398 57.0888 51.9896 55.0229 50.3384C54.9134 50.4296 54.8286 50.4951 54.7492 50.5669C50.4693 54.4166 46.1958 58.2748 41.9073 62.1158C39.6203 64.164 36.9341 65.2262 33.8541 65.2294C28.4892 65.2369 23.1242 65.2316 17.7593 65.2316C17.5715 65.2316 17.3837 65.2316 17.2023 65.2316C17.2023 64.0481 17.2023 62.9473 17.2023 61.7929C18.3625 61.7929 19.4936 61.7929 20.7256 61.7929C17.4234 57.0785 14.1813 52.4478 10.9156 47.7838ZM3.44933 99.5327C19.4947 99.5327 35.4907 99.5327 51.4727 99.5327C51.4727 93.8033 51.4727 88.1115 51.4727 82.3993C51.1443 82.3993 50.8589 82.3993 50.5734 82.3993C40.6292 82.3993 30.686 82.4047 20.7417 82.3907C19.7447 82.3896 18.7381 82.3317 17.7518 82.1869C11.9018 81.3296 7.25703 78.4671 3.78095 73.6947C3.69509 73.5767 3.59636 73.4673 3.44933 73.286C3.44933 82.0903 3.44933 90.7917 3.44933 99.5327ZM20.8952 13.5631C20.042 14.7219 19.0397 15.6424 17.7905 16.2744C16.5284 16.9128 15.1837 17.2024 13.7348 17.1778C13.7348 17.3516 13.7348 17.4728 13.7348 17.5941C13.7348 22.6014 13.7273 27.6076 13.7434 32.6149C13.7456 33.3434 13.825 34.0784 13.9366 34.8004C15.1579 42.6821 22.9965 47.8761 30.7321 45.9416C36.2945 44.5511 40.5165 39.8206 41.0563 34.3638C38.8273 34.3638 36.5993 34.3638 34.3746 34.3638C34.1288 37.9988 31.2644 40.0266 27.5018 39.4075C27.5018 38.3067 27.5018 37.2059 27.5018 36.0525C28.0599 36.0525 28.5922 36.06 29.1234 36.0504C29.7319 36.0396 30.319 35.8412 30.5636 35.2865C30.7901 34.7715 30.8706 34.162 30.8717 33.5945C30.8717 33.3863 30.4746 33.1567 30.231 32.9722C27.8345 31.1557 26.8783 28.1086 27.8227 25.2686C28.7489 22.4866 31.3653 20.6143 34.3531 20.6057C36.4458 20.5993 38.5386 20.6047 40.6313 20.6047C40.818 20.6047 41.0058 20.6047 41.1808 20.6047C41.1808 19.4159 41.1808 18.314 41.1808 17.167C40.9415 17.167 40.73 17.167 40.5197 17.167C36.4233 17.167 32.328 17.1649 28.2316 17.167C26.7753 17.1681 25.4048 16.8162 24.1051 16.1735C22.8559 15.5555 21.8085 14.679 20.8952 13.5631ZM48.0406 78.9445C51.5446 78.9445 55.0819 78.9681 58.6202 78.9295C59.5786 78.9188 60.5477 78.7868 61.4899 78.599C67.6855 77.363 72.3979 74.008 75.6476 68.5962C78.2018 64.3421 80.7517 60.0859 83.3037 55.8307C83.4003 55.6687 83.4883 55.5024 83.586 55.3264C81.5233 53.6784 79.5068 52.068 77.4774 50.4468C77.1844 50.7708 76.944 51.0337 76.7068 51.3008C73.9154 54.4391 71.1283 57.5806 68.3326 60.7146C66.0639 63.2563 63.2446 64.7573 59.849 65.1414C59.5217 65.179 59.3081 65.3067 59.1343 65.6017C58.1566 67.2637 57.1553 68.9106 56.1669 70.5661C54.922 72.6519 53.4335 74.5466 51.5961 76.1378C50.4532 77.1259 49.2244 78.0154 48.0406 78.9445ZM99.5938 27.5132C99.6249 21.86 95.0123 17.2067 89.3362 17.167C83.6912 17.1273 79.0077 21.7656 78.9863 27.4198C78.9648 33.0827 83.5763 37.7381 89.2396 37.7692C94.8857 37.8003 99.5627 33.1685 99.5938 27.5132ZM80.1496 17.167C78.118 17.167 76.1884 17.1477 74.2599 17.1767C73.4604 17.1885 72.6512 17.2475 71.8645 17.3827C66.5286 18.3033 62.7349 23.7236 63.6599 29.0732C64.5421 34.1792 68.748 37.7381 73.9455 37.7681C75.8397 37.7789 77.7349 37.7703 79.6291 37.7681C79.7772 37.7681 79.9253 37.7467 80.1196 37.7316C74.1097 32.2909 73.9755 22.7666 80.1496 17.167ZM61.9235 20.61C58.8434 20.61 55.86 20.6068 52.8765 20.6154C52.5577 20.6165 52.2347 20.6712 51.9203 20.7334C48.5504 21.4029 46.1228 24.5251 46.3718 27.8608C46.638 31.4283 49.4315 34.2211 52.9655 34.3155C55.8761 34.3927 58.7909 34.3337 61.7035 34.3337C61.7507 34.3337 61.798 34.3101 61.8967 34.2844C60.7258 32.1525 60.0959 29.8993 60.0959 27.4767C60.0969 25.0519 60.7183 22.7956 61.9235 20.61ZM41.257 13.7369C41.1679 13.0395 41.111 12.4183 41.0058 11.8068C40.2589 7.46466 36.4684 3.89614 32.0608 3.54744C29.9101 3.37792 27.739 3.41547 25.5786 3.45839C23.9506 3.49057 22.6316 4.67078 22.4224 6.28445C22.3054 7.18785 22.3172 8.15669 22.5125 9.04184C23.1446 11.9001 25.525 13.7251 28.4967 13.7337C32.5727 13.7455 36.6487 13.7369 40.7247 13.7369C40.8653 13.7369 41.0058 13.7369 41.257 13.7369ZM72.0824 41.1339C71.901 41.0909 71.784 41.0555 71.6649 41.0362C69.1408 40.6178 66.9042 39.5813 64.9381 37.9451C64.7943 37.825 64.5528 37.7767 64.3554 37.7746C62.7649 37.7606 61.1734 37.767 59.5829 37.767C58.4764 37.767 57.371 37.767 56.2731 37.767C56.2291 37.8904 56.1916 37.972 56.1712 38.0567C55.4618 41.0255 55.596 43.9696 56.4449 46.8879C56.4931 47.0553 56.6509 47.2098 56.7947 47.3267C57.7778 48.1282 58.7705 48.9189 59.761 49.7108C60.9158 50.6335 62.0727 51.554 63.2468 52.4907C66.2045 48.6904 69.129 44.9309 72.0824 41.1339ZM77.7231 41.2347C77.7145 41.2916 77.692 41.3442 77.7017 41.3914C78.0622 43.2271 78.4196 45.0639 78.8006 46.8954C78.8349 47.0628 79.0002 47.228 79.144 47.345C80.3503 48.3245 81.5662 49.2923 82.78 50.2633C83.6804 50.9832 84.583 51.701 85.5059 52.436C85.6551 52.2375 85.7742 52.084 85.8869 51.9263C87.2155 50.067 88.5828 48.2333 89.8556 46.3375C90.5564 45.2925 91.1424 44.1627 91.6951 43.0286C92.0138 42.3752 92.163 41.6392 92.3755 40.9815C87.4355 41.4439 82.5761 41.0555 77.7231 41.2347ZM52.693 37.7853C52.5642 37.7713 52.4772 37.7606 52.3914 37.752C49.8865 37.4977 47.7004 36.5386 45.9426 34.721C45.5004 34.264 45.07 34.3026 44.5635 34.3874C44.2566 37.2574 43.2907 39.8539 41.7163 42.2239C44.9745 44.4932 48.544 46.2034 51.5854 48.7666C51.9245 48.464 52.2594 48.1153 52.6457 47.8364C52.9827 47.5928 53.001 47.331 52.9065 46.9695C52.1167 43.9481 52.0641 40.9053 52.693 37.7853ZM43.4796 24.0959C43.4055 24.0659 43.3733 24.0412 43.3411 24.0412C40.2825 24.0401 37.2228 23.9822 34.1674 24.0605C32.0007 24.1163 30.5486 26.1441 31.0122 28.2589C31.3482 29.7878 32.7519 30.8918 34.425 30.8993C37.3226 30.9122 40.2192 30.9036 43.1168 30.9025C43.2231 30.9025 43.3282 30.8875 43.4871 30.8757C42.7337 28.6033 42.7305 26.3405 43.4796 24.0959ZM34.2361 61.7768C36.2033 61.6427 37.8764 61.0268 39.2812 59.8101C41.0788 58.2544 42.8292 56.6439 44.5989 55.055C46.0477 53.7546 47.4955 52.451 49.0731 51.0337C47.371 49.9243 45.7343 48.8567 44.0505 47.7591C40.7687 52.4467 37.5276 57.0763 34.2361 61.7768ZM74.6012 43.5683C74.4338 43.7604 74.3243 43.8741 74.2277 43.9975C71.8141 47.0982 69.4509 50.2397 66.974 53.2889C65.0712 55.6311 63.5848 58.2286 62.0319 60.7908C61.9901 60.8594 61.9664 60.9378 61.8935 61.1062C62.1424 61.0118 62.3045 60.9603 62.459 60.8895C63.7801 60.2865 64.8877 59.4056 65.8482 58.322C68.822 54.9648 71.7916 51.6055 74.7965 48.2763C75.2526 47.7709 75.4211 47.3289 75.2462 46.6647C74.9854 45.6723 74.8223 44.6552 74.6012 43.5683ZM13.8186 13.7133C16.2332 13.841 18.4634 12.0707 18.7799 9.68559C18.9055 8.73499 18.9012 7.75971 18.8722 6.79838C18.8422 5.79413 17.9879 5.09458 16.9909 5.15789C15.408 5.25874 13.9774 6.38316 13.854 7.95176C13.7048 9.84653 13.8186 11.7638 13.8186 13.7133ZM21.6937 57.1557C21.845 56.5764 21.9459 56.1289 22.0811 55.6912C22.2228 55.2309 22.2056 54.805 22.0307 54.3436C21.6786 53.4102 21.3953 52.4521 21.0691 51.509C20.7697 50.6453 20.4853 49.7794 20.6119 48.8471C20.6656 48.4565 20.4638 48.3138 20.1504 48.1314C19.0407 47.4877 17.9482 46.8117 16.8793 46.1025C16.3803 45.771 15.9499 45.3343 15.4799 44.9373C14.9325 45.2796 14.4056 45.6101 13.8529 45.9566C16.4533 49.6721 19.0332 53.3576 21.6937 57.1557ZM39.4443 44.9234C37.9859 46.3182 36.3879 47.4072 34.616 48.2505C34.4776 48.316 34.3445 48.5788 34.3542 48.7408C34.4132 49.6861 34.2254 50.5766 33.8991 51.4575C33.5783 52.3244 33.3819 53.2449 32.9977 54.0807C32.5029 55.1569 33.0588 56.0624 33.2262 57.1986C35.9103 53.3651 38.4935 49.6753 41.0949 45.9598C40.5336 45.6058 40.0067 45.2753 39.4443 44.9234ZM27.4482 61.8036C28.1629 61.8036 28.8766 61.8058 29.5913 61.8025C30.1226 61.8004 30.6763 61.1234 30.5508 60.6127C30.2524 59.4035 29.9519 58.1943 29.6224 56.9926C29.5838 56.851 29.3574 56.6676 29.2136 56.6643C28.0534 56.6375 26.8922 56.6375 25.7321 56.6643C25.5894 56.6676 25.364 56.8532 25.3254 56.9959C25.0206 58.0935 24.7491 59.1996 24.4733 60.3047C24.2393 61.2425 24.675 61.8036 25.628 61.8025C26.2344 61.8025 26.8418 61.8036 27.4482 61.8036ZM24.03 49.4457C24.4378 50.6646 24.8124 51.8115 25.2148 52.9488C25.2567 53.0679 25.4574 53.2052 25.5872 53.2074C26.8375 53.2267 28.0889 53.2246 29.3391 53.2106C29.469 53.2095 29.6783 53.1183 29.7126 53.0207C30.1204 51.8566 30.5025 50.6828 30.9124 49.449C28.5986 49.8953 26.3653 49.9017 24.03 49.4457Z" fill="#2B2B6E"/>
<path d="M18.9151 23.9958C18.9151 22.8563 18.9151 21.7566 18.9151 20.63C21.1839 20.63 23.4268 20.63 25.7127 20.63C25.7127 21.7341 25.7127 22.8467 25.7127 23.9958C23.4676 23.9958 21.2118 23.9958 18.9151 23.9958Z" fill="#2B2B6E"/>
<path d="M24.0375 27.4774C24.0343 28.4248 23.2852 29.1758 22.3397 29.1823C21.3652 29.1887 20.6043 28.4302 20.6086 27.457C20.6118 26.4849 21.3781 25.7414 22.359 25.7543C23.3002 25.7661 24.0407 26.5257 24.0375 27.4774Z" fill="#2B2B6E"/>
</svg>
