<svg width="22" height="22" viewBox="0 0 22 22" fill="none" xmlns="http://www.w3.org/2000/svg">
<path d="M10.5625 0C8.72791 0.000492169 6.92506 0.478691 5.33139 1.38753C3.73773 2.29637 2.40819 3.60452 1.47362 5.18324C0.539056 6.76195 0.0316818 8.55681 0.00143623 10.3912C-0.0288093 12.2255 0.419116 14.0361 1.30113 15.6448L0.433072 18.683C0.353457 18.9617 0.349806 19.2565 0.422498 19.5371C0.49519 19.8176 0.64158 20.0736 0.846497 20.2785C1.05141 20.4834 1.3074 20.6298 1.58793 20.7025C1.86847 20.7752 2.16333 20.7716 2.44198 20.6919L5.48032 19.8239C6.89227 20.5986 8.46268 21.0403 10.0715 21.115C11.6803 21.1898 13.2849 20.8957 14.7626 20.2552C16.2403 19.6147 17.552 18.6448 18.5974 17.4197C19.6428 16.1945 20.3941 14.7465 20.7941 13.1864C21.1941 11.6263 21.232 9.99546 20.905 8.41847C20.578 6.84147 19.8947 5.36013 18.9074 4.0877C17.9201 2.81527 16.6549 1.78545 15.2086 1.07697C13.7622 0.368486 12.1731 0.000108736 10.5625 0ZM10.5625 19.5C8.95749 19.5011 7.38187 19.0694 6.00164 18.2502C5.90645 18.1936 5.80071 18.157 5.69089 18.1428C5.58107 18.1285 5.4695 18.1369 5.36302 18.1673L1.99561 19.1295L2.95761 15.762C2.98803 15.6555 2.99636 15.544 2.98211 15.4342C2.96786 15.3244 2.93132 15.2187 2.87474 15.1236C1.86811 13.4275 1.45068 11.4462 1.68747 9.48822C1.92426 7.53023 2.80197 5.70553 4.18387 4.29835C5.56577 2.89118 7.37428 1.98055 9.32766 1.70832C11.281 1.4361 13.2696 1.81756 14.9836 2.79328C16.6976 3.76901 18.0407 5.28421 18.8039 7.10285C19.567 8.92149 19.7072 10.9415 19.2026 12.8481C18.6981 14.7547 17.5771 16.4409 16.0143 17.6441C14.4516 18.8472 12.5348 19.4998 10.5625 19.5ZM15.8941 12.093L13.8162 10.9056C13.5655 10.7625 13.2813 10.6887 12.9927 10.6918C12.704 10.6949 12.4215 10.7748 12.1739 10.9231L10.9704 11.6454C10.3511 11.2882 9.83695 10.774 9.47975 10.1547L10.2019 8.95101C10.3502 8.70345 10.4301 8.42086 10.4331 8.13226C10.4362 7.84365 10.3625 7.55942 10.2194 7.30874L9.03196 5.23077C8.89941 4.9995 8.70821 4.80727 8.47765 4.67348C8.24709 4.53969 7.98533 4.46907 7.71876 4.46875C6.75136 4.46912 5.82349 4.85272 5.13826 5.5356C4.45302 6.21848 4.06622 7.14501 4.06251 8.11241C4.06085 9.28715 4.2908 10.4507 4.73921 11.5365C5.18761 12.6223 5.84567 13.609 6.67575 14.4403C7.50583 15.2715 8.49164 15.931 9.5768 16.3809C10.662 16.8309 11.8252 17.0625 12.9999 17.0625C13.0042 17.0625 13.0105 17.0648 13.0127 17.0625C13.9801 17.0588 14.9066 16.672 15.5894 15.9867C16.2723 15.3015 16.6559 14.3736 16.6563 13.4063C16.6559 13.1397 16.5853 12.8779 16.4515 12.6473C16.3177 12.4168 16.1254 12.2256 15.8941 12.093ZM13.0105 15.4375C12.0484 15.4389 11.0956 15.2504 10.2065 14.8829C9.31738 14.5154 8.50956 13.976 7.82928 13.2957C7.14901 12.6155 6.60966 11.8076 6.24213 10.9185C5.87461 10.0295 5.68613 9.07659 5.68751 8.11454C5.68996 7.58875 5.8963 7.08442 6.26309 6.7077C6.62989 6.33098 7.12853 6.11125 7.65406 6.09477L8.80853 8.11484L7.85506 9.7042C7.78762 9.81656 7.74837 9.94356 7.74064 10.0744C7.73291 10.2052 7.75694 10.3359 7.81067 10.4555C8.38162 11.7262 9.39886 12.7434 10.6697 13.3143C10.7892 13.3681 10.9199 13.3921 11.0507 13.3844C11.1815 13.3767 11.3085 13.3374 11.4208 13.27L13.0102 12.3165L15.0303 13.4708C15.0139 13.9964 14.7942 14.4951 14.4174 14.8619C14.0407 15.2287 13.5363 15.4351 13.0105 15.4375Z" fill="#00C2FF"/>
</svg>
